<svg width="172" height="27" viewBox="0 0 172 27" fill="none" xmlns="http://www.w3.org/2000/svg">
<path d="M11.99 1.05005L23.99 13.05L11.48 25.55L3 25.55L15.5 13.05L3.51001 1.05005L11.99 1.05005Z" stroke="#F86623" stroke-width="2"/>
<path d="M33.14 0.999999L45.14 13L32.63 25.5L24.15 25.5L36.65 13L24.66 0.999998L33.14 0.999999Z" stroke="#F86623" stroke-width="2"/>
<path d="M53.89 0.999999L65.89 13L53.38 25.5L44.9 25.5L57.4 13L45.41 0.999998L53.89 0.999999Z" stroke="#F86623" stroke-width="2"/>
<path d="M74.64 0.999999L86.64 13L74.13 25.5L65.65 25.5L78.15 13L66.16 0.999998L74.64 0.999999Z" stroke="#F86623" stroke-width="2"/>
<path d="M95.64 0.999999L107.63 13L95.12 25.5L86.64 25.5L99.14 13L87.15 0.999998L95.64 0.999999Z" stroke="#F86623" stroke-width="2"/>
<path d="M116.39 0.999999L128.38 13L115.87 25.5L107.39 25.5L119.89 13L107.9 0.999998L116.39 0.999999Z" stroke="#F86623" stroke-width="2"/>
<path d="M137.14 0.999999L149.13 13L136.62 25.5L128.14 25.5L140.64 13L128.65 0.999998L137.14 0.999999Z" stroke="#F86623" stroke-width="2"/>
<path d="M157.89 0.999999L169.88 13L157.37 25.5L148.89 25.5L161.39 13L149.4 0.999998L157.89 0.999999Z" stroke="#F86623" stroke-width="2"/>
</svg>
