<svg width="55" height="55" viewBox="0 0 55 55" fill="none" xmlns="http://www.w3.org/2000/svg">
<path d="M17.2669 5.76105C17.4178 5.23276 17.7365 4.76791 18.1749 4.43669C18.6133 4.10548 19.1475 3.9259 19.6969 3.92505H36.4065C36.8156 3.92471 37.2187 4.02352 37.5812 4.21302C37.9437 4.40252 38.255 4.67706 38.4882 5.01314C38.7214 5.34922 38.8697 5.73681 38.9204 6.14274C38.9711 6.54866 38.9226 6.96082 38.7792 7.34392L34.9992 17.425H42.4174C42.9118 17.4252 43.3954 17.5701 43.8084 17.842C44.2214 18.1138 44.5457 18.5007 44.7413 18.9548C44.9369 19.4088 44.9953 19.9103 44.9092 20.3971C44.8231 20.884 44.5963 21.335 44.2568 21.6944L16.9159 50.6452C16.6599 50.9168 16.3211 51.0959 15.9524 51.1545C15.5837 51.213 15.2061 51.1476 14.8785 50.9686C14.551 50.7896 14.292 50.507 14.1422 50.1651C13.9924 49.8233 13.9601 49.4413 14.0505 49.0792L18.5899 30.925H13.4329C13.0409 30.9255 12.6541 30.8349 12.3031 30.6603C11.9521 30.4858 11.6464 30.2321 11.4101 29.9193C11.1739 29.6065 11.0135 29.243 10.9417 28.8577C10.8698 28.4723 10.8885 28.0755 10.9962 27.6985L17.2669 5.76105ZM20.3382 7.30005L14.5467 27.55H20.7499C21.0062 27.5501 21.2592 27.6086 21.4895 27.721C21.7199 27.8334 21.9216 27.9968 22.0794 28.1989C22.2372 28.4009 22.3469 28.6362 22.4001 28.8869C22.4534 29.1376 22.4488 29.3972 22.3868 29.6459L18.8937 43.6387L40.4599 20.8H32.5624C32.2896 20.8 32.0209 20.7339 31.7792 20.6073C31.5376 20.4807 31.3302 20.2974 31.175 20.0731C31.0197 19.8488 30.9211 19.5902 30.8876 19.3195C30.8542 19.0487 30.8869 18.7739 30.9829 18.5185L35.1915 7.30005H20.3348H20.3382Z" fill="white"/>
</svg>
