<svg width="55" height="55" viewBox="0 0 55 55" fill="none" xmlns="http://www.w3.org/2000/svg">
<path d="M33.6965 34.3C35.0385 34.3 36.3256 34.8332 37.2746 35.7822C38.2236 36.7311 38.7567 38.0182 38.7567 39.3603V40.654C38.7567 42.6678 38.0367 44.614 36.7295 46.1418C33.197 50.266 27.8262 52.3 20.75 52.3C13.6715 52.3 8.30296 50.2638 4.77946 46.135C3.47502 44.6084 2.75781 42.6666 2.75671 40.6585V39.358C2.75701 38.6935 2.88819 38.0356 3.14276 37.4217C3.39734 36.8079 3.77032 36.2502 4.24042 35.7806C4.71051 35.3109 5.26852 34.9384 5.88257 34.6844C6.49662 34.4303 7.15469 34.2998 7.81921 34.3H33.6965ZM33.6965 37.675H7.81696C7.37001 37.675 6.94136 37.8526 6.62531 38.1686C6.30927 38.4847 6.13171 38.9133 6.13171 39.3603V40.6608C6.13171 41.8645 6.56371 43.03 7.34671 43.9458C10.1637 47.251 14.5872 48.9296 20.75 48.9296C26.9127 48.9296 31.3385 47.251 34.1645 43.948C34.9489 43.0307 35.3798 41.8633 35.3795 40.6563V39.3625C35.3795 38.916 35.2022 38.4877 34.8867 38.1717C34.5711 37.8557 34.143 37.6779 33.6965 37.6773V37.675ZM43.3715 3.70905C43.76 3.48719 44.2207 3.42869 44.6523 3.5464C45.0839 3.66412 45.4511 3.94842 45.6732 4.3368C48.1469 8.66482 49.4447 13.565 49.4375 18.55C49.4375 23.6215 48.119 28.504 45.6485 32.806C45.5432 33.0074 45.3984 33.1854 45.2227 33.3295C45.047 33.4735 44.844 33.5806 44.6259 33.6442C44.4078 33.7079 44.1791 33.7269 43.9535 33.7001C43.7279 33.6732 43.5101 33.6011 43.313 33.488C43.116 33.3749 42.9438 33.2232 42.8068 33.042C42.6698 32.8608 42.5708 32.6537 42.5157 32.4333C42.4607 32.2129 42.4507 31.9836 42.4864 31.7592C42.5221 31.5349 42.6027 31.32 42.7235 31.1275C44.9189 27.2999 46.0704 22.9626 46.0625 18.55C46.0625 14.0883 44.9082 9.79755 42.7437 6.0108C42.5219 5.62229 42.4634 5.16159 42.5811 4.72996C42.6988 4.29834 42.9831 3.93112 43.3715 3.70905V3.70905ZM20.75 7.30905C23.7337 7.30905 26.5951 8.49431 28.7049 10.6041C30.8147 12.7139 32 15.5754 32 18.559C32 21.5427 30.8147 24.4042 28.7049 26.514C26.5951 28.6238 23.7337 29.809 20.75 29.809C17.7663 29.809 14.9048 28.6238 12.795 26.514C10.6852 24.4042 9.49996 21.5427 9.49996 18.559C9.49996 15.5754 10.6852 12.7139 12.795 10.6041C14.9048 8.49431 17.7663 7.30905 20.75 7.30905V7.30905ZM35.573 8.20005C35.9617 7.97837 36.4227 7.92021 36.8543 8.03836C37.286 8.15651 37.653 8.44128 37.8747 8.83005C39.5593 11.7922 40.4426 15.1424 40.4375 18.55C40.4375 22.0105 39.542 25.345 37.8635 28.288C37.7547 28.4824 37.6085 28.6533 37.4333 28.7909C37.2582 28.9285 37.0575 29.03 36.8429 29.0897C36.6283 29.1493 36.404 29.1659 36.183 29.1385C35.962 29.111 35.7485 29.0401 35.5551 28.9297C35.3616 28.8194 35.1918 28.6719 35.0556 28.4956C34.9195 28.3194 34.8195 28.1179 34.7616 27.9028C34.7036 27.6878 34.6888 27.4634 34.718 27.2426C34.7472 27.0217 34.8199 26.8089 34.9317 26.6163C36.3326 24.1591 37.0672 21.3785 37.0625 18.55C37.0673 15.7277 36.3359 12.9529 34.9407 10.4995C34.7199 10.1107 34.6625 9.65013 34.7811 9.21898C34.8996 8.78783 35.1844 8.42136 35.573 8.20005V8.20005ZM20.75 10.6863C19.7158 10.6863 18.6918 10.89 17.7363 11.2857C16.7809 11.6815 15.9128 12.2616 15.1815 12.9928C14.4502 13.7241 13.8702 14.5922 13.4744 15.5477C13.0787 16.5031 12.875 17.5271 12.875 18.5613C12.875 19.5955 13.0787 20.6195 13.4744 21.5749C13.8702 22.5304 14.4502 23.3985 15.1815 24.1298C15.9128 24.861 16.7809 25.4411 17.7363 25.8369C18.6918 26.2326 19.7158 26.4363 20.75 26.4363C22.8385 26.4363 24.8416 25.6066 26.3184 24.1298C27.7953 22.6529 28.625 20.6499 28.625 18.5613C28.625 16.4727 27.7953 14.4697 26.3184 12.9928C24.8416 11.516 22.8385 10.6863 20.75 10.6863V10.6863Z" fill="white"/>
</svg>
