<svg width="55" height="55" viewBox="0 0 55 55" fill="none" xmlns="http://www.w3.org/2000/svg">
<path d="M33.1925 8.62768C32.8761 8.31167 32.4472 8.13417 32 8.13417C31.5528 8.13417 31.1239 8.31167 30.8075 8.62768L8.57751 30.8577C8.2615 31.1741 8.084 31.603 8.084 32.0502C8.084 32.4974 8.2615 32.9263 8.57751 33.2427L10.9828 35.6457C12.1588 34.9886 13.5172 34.7333 14.8515 34.9186C16.1858 35.1038 17.4233 35.7195 18.3759 36.6721C19.3284 37.6247 19.9441 38.8621 20.1293 40.1964C20.3146 41.5308 20.0593 42.8891 19.4023 44.0652L21.8075 46.4727C21.9642 46.6295 22.1503 46.7539 22.3551 46.8388C22.5599 46.9236 22.7794 46.9673 23.0011 46.9673C23.2228 46.9673 23.4424 46.9236 23.6472 46.8388C23.852 46.7539 24.038 46.6295 24.1948 46.4727L46.4225 24.2449C46.7385 23.9285 46.916 23.4996 46.916 23.0524C46.916 22.6052 46.7385 22.1763 46.4225 21.8599L44.015 19.4502C42.839 20.1072 41.4806 20.3625 40.1463 20.1773C38.8119 19.992 37.5745 19.3763 36.6219 18.4238C35.6693 17.4712 35.0537 16.2338 34.8684 14.8994C34.6832 13.5651 34.9385 12.2067 35.5955 11.0307L33.1925 8.62768ZM28.4225 6.24268C28.8926 5.77258 29.4507 5.39967 30.0649 5.14525C30.6791 4.89084 31.3374 4.75989 32.0023 4.75989C32.6671 4.75989 33.3254 4.89084 33.9396 5.14525C34.5538 5.39967 35.1119 5.77258 35.582 6.24268L38.2168 8.87968C39.3665 10.0272 39.1618 11.6404 38.5813 12.6147C38.2622 13.1521 38.1312 13.7805 38.2089 14.4007C38.2867 15.0208 38.5689 15.5974 39.0108 16.0394C39.4528 16.4813 40.0294 16.7635 40.6495 16.8412C41.2697 16.919 41.8981 16.788 42.4355 16.4689C43.4098 15.8907 45.023 15.6837 46.1705 16.8334L48.8075 19.4727C49.2776 19.9428 49.6505 20.5009 49.9049 21.1151C50.1594 21.7293 50.2903 22.3876 50.2903 23.0524C50.2903 23.7173 50.1594 24.3756 49.9049 24.9898C49.6505 25.604 49.2776 26.1621 48.8075 26.6322L26.582 48.8577C26.1119 49.3278 25.5538 49.7007 24.9396 49.9551C24.3254 50.2095 23.6671 50.3405 23.0023 50.3405C22.3374 50.3405 21.6791 50.2095 21.0649 49.9551C20.4507 49.7007 19.8926 49.3278 19.4225 48.8577L16.7855 46.2229C15.638 45.0754 15.8405 43.4599 16.421 42.4879C16.7401 41.9505 16.8711 41.3221 16.7933 40.7019C16.7155 40.0818 16.4334 39.5052 15.9914 39.0633C15.5495 38.6213 14.9729 38.3392 14.3527 38.2614C13.7326 38.1836 13.1042 38.3146 12.5668 38.6337C11.5925 39.2119 9.97926 39.4167 8.83176 38.2669L6.19251 35.6299C5.72241 35.1598 5.3495 34.6017 5.09508 33.9875C4.84066 33.3733 4.70972 32.715 4.70972 32.0502C4.70972 31.3854 4.84066 30.727 5.09508 30.1128C5.3495 29.4986 5.72241 28.9405 6.19251 28.4704L28.4225 6.24268Z" fill="white"/>
</svg>
