<svg width="37" height="28" viewBox="0 0 37 28" fill="none" xmlns="http://www.w3.org/2000/svg">
<path d="M30.8861 3.13384C28.6195 2.11165 26.1899 1.35611 23.6492 0.92649C23.6266 0.922146 23.6032 0.924945 23.5822 0.9345C23.5613 0.944055 23.5438 0.959894 23.5322 0.979822C23.2211 1.52647 22.8744 2.23905 22.6315 2.802C19.9369 2.3994 17.1974 2.3994 14.5028 2.802C14.2322 2.1781 13.927 1.56977 13.5887 0.979822C13.5773 0.959648 13.5599 0.943452 13.539 0.933393C13.5181 0.923335 13.4946 0.919893 13.4717 0.923527C10.9325 1.35315 8.50294 2.10868 6.23485 3.13236C6.21534 3.14055 6.1988 3.1545 6.18745 3.17236C1.57719 9.94997 0.313515 16.5602 0.93424 23.0874C0.935968 23.1034 0.94093 23.1189 0.948825 23.1329C0.95672 23.1469 0.967383 23.1592 0.980165 23.1689C3.67105 25.128 6.67238 26.6204 9.85847 27.5836C9.88068 27.5905 9.90443 27.5904 9.92663 27.5836C9.94883 27.5767 9.96844 27.5633 9.98291 27.5451C10.6673 26.6266 11.2777 25.6563 11.7992 24.637C11.8303 24.5778 11.8006 24.5067 11.7384 24.4829C10.7814 24.1226 9.85415 23.6876 8.96515 23.1822C8.94918 23.1731 8.93572 23.1602 8.92598 23.1446C8.91624 23.129 8.91053 23.1112 8.90935 23.0928C8.90818 23.0745 8.91158 23.0561 8.91925 23.0394C8.92692 23.0227 8.93862 23.0081 8.9533 22.9971C9.13997 22.8593 9.32663 22.7156 9.5044 22.5719C9.5204 22.559 9.53968 22.5507 9.56008 22.5481C9.58048 22.5455 9.60121 22.5486 9.61995 22.5571C15.4376 25.1703 21.7382 25.1703 27.4877 22.5571C27.5065 22.5481 27.5274 22.5446 27.5481 22.547C27.5688 22.5493 27.5884 22.5574 27.6047 22.5704C27.7825 22.7156 27.9677 22.8593 28.1558 22.9971C28.1706 23.0079 28.1825 23.0223 28.1904 23.0388C28.1983 23.0554 28.202 23.0737 28.2011 23.092C28.2003 23.1104 28.1948 23.1282 28.1854 23.144C28.1759 23.1597 28.1627 23.1729 28.1469 23.1822C27.261 23.6919 26.3395 24.123 25.3722 24.4815C25.3573 24.4869 25.3438 24.4954 25.3325 24.5064C25.3211 24.5174 25.3123 24.5308 25.3066 24.5455C25.3008 24.5602 25.2983 24.576 25.2991 24.5918C25.3 24.6076 25.3042 24.623 25.3114 24.637C25.8447 25.6548 26.4551 26.6236 27.1262 27.5436C27.1401 27.5625 27.1596 27.5766 27.1819 27.584C27.2041 27.5915 27.2281 27.5918 27.2506 27.5851C30.4422 26.6246 33.4484 25.1315 36.1423 23.1689C36.1554 23.1597 36.1664 23.1478 36.1746 23.134C36.1828 23.1202 36.1879 23.1048 36.1897 23.0889C36.9304 15.5424 34.9482 8.98555 30.932 3.17532C30.9222 3.15644 30.9059 3.14172 30.8861 3.13384ZM12.6688 19.1127C10.9177 19.1127 9.47329 17.529 9.47329 15.5869C9.47329 13.6432 10.8896 12.061 12.6688 12.061C14.4613 12.061 15.8924 13.6565 15.8642 15.5869C15.8642 17.5305 14.448 19.1127 12.6688 19.1127ZM24.4833 19.1127C22.7307 19.1127 21.2878 17.529 21.2878 15.5869C21.2878 13.6432 22.7026 12.061 24.4833 12.061C26.2758 12.061 27.7069 13.6565 27.6788 15.5869C27.6788 17.5305 26.2773 19.1127 24.4833 19.1127Z" fill="white"/>
</svg>
