<svg width="27" height="28" viewBox="0 0 27 28" fill="none" xmlns="http://www.w3.org/2000/svg">
<path d="M26.9142 8.8033C26.8992 7.68214 26.6894 6.57214 26.2939 5.52293C25.951 4.63793 25.4273 3.83419 24.7561 3.16306C24.085 2.49193 23.2813 1.96818 22.3963 1.62527C21.3605 1.23647 20.2664 1.02625 19.1603 1.00354C17.7362 0.939883 17.2847 0.922119 13.6698 0.922119C10.0549 0.922119 9.59157 0.922119 8.17788 1.00354C7.07232 1.02641 5.97865 1.23664 4.9434 1.62527C4.05826 1.96794 3.25439 2.49161 2.58324 3.16277C1.91208 3.83392 1.38841 4.63779 1.04574 5.52293C0.656166 6.55786 0.446394 7.65178 0.425488 8.75741C0.361834 10.1829 0.34259 10.6344 0.34259 14.2494C0.34259 17.8643 0.34259 18.3261 0.425488 19.7413C0.447692 20.8486 0.656416 21.9411 1.04574 22.9788C1.38899 23.8636 1.91305 24.6672 2.58443 25.338C3.25581 26.0089 4.05975 26.5324 4.94488 26.8749C5.9773 27.2794 7.07115 27.5046 8.17936 27.5411C9.6049 27.6047 10.0564 27.624 13.6713 27.624C17.2862 27.624 17.7496 27.624 19.1633 27.5411C20.2693 27.5193 21.3635 27.3096 22.3992 26.9208C23.284 26.5775 24.0875 26.0536 24.7586 25.3826C25.4297 24.7115 25.9536 23.9079 26.2969 23.0232C26.6862 21.9869 26.8949 20.8945 26.9171 19.7857C26.9808 18.3617 27 17.9102 27 14.2938C26.9971 10.6789 26.9971 10.22 26.9142 8.8033ZM13.6609 21.0854C9.88023 21.0854 6.81747 18.0227 6.81747 14.242C6.81747 10.4612 9.88023 7.39848 13.6609 7.39848C15.476 7.39848 17.2166 8.11949 18.5 9.40289C19.7834 10.6863 20.5044 12.427 20.5044 14.242C20.5044 16.057 19.7834 17.7976 18.5 19.081C17.2166 20.3644 15.476 21.0854 13.6609 21.0854ZM20.7768 8.74112C20.5672 8.74132 20.3596 8.70018 20.1659 8.62005C19.9722 8.53992 19.7962 8.42239 19.648 8.27417C19.4998 8.12595 19.3822 7.94995 19.3021 7.75626C19.222 7.56256 19.1808 7.35496 19.181 7.14535C19.181 6.93588 19.2223 6.72847 19.3024 6.53496C19.3826 6.34144 19.5001 6.1656 19.6482 6.01749C19.7963 5.86938 19.9722 5.75189 20.1657 5.67173C20.3592 5.59157 20.5666 5.55031 20.7761 5.55031C20.9855 5.55031 21.1929 5.59157 21.3865 5.67173C21.58 5.75189 21.7558 5.86938 21.9039 6.01749C22.052 6.1656 22.1695 6.34144 22.2497 6.53496C22.3298 6.72847 22.3711 6.93588 22.3711 7.14535C22.3711 8.02761 21.6576 8.74112 20.7768 8.74112Z" fill="white"/>
<path d="M13.6611 18.6903C16.1162 18.6903 18.1065 16.7 18.1065 14.2449C18.1065 11.7898 16.1162 9.79956 13.6611 9.79956C11.206 9.79956 9.21576 11.7898 9.21576 14.2449C9.21576 16.7 11.206 18.6903 13.6611 18.6903Z" fill="white"/>
</svg>
