<svg width="27" height="171" viewBox="0 0 27 171" fill="none" xmlns="http://www.w3.org/2000/svg">
<path d="M26.2145 9.24221L13.9564 21.4666L1.19627 8.67056L1.21399 -4.95008e-06L13.9741 12.7961L26.2322 0.571702L26.2145 9.24221Z" fill="#34A1FD"/>
<path d="M26.1713 30.4224L13.9131 42.6468L1.15305 29.8507L1.17078 21.1802L13.9308 33.9925L26.189 21.7681L26.1713 30.4224Z" fill="#34A1FD"/>
<path d="M26.1278 51.6189L13.8697 63.8432L1.1096 51.0472L1.12732 42.3766L13.8874 55.1727L26.1455 42.9483L26.1278 51.6189Z" fill="#34A1FD"/>
<path d="M26.0851 72.799L13.827 85.0234L1.06687 72.2273L1.08456 63.5731L13.8446 76.3691L26.1028 64.1447L26.0851 72.799Z" fill="#34A1FD"/>
<path d="M26.0404 94.2395L13.7823 106.464L1.02219 93.6678L1.03992 84.9972L13.8 97.7933L26.0581 85.5852L26.0404 94.2395Z" fill="#34A1FD"/>
<path d="M25.9972 115.436L13.7391 127.644L0.978982 114.848L0.99667 106.194L13.7568 118.99L26.0149 106.765L25.9972 115.436Z" fill="#34A1FD"/>
<path d="M25.954 136.616L13.6959 148.84L0.935769 136.044L0.953491 127.374L13.7136 140.17L25.9717 127.962L25.954 136.616Z" fill="#34A1FD"/>
<path d="M25.911 157.813L13.6529 170.037L0.892833 157.225L0.910522 148.57L13.6706 161.366L25.9287 149.142L25.911 157.813Z" fill="#34A1FD"/>
</svg>
