<svg width="264" height="263" viewBox="0 0 264 263" fill="none" xmlns="http://www.w3.org/2000/svg">
<path d="M132.49 2.26562C60.7197 2.11893 2.41092 60.1898 2.26423 131.96C8.76186 304.363 255.011 304.817 262.184 132.491C262.33 60.7211 204.259 2.41231 132.49 2.26562Z" stroke="#F86623" stroke-width="2.8346" stroke-linecap="round" stroke-linejoin="round"/>
<path d="M132.446 23.4056C72.3464 23.2828 23.527 71.903 23.4041 132.003C28.8391 276.364 235.049 276.746 241.054 132.448C241.166 72.3479 192.546 23.5285 132.446 23.4056Z" stroke="#F86623" stroke-width="2.8346" stroke-linecap="round" stroke-linejoin="round"/>
<path d="M132.403 44.5355C83.9734 44.4365 44.6332 83.6161 44.5342 132.046C48.9165 248.375 215.076 248.685 219.914 132.404C220.013 83.9746 180.833 44.6345 132.403 44.5355Z" stroke="#F86623" stroke-width="2.8346" stroke-linecap="round" stroke-linejoin="round"/>
<path d="M132.36 65.6754C95.6001 65.6002 65.7393 95.3393 65.6641 132.099C68.9937 220.386 195.103 220.624 198.774 132.371C198.849 95.6114 169.11 65.7505 132.36 65.6754Z" stroke="#F86623" stroke-width="2.8346" stroke-linecap="round" stroke-linejoin="round"/>
<path d="M132.317 86.8054C107.227 86.7541 86.8553 107.053 86.804 132.132C89.0709 192.387 175.141 192.543 177.644 132.318C177.695 107.238 157.397 86.8566 132.317 86.8054Z" stroke="#F86623" stroke-width="2.8346" stroke-linecap="round" stroke-linejoin="round"/>
</svg>
