<svg width="152" height="152" viewBox="0 0 152 152" fill="none" xmlns="http://www.w3.org/2000/svg">
<path d="M1.14059 132.148L1.10229 150.884L19.8378 150.922L19.8761 132.187L1.14059 132.148Z" stroke="#34A1FD" stroke-width="0.425698" stroke-miterlimit="10"/>
<path d="M1.17819 113.413L1.13989 132.148L19.8754 132.187L19.9137 113.451L1.17819 113.413Z" stroke="#34A1FD" stroke-width="0.425698" stroke-miterlimit="10"/>
<path d="M1.21652 94.6773L1.17822 113.413L19.9137 113.451L19.952 94.7156L1.21652 94.6773Z" stroke="#34A1FD" stroke-width="0.425698" stroke-miterlimit="10"/>
<path d="M1.25485 75.9419L1.21655 94.6773L19.952 94.7156L19.9903 75.9802L1.25485 75.9419Z" stroke="#34A1FD" stroke-width="0.425698" stroke-miterlimit="10"/>
<path d="M1.29318 57.2064L1.25488 75.9419L19.9903 75.9802L20.0286 57.2447L1.29318 57.2064Z" stroke="#34A1FD" stroke-width="0.425698" stroke-miterlimit="10"/>
<path d="M1.33126 38.4709L1.29297 57.2064L20.0284 57.2447L20.0667 38.5092L1.33126 38.4709Z" stroke="#34A1FD" stroke-width="0.425698" stroke-miterlimit="10"/>
<path d="M1.36959 19.7355L1.3313 38.4709L20.0668 38.5092L20.1051 19.7738L1.36959 19.7355Z" stroke="#34A1FD" stroke-width="0.425698" stroke-miterlimit="10"/>
<path d="M1.40792 0.999999L1.36963 19.7355L20.1051 19.7738L20.1434 1.03829L1.40792 0.999999Z" stroke="#34A1FD" stroke-width="0.425698" stroke-miterlimit="10"/>
<path d="M19.8755 132.187L19.8372 150.922L38.5726 150.96L38.6109 132.225L19.8755 132.187Z" stroke="#34A1FD" stroke-width="0.425698" stroke-miterlimit="10"/>
<path d="M19.9138 113.451L19.8755 132.187L38.611 132.225L38.6492 113.489L19.9138 113.451Z" stroke="#34A1FD" stroke-width="0.425698" stroke-miterlimit="10"/>
<path d="M19.9521 94.7156L19.9138 113.451L38.6493 113.489L38.6876 94.7539L19.9521 94.7156Z" stroke="#34A1FD" stroke-width="0.425698" stroke-miterlimit="10"/>
<path d="M19.9902 75.9802L19.9519 94.7156L38.6874 94.7539L38.7257 76.0185L19.9902 75.9802Z" stroke="#34A1FD" stroke-width="0.425698" stroke-miterlimit="10"/>
<path d="M20.0285 57.2447L19.9902 75.9802L38.7257 76.0185L38.764 57.283L20.0285 57.2447Z" stroke="#34A1FD" stroke-width="0.425698" stroke-miterlimit="10"/>
<path d="M20.0669 38.5092L20.0286 57.2447L38.764 57.283L38.8023 38.5475L20.0669 38.5092Z" stroke="#34A1FD" stroke-width="0.425698" stroke-miterlimit="10"/>
<path d="M20.1052 19.7738L20.0669 38.5092L38.8024 38.5475L38.8407 19.8121L20.1052 19.7738Z" stroke="#34A1FD" stroke-width="0.425698" stroke-miterlimit="10"/>
<path d="M20.1435 1.03829L20.1052 19.7738L38.8407 19.8121L38.879 1.07658L20.1435 1.03829Z" stroke="#34A1FD" stroke-width="0.425698" stroke-miterlimit="10"/>
<path d="M38.6108 132.225L38.5725 150.96L57.308 150.999L57.3462 132.263L38.6108 132.225Z" stroke="#34A1FD" stroke-width="0.425698" stroke-miterlimit="10"/>
<path d="M38.6491 113.489L38.6108 132.225L57.3463 132.263L57.3846 113.528L38.6491 113.489Z" stroke="#34A1FD" stroke-width="0.425698" stroke-miterlimit="10"/>
<path d="M38.6875 94.7539L38.6492 113.489L57.3846 113.528L57.4229 94.7922L38.6875 94.7539Z" stroke="#34A1FD" stroke-width="0.425698" stroke-miterlimit="10"/>
<path d="M38.7258 76.0185L38.6875 94.7539L57.4229 94.7922L57.4612 76.0568L38.7258 76.0185Z" stroke="#34A1FD" stroke-width="0.425698" stroke-miterlimit="10"/>
<path d="M38.7641 57.283L38.7258 76.0185L57.4613 76.0567L57.4996 57.3213L38.7641 57.283Z" stroke="#34A1FD" stroke-width="0.425698" stroke-miterlimit="10"/>
<path d="M38.8022 38.5475L38.7639 57.283L57.4994 57.3213L57.5377 38.5858L38.8022 38.5475Z" stroke="#34A1FD" stroke-width="0.425698" stroke-miterlimit="10"/>
<path d="M38.8405 19.8121L38.8022 38.5475L57.5377 38.5858L57.576 19.8504L38.8405 19.8121Z" stroke="#34A1FD" stroke-width="0.425698" stroke-miterlimit="10"/>
<path d="M38.8789 1.07659L38.8406 19.8121L57.576 19.8504L57.6143 1.11488L38.8789 1.07659Z" stroke="#34A1FD" stroke-width="0.425698" stroke-miterlimit="10"/>
<path d="M57.3464 132.263L57.3081 150.999L76.0436 151.037L76.0819 132.301L57.3464 132.263Z" stroke="#34A1FD" stroke-width="0.425698" stroke-miterlimit="10"/>
<path d="M57.3845 113.528L57.3462 132.263L76.0817 132.301L76.12 113.566L57.3845 113.528Z" stroke="#34A1FD" stroke-width="0.425698" stroke-miterlimit="10"/>
<path d="M57.4228 94.7922L57.3845 113.528L76.12 113.566L76.1583 94.8305L57.4228 94.7922Z" stroke="#34A1FD" stroke-width="0.425698" stroke-miterlimit="10"/>
<path d="M57.4611 76.0568L57.4229 94.7922L76.1583 94.8305L76.1966 76.095L57.4611 76.0568Z" stroke="#34A1FD" stroke-width="0.425698" stroke-miterlimit="10"/>
<path d="M57.4995 57.3213L57.4612 76.0567L76.1966 76.095L76.2349 57.3596L57.4995 57.3213Z" stroke="#34A1FD" stroke-width="0.425698" stroke-miterlimit="10"/>
<path d="M57.5378 38.5858L57.4995 57.3213L76.235 57.3596L76.2733 38.6241L57.5378 38.5858Z" stroke="#34A1FD" stroke-width="0.425698" stroke-miterlimit="10"/>
<path d="M57.5759 19.8504L57.5376 38.5858L76.2731 38.6241L76.3114 19.8887L57.5759 19.8504Z" stroke="#34A1FD" stroke-width="0.425698" stroke-miterlimit="10"/>
<path d="M57.6142 1.11488L57.5759 19.8504L76.3114 19.8887L76.3497 1.15317L57.6142 1.11488Z" stroke="#34A1FD" stroke-width="0.425698" stroke-miterlimit="10"/>
<path d="M76.0818 132.301L76.0435 151.037L94.7789 151.075L94.8172 132.34L76.0818 132.301Z" stroke="#34A1FD" stroke-width="0.425698" stroke-miterlimit="10"/>
<path d="M76.1201 113.566L76.0818 132.301L94.8172 132.34L94.8555 113.604L76.1201 113.566Z" stroke="#34A1FD" stroke-width="0.425698" stroke-miterlimit="10"/>
<path d="M76.1584 94.8305L76.1201 113.566L94.8556 113.604L94.8939 94.8688L76.1584 94.8305Z" stroke="#34A1FD" stroke-width="0.425698" stroke-miterlimit="10"/>
<path d="M76.1967 76.095L76.1584 94.8305L94.8939 94.8688L94.9322 76.1333L76.1967 76.095Z" stroke="#34A1FD" stroke-width="0.425698" stroke-miterlimit="10"/>
<path d="M76.2351 57.3596L76.1968 76.095L94.9322 76.1333L94.9705 57.3979L76.2351 57.3596Z" stroke="#34A1FD" stroke-width="0.425698" stroke-miterlimit="10"/>
<path d="M76.2732 38.6241L76.2349 57.3596L94.9703 57.3979L95.0086 38.6624L76.2732 38.6241Z" stroke="#34A1FD" stroke-width="0.425698" stroke-miterlimit="10"/>
<path d="M76.3115 19.8887L76.2732 38.6241L95.0086 38.6624L95.0469 19.927L76.3115 19.8887Z" stroke="#34A1FD" stroke-width="0.425698" stroke-miterlimit="10"/>
<path d="M76.3498 1.15317L76.3115 19.8887L95.047 19.927L95.0853 1.19147L76.3498 1.15317Z" stroke="#34A1FD" stroke-width="0.425698" stroke-miterlimit="10"/>
<path d="M94.8171 132.34L94.7788 151.075L113.514 151.113L113.553 132.378L94.8171 132.34Z" stroke="#34A1FD" stroke-width="0.425698" stroke-miterlimit="10"/>
<path d="M94.8554 113.604L94.8171 132.34L113.553 132.378L113.591 113.643L94.8554 113.604Z" stroke="#34A1FD" stroke-width="0.425698" stroke-miterlimit="10"/>
<path d="M94.8938 94.8688L94.8555 113.604L113.591 113.643L113.629 94.9071L94.8938 94.8688Z" stroke="#34A1FD" stroke-width="0.425698" stroke-miterlimit="10"/>
<path d="M94.9321 76.1333L94.8938 94.8688L113.629 94.9071L113.668 76.1716L94.9321 76.1333Z" stroke="#34A1FD" stroke-width="0.425698" stroke-miterlimit="10"/>
<path d="M94.9702 57.3979L94.9319 76.1333L113.667 76.1716L113.706 57.4362L94.9702 57.3979Z" stroke="#34A1FD" stroke-width="0.425698" stroke-miterlimit="10"/>
<path d="M95.0085 38.6624L94.9702 57.3979L113.706 57.4362L113.744 38.7007L95.0085 38.6624Z" stroke="#34A1FD" stroke-width="0.425698" stroke-miterlimit="10"/>
<path d="M95.0468 19.927L95.0085 38.6624L113.744 38.7007L113.782 19.9653L95.0468 19.927Z" stroke="#34A1FD" stroke-width="0.425698" stroke-miterlimit="10"/>
<path d="M95.0852 1.19147L95.0469 19.927L113.782 19.9653L113.821 1.22976L95.0852 1.19147Z" stroke="#34A1FD" stroke-width="0.425698" stroke-miterlimit="10"/>
<path d="M113.553 132.378L113.514 151.113L132.25 151.152L132.288 132.416L113.553 132.378Z" stroke="#34A1FD" stroke-width="0.425698" stroke-miterlimit="10"/>
<path d="M113.591 113.643L113.553 132.378L132.288 132.416L132.326 113.681L113.591 113.643Z" stroke="#34A1FD" stroke-width="0.425698" stroke-miterlimit="10"/>
<path d="M113.629 94.9071L113.591 113.643L132.327 113.681L132.365 94.9454L113.629 94.9071Z" stroke="#34A1FD" stroke-width="0.425698" stroke-miterlimit="10"/>
<path d="M113.668 76.1716L113.629 94.9071L132.365 94.9454L132.403 76.2099L113.668 76.1716Z" stroke="#34A1FD" stroke-width="0.425698" stroke-miterlimit="10"/>
<path d="M113.706 57.4362L113.667 76.1716L132.403 76.2099L132.441 57.4745L113.706 57.4362Z" stroke="#34A1FD" stroke-width="0.425698" stroke-miterlimit="10"/>
<path d="M113.744 38.7007L113.706 57.4362L132.441 57.4745L132.48 38.739L113.744 38.7007Z" stroke="#34A1FD" stroke-width="0.425698" stroke-miterlimit="10"/>
<path d="M113.782 19.9653L113.744 38.7007L132.48 38.739L132.518 20.0036L113.782 19.9653Z" stroke="#34A1FD" stroke-width="0.425698" stroke-miterlimit="10"/>
<path d="M113.821 1.22976L113.782 19.9653L132.518 20.0036L132.556 1.26806L113.821 1.22976Z" stroke="#34A1FD" stroke-width="0.425698" stroke-miterlimit="10"/>
<path d="M132.288 132.416L132.25 151.152L150.985 151.19L151.024 132.455L132.288 132.416Z" stroke="#34A1FD" stroke-width="0.425698" stroke-miterlimit="10"/>
<path d="M132.326 113.681L132.288 132.416L151.024 132.455L151.062 113.719L132.326 113.681Z" stroke="#34A1FD" stroke-width="0.425698" stroke-miterlimit="10"/>
<path d="M132.365 94.9454L132.326 113.681L151.062 113.719L151.1 94.9837L132.365 94.9454Z" stroke="#34A1FD" stroke-width="0.425698" stroke-miterlimit="10"/>
<path d="M132.403 76.2099L132.365 94.9454L151.1 94.9837L151.139 76.2482L132.403 76.2099Z" stroke="#34A1FD" stroke-width="0.425698" stroke-miterlimit="10"/>
<path d="M132.441 57.4745L132.403 76.2099L151.139 76.2482L151.177 57.5128L132.441 57.4745Z" stroke="#34A1FD" stroke-width="0.425698" stroke-miterlimit="10"/>
<path d="M132.479 38.739L132.441 57.4745L151.177 57.5128L151.215 38.7773L132.479 38.739Z" stroke="#34A1FD" stroke-width="0.425698" stroke-miterlimit="10"/>
<path d="M132.518 20.0036L132.479 38.739L151.215 38.7773L151.253 20.0419L132.518 20.0036Z" stroke="#34A1FD" stroke-width="0.425698" stroke-miterlimit="10"/>
<path d="M132.556 1.26807L132.518 20.0036L151.253 20.0419L151.292 1.30636L132.556 1.26807Z" stroke="#34A1FD" stroke-width="0.425698" stroke-miterlimit="10"/>
</svg>
