<svg width="1440" height="488" viewBox="0 0 1440 488" fill="none" xmlns="http://www.w3.org/2000/svg">
<path d="M1019.5 122C1019.4 122 1019.3 121.961 1019.22 121.882L979.118 81.7756C978.961 81.6181 978.961 81.372 979.118 81.2244L1019.22 41.1181C1019.38 40.9606 1019.63 40.9606 1019.78 41.1181L1059.88 81.2244C1059.96 81.2933 1060 81.4016 1060 81.5C1060 81.5984 1059.96 81.7067 1059.88 81.7756L1019.78 121.882C1019.71 121.961 1019.6 122 1019.5 122ZM979.955 81.5L1019.5 121.045L1059.05 81.5L1019.5 41.9549L979.955 81.5Z" fill="#34A1FD"/>
<path d="M1019.5 108.434C1019.39 108.434 1019.29 108.395 1019.22 108.316L992.684 81.7756C992.526 81.6181 992.526 81.372 992.684 81.2243L1019.22 54.6837C1019.37 54.5361 1019.63 54.5361 1019.78 54.6837L1046.32 81.2243C1046.4 81.2933 1046.43 81.4015 1046.43 81.5C1046.43 81.5984 1046.4 81.7067 1046.32 81.7756L1019.78 108.316C1019.71 108.395 1019.61 108.434 1019.5 108.434ZM993.521 81.5L1019.5 107.479L1045.48 81.5L1019.5 55.5205L993.521 81.5Z" fill="#34A1FD"/>
<path d="M1019.5 94.8688C1019.39 94.8688 1019.29 94.8294 1019.22 94.7506L1006.26 81.7757C1006.1 81.6182 1006.1 81.3721 1006.26 81.2244L1019.22 68.2494C1019.37 68.1018 1019.63 68.1018 1019.78 68.2494L1032.75 81.2244C1032.91 81.3819 1032.91 81.628 1032.75 81.7757L1019.78 94.7506C1019.71 94.8294 1019.61 94.8688 1019.5 94.8688ZM1007.09 81.5L1019.5 93.9139L1031.91 81.5L1019.5 69.0862L1007.09 81.5Z" fill="#34A1FD"/>
<path d="M931.004 112.785C929.476 112.785 927.963 112.197 926.816 111.036C924.539 108.729 924.553 104.982 926.861 102.705C927.963 101.602 929.432 101 931.004 101C931.019 101 931.034 101 931.034 101C932.606 101.015 934.09 101.632 935.192 102.749C936.294 103.865 936.897 105.35 936.897 106.922C936.882 108.494 936.265 109.978 935.148 111.081C934.002 112.212 932.503 112.785 931.004 112.785ZM927.889 109.964C929.579 111.683 932.356 111.698 934.076 109.993C934.913 109.17 935.369 108.083 935.369 106.907C935.369 105.746 934.928 104.644 934.105 103.807C933.282 102.969 932.195 102.514 931.019 102.514C929.844 102.543 928.756 102.954 927.919 103.777C926.214 105.467 926.199 108.244 927.889 109.964Z" fill="#34A1FD"/>
<path d="M856.812 155.608C856.474 155.608 856.166 155.476 855.916 155.241L847.364 146.689C846.879 146.189 846.879 145.395 847.364 144.91L855.916 136.358C856.386 135.873 857.224 135.888 857.694 136.358L866.246 144.91C866.481 145.146 866.614 145.469 866.614 145.792C866.614 146.115 866.481 146.439 866.246 146.689L857.694 155.241C857.459 155.476 857.15 155.594 856.812 155.608ZM848.554 145.792L856.812 154.051L865.071 145.792L856.812 137.534L848.554 145.792Z" fill="#E9652B"/>
<path d="M993.176 187.322C992.722 187.322 992.308 187.144 991.972 186.829L980.488 175.345C979.837 174.674 979.837 173.609 980.488 172.957L991.972 161.474C992.604 160.842 993.728 160.842 994.36 161.474L1005.84 172.957C1006.49 173.609 1006.49 174.694 1005.84 175.345L994.36 186.829C994.044 187.144 993.63 187.322 993.176 187.322ZM982.087 174.161L993.176 185.25L1004.27 174.161L993.176 163.072L982.087 174.161Z" fill="white"/>
<mask id="mask0_245_11460" style="mask-type:alpha" maskUnits="userSpaceOnUse" x="1286" y="146" width="98" height="98">
<rect x="1286" y="146" width="98" height="98" fill="#C4C4C4"/>
</mask>
<g mask="url(#mask0_245_11460)">
<path d="M1201.84 218.885L1200.97 218.54C1201.1 218.208 1214.69 184.903 1246.18 155.07C1264.67 137.545 1285.64 124.604 1308.5 116.648C1337.05 106.69 1368.65 104.499 1402.39 110.134L1402.23 111.057C1368.64 105.45 1337.22 107.627 1308.81 117.528C1286.1 125.454 1265.25 138.309 1246.84 155.733C1215.5 185.421 1201.96 218.568 1201.84 218.885Z" fill="white"/>
<path d="M1208.15 225.212L1207.28 224.866C1207.41 224.535 1221 191.229 1252.49 161.397C1270.98 143.872 1291.95 130.93 1314.79 122.975C1343.34 113.017 1374.95 110.826 1408.69 116.461L1408.53 117.383C1374.94 111.777 1343.52 113.953 1315.11 123.854C1292.38 131.781 1271.55 144.636 1253.14 162.06C1221.81 191.734 1208.29 224.881 1208.15 225.212Z" fill="white"/>
<path d="M1214.47 231.525L1213.61 231.179C1213.74 230.847 1227.33 197.542 1258.82 167.709C1277.31 150.185 1298.28 137.243 1321.12 129.288C1349.69 119.329 1381.28 117.138 1415.03 122.773L1414.87 123.696C1381.28 118.09 1349.86 120.266 1321.45 130.167C1298.73 138.093 1277.89 150.948 1259.48 168.372C1228.14 198.06 1214.6 231.193 1214.47 231.525Z" fill="white"/>
<path d="M1220.79 237.851L1219.92 237.505C1220.05 237.174 1233.64 203.868 1265.13 174.036C1283.62 156.511 1304.59 143.57 1327.43 135.614C1356 125.656 1387.59 123.465 1421.33 129.1L1421.17 130.022C1387.59 124.416 1356.16 126.592 1327.75 136.493C1305.02 144.42 1284.18 157.275 1265.78 174.699C1234.45 204.373 1220.92 237.52 1220.79 237.851Z" fill="white"/>
<path d="M1227.11 244.164L1226.25 243.818C1226.38 243.486 1239.97 210.181 1271.46 180.348C1289.95 162.824 1310.92 149.882 1333.76 141.927C1362.32 131.968 1393.92 129.778 1427.67 135.413L1427.51 136.335C1393.92 130.729 1362.5 132.905 1334.09 142.806C1311.36 150.732 1290.53 163.588 1272.12 181.011C1240.78 210.7 1227.24 243.832 1227.11 244.164Z" fill="white"/>
<path d="M1233.43 250.49L1232.56 250.145C1232.69 249.813 1246.28 216.507 1277.77 186.675C1296.26 169.15 1317.23 156.209 1340.07 148.253C1368.64 138.295 1400.23 136.104 1433.97 141.739L1433.81 142.662C1400.23 137.055 1368.8 139.232 1340.39 149.132C1317.66 157.059 1296.82 169.914 1278.42 187.338C1247.09 217.012 1233.56 250.159 1233.43 250.49Z" fill="white"/>
<path d="M1239.75 256.803L1238.89 256.457C1239.02 256.125 1252.61 222.82 1284.1 192.987C1302.59 175.463 1323.56 162.521 1346.41 154.566C1374.96 144.607 1406.57 142.417 1440.31 148.052L1440.15 148.974C1406.55 143.368 1375.14 145.544 1346.73 155.445C1324.02 163.371 1303.16 176.227 1284.76 193.65C1253.42 223.339 1239.88 256.471 1239.75 256.803Z" fill="white"/>
<path d="M1246.07 263.115L1245.2 262.769C1245.33 262.438 1258.92 229.132 1290.41 199.3C1308.9 181.775 1329.87 168.833 1352.71 160.878C1381.26 150.92 1412.87 148.729 1446.6 154.364L1446.45 155.286C1412.87 149.68 1381.43 151.856 1353.03 161.757C1330.3 169.684 1309.46 182.539 1291.06 199.963C1259.73 229.651 1246.19 262.798 1246.07 263.115Z" fill="white"/>
<path d="M1252.38 269.442L1251.51 269.096C1251.64 268.765 1265.23 235.459 1296.72 205.627C1315.21 188.102 1336.18 175.16 1359.04 167.205C1387.59 157.247 1419.19 155.056 1452.93 160.691L1452.77 161.613C1419.18 156.007 1387.76 158.183 1359.36 168.084C1336.64 176.011 1315.79 188.866 1297.39 206.29C1266.04 235.964 1252.52 269.111 1252.38 269.442Z" fill="white"/>
<path d="M1258.7 275.754L1257.84 275.408C1257.97 275.077 1271.56 241.771 1303.05 211.939C1321.54 194.414 1342.51 181.472 1365.35 173.517C1393.9 163.559 1425.51 161.368 1459.24 167.003L1459.09 167.925C1425.51 162.319 1394.07 164.495 1365.67 174.396C1342.94 182.323 1322.1 195.178 1303.7 212.602C1272.37 242.29 1258.83 275.423 1258.7 275.754Z" fill="white"/>
<path d="M1265.02 282.081L1264.15 281.735C1264.28 281.404 1277.87 248.098 1309.36 218.266C1327.85 200.741 1348.82 187.799 1371.68 179.844C1400.24 169.885 1431.83 167.695 1465.57 173.33L1465.41 174.252C1431.82 168.646 1400.4 170.822 1371.99 180.723C1349.28 188.65 1328.43 201.505 1310.02 218.929C1278.68 248.602 1265.15 281.75 1265.02 282.081Z" fill="white"/>
<path d="M1271.34 288.393L1270.48 288.047C1270.61 287.716 1284.2 254.41 1315.69 224.578C1334.18 207.053 1355.15 194.112 1377.99 186.156C1406.55 176.198 1438.15 174.007 1471.88 179.642L1471.72 180.564C1438.13 174.958 1406.71 177.134 1378.31 187.035C1355.58 194.962 1334.74 207.817 1316.34 225.241C1285.01 254.929 1271.47 288.062 1271.34 288.393Z" fill="white"/>
<path d="M1277.66 294.72L1276.79 294.374C1276.92 294.043 1290.51 260.737 1322 230.905C1340.49 213.38 1361.46 200.438 1384.32 192.483C1412.87 182.525 1444.47 180.334 1478.21 185.969L1478.05 186.891C1444.46 181.285 1413.04 183.461 1384.63 193.362C1361.92 201.289 1341.07 214.144 1322.66 231.568C1291.32 261.242 1277.79 294.389 1277.66 294.72Z" fill="white"/>
<path d="M1283.98 301.032L1283.12 300.687C1283.25 300.355 1296.84 267.049 1328.33 237.217C1346.82 219.692 1367.79 206.751 1390.63 198.795C1419.18 188.837 1450.78 186.646 1484.52 192.281L1484.36 193.204C1450.78 187.597 1419.35 189.774 1390.95 199.674C1368.22 207.601 1347.38 220.456 1328.98 237.88C1297.63 267.568 1284.11 300.701 1283.98 301.032Z" fill="white"/>
<path d="M1290.29 307.345L1289.43 306.999C1289.56 306.667 1303.15 273.362 1334.64 243.529C1353.13 226.005 1374.1 213.063 1396.96 205.108C1425.51 195.149 1457.11 192.959 1490.85 198.594L1490.69 199.516C1457.1 193.91 1425.68 196.086 1397.27 205.987C1374.56 213.913 1353.71 226.768 1335.3 244.192C1303.96 273.881 1290.42 307.028 1290.29 307.345Z" fill="white"/>
<path d="M1296.61 313.672L1295.74 313.326C1295.87 312.994 1309.46 279.689 1340.95 249.856C1359.44 232.332 1380.41 219.39 1403.25 211.435C1431.82 201.476 1463.41 199.285 1497.15 204.92L1496.99 205.843C1463.41 200.237 1431.98 202.413 1403.57 212.314C1380.84 220.24 1360 233.095 1341.6 250.519C1310.27 280.193 1296.75 313.34 1296.61 313.672Z" fill="white"/>
<path d="M1302.93 319.984L1302.07 319.638C1302.2 319.307 1315.79 286.001 1347.28 256.169C1365.77 238.644 1386.74 225.702 1409.6 217.747C1438.15 207.788 1469.75 205.598 1503.49 211.233L1503.33 212.155C1469.74 206.549 1438.32 208.725 1409.91 218.626C1387.2 226.553 1366.35 239.408 1347.94 256.832C1316.6 286.52 1303.06 319.653 1302.93 319.984Z" fill="white"/>
<path d="M1309.25 326.311L1308.38 325.965C1308.51 325.633 1322.1 292.328 1353.59 262.495C1372.08 244.971 1393.05 232.029 1415.89 224.074C1444.46 214.115 1476.05 211.925 1509.79 217.56L1509.63 218.482C1476.05 212.876 1444.62 215.052 1416.21 224.953C1393.48 232.879 1372.64 245.735 1354.24 263.158C1322.91 292.832 1309.38 325.979 1309.25 326.311Z" fill="white"/>
<path d="M1315.57 332.623L1314.71 332.277C1314.84 331.946 1328.43 298.64 1359.92 268.808C1378.41 251.283 1399.38 238.341 1422.23 230.386C1450.78 220.427 1482.39 218.237 1516.13 223.872L1515.97 224.794C1482.37 219.188 1450.96 221.364 1422.55 231.265C1399.84 239.192 1378.98 252.047 1360.58 269.471C1329.24 299.159 1315.7 332.292 1315.57 332.623Z" fill="white"/>
<path d="M1321.89 338.95L1321.02 338.604C1321.15 338.273 1334.74 304.967 1366.23 275.135C1384.72 257.61 1405.69 244.668 1428.53 236.713C1457.08 226.754 1488.69 224.564 1522.43 230.199L1522.27 231.121C1488.69 225.515 1457.25 227.691 1428.85 237.592C1406.12 245.518 1385.28 258.374 1366.88 275.798C1335.55 305.471 1322.01 338.618 1321.89 338.95Z" fill="white"/>
<path d="M1328.21 345.262L1327.35 344.916C1327.48 344.585 1341.07 311.279 1372.56 281.447C1391.05 263.922 1412.02 250.98 1434.87 243.025C1463.42 233.067 1495.03 230.876 1528.77 236.511L1528.61 237.433C1495.01 231.827 1463.6 234.003 1435.19 243.904C1412.48 251.831 1391.62 264.686 1373.22 282.11C1341.87 311.798 1328.34 344.931 1328.21 345.262Z" fill="white"/>
</g>
<path d="M1261.79 60.7058C1260.99 60.4222 1260.45 60.216 1260.24 60.1644L1260.09 60.6027C1246.45 59.8035 1231.88 59.8035 1218.25 60.5769L1218.12 60.1644C1217.91 60.2417 1217.39 60.3964 1216.62 60.6542C1146.31 65.0112 1094 89.7352 1094 120.492C1094 151.249 1146.29 175.973 1216.62 180.33C1217.39 180.587 1217.91 180.768 1218.12 180.82L1218.25 180.407C1225 180.794 1231.94 181 1239 181C1246.17 181 1253.21 180.794 1260.06 180.433L1260.22 180.871C1260.43 180.794 1260.97 180.613 1261.77 180.33C1331.89 175.895 1384 151.223 1384 120.518C1384 89.8126 1331.95 65.1401 1261.79 60.7058ZM1190.61 117.244H1145.05C1146.54 110.076 1152.76 103.012 1161.19 96.4383H1195.45C1192.88 102.858 1191.04 109.896 1190.61 117.244ZM1195.43 144.597H1161.14C1152.73 138.023 1146.52 130.933 1145.05 123.792H1190.61C1191.02 131.14 1192.85 138.152 1195.43 144.597ZM1170.47 89.8899C1183.88 81.3048 1199.91 74.0604 1211.7 69.4971C1207.57 74.5502 1202.52 81.5884 1198.37 89.8899H1170.47ZM1194.91 69.4713C1183.54 74.6018 1170.01 81.5884 1159 89.8899H1125.84C1142.73 80.5314 1166.96 73.2612 1194.91 69.4713ZM1115.66 96.4125H1151.16C1144.35 102.832 1139.51 109.844 1138.37 117.218H1100.83C1102.04 109.844 1107.28 102.78 1115.66 96.4125ZM1100.83 123.766H1138.37C1139.51 131.14 1144.35 138.152 1151.16 144.571H1115.66C1107.28 138.229 1102.04 131.165 1100.83 123.766ZM1125.84 151.12H1159C1170.01 159.421 1183.57 166.408 1194.91 171.538C1166.96 167.749 1142.75 160.478 1125.84 151.12ZM1170.44 151.12H1198.34C1202.49 159.421 1207.55 166.46 1211.7 171.513C1199.91 166.949 1183.88 159.731 1170.44 151.12ZM1235.75 174.477C1231.37 174.426 1227.04 174.297 1222.76 174.116C1219.74 170.997 1212.01 162.515 1205.82 151.171H1235.78V174.477H1235.75ZM1235.75 144.597H1202.54C1199.73 138.178 1197.62 131.14 1197.13 123.792H1235.75V144.597ZM1235.75 117.244H1197.13C1197.62 109.896 1199.73 102.858 1202.57 96.4383H1235.75V117.244ZM1235.75 89.8899H1205.79C1212.01 78.5205 1219.74 70.0385 1222.73 66.9448C1227.01 66.7385 1231.34 66.6096 1235.73 66.5839V89.8899H1235.75ZM1377.22 117.244H1339.99C1338.86 109.87 1334.01 102.858 1327.2 96.4383H1362.39C1370.77 102.806 1376.01 109.844 1377.22 117.244ZM1287.47 117.244C1287.03 109.896 1285.18 102.858 1282.62 96.4383H1317.22C1325.65 103.012 1331.84 110.102 1333.34 117.244H1287.47ZM1333.36 123.766C1331.87 130.907 1325.65 137.997 1317.25 144.571H1282.65C1285.2 138.126 1287.06 131.114 1287.5 123.766H1333.36ZM1352.21 89.8899H1319.39C1308.41 81.6142 1294.95 74.6533 1283.6 69.5487C1311.37 73.3385 1335.43 80.583 1352.21 89.8899ZM1307.92 89.8899H1279.68C1275.51 81.4595 1270.38 74.3697 1266.2 69.3167C1278.03 73.8799 1294.3 81.1759 1307.92 89.8899ZM1242.3 66.5581C1246.68 66.6096 1251.01 66.7386 1255.29 66.919C1258.31 70.0127 1266.02 78.5205 1272.23 89.8641H1242.27V66.5581H1242.3ZM1242.3 96.4125H1275.48C1278.32 102.832 1280.41 109.87 1280.92 117.218H1242.3V96.4125ZM1280.92 123.766C1280.43 131.088 1278.32 138.152 1275.48 144.571H1242.3V123.766H1280.92ZM1255.29 174.065C1251.01 174.271 1246.68 174.4 1242.3 174.426V151.12H1272.26C1266.05 162.463 1258.31 170.971 1255.29 174.065ZM1279.68 151.12H1307.92C1294.3 159.808 1278.03 167.104 1266.2 171.693C1270.38 166.64 1275.51 159.55 1279.68 151.12ZM1283.6 171.487C1294.95 166.356 1308.43 159.37 1319.39 151.146H1352.21C1335.43 160.427 1311.37 167.671 1283.6 171.487ZM1362.39 144.597H1327.2C1334.01 138.178 1338.86 131.165 1339.99 123.792H1377.22C1376.01 131.165 1370.77 138.229 1362.39 144.597Z" fill="#F86623"/>
</svg>
