<svg width="375" height="340" viewBox="0 0 375 340" fill="none" xmlns="http://www.w3.org/2000/svg">
<path d="M308.618 212.14C308.518 212.14 308.418 212.1 308.338 212.02L267.598 171.28C267.438 171.12 267.438 170.87 267.598 170.72L308.338 129.98C308.498 129.82 308.748 129.82 308.898 129.98L349.638 170.72C349.718 170.79 349.758 170.9 349.758 171C349.758 171.1 349.718 171.21 349.638 171.28L308.898 212.02C308.828 212.1 308.718 212.14 308.618 212.14ZM268.448 171L308.618 211.17L348.798 171L308.618 130.83L268.448 171Z" fill="#34A1FD"/>
<path d="M308.617 198.36C308.507 198.36 308.407 198.32 308.337 198.24L281.377 171.28C281.217 171.12 281.217 170.87 281.377 170.72L308.337 143.76C308.487 143.61 308.747 143.61 308.897 143.76L335.857 170.72C335.937 170.79 335.977 170.9 335.977 171C335.977 171.1 335.937 171.21 335.857 171.28L308.897 198.24C308.827 198.32 308.727 198.36 308.617 198.36ZM282.227 171L308.617 197.39L335.007 171L308.617 144.61L282.227 171Z" fill="#34A1FD"/>
<path d="M308.617 184.58C308.507 184.58 308.407 184.54 308.337 184.46L295.167 171.28C295.007 171.12 295.007 170.87 295.167 170.72L308.337 157.54C308.487 157.39 308.747 157.39 308.897 157.54L322.077 170.72C322.237 170.88 322.237 171.13 322.077 171.28L308.897 184.46C308.827 184.54 308.727 184.58 308.617 184.58ZM296.007 171L308.617 183.61L321.227 171L308.617 158.39L296.007 171Z" fill="#34A1FD"/>
<path d="M199.917 42.5902C199.607 42.4802 199.397 42.4002 199.317 42.3802L199.257 42.5502C193.967 42.2402 188.317 42.2402 183.027 42.5402L182.977 42.3802C182.897 42.4102 182.697 42.4702 182.397 42.5702C155.127 44.2602 134.837 53.8502 134.837 65.7802C134.837 77.7102 155.117 87.3002 182.397 88.9902C182.697 89.0902 182.897 89.1602 182.977 89.1802L183.027 89.0202C185.647 89.1702 188.337 89.2502 191.077 89.2502C193.857 89.2502 196.587 89.1702 199.247 89.0302L199.307 89.2002C199.387 89.1702 199.597 89.1002 199.907 88.9902C227.107 87.2702 247.317 77.7002 247.317 65.7902C247.317 53.8802 227.127 44.3102 199.917 42.5902ZM172.307 64.5202H154.637C155.217 61.7402 157.627 59.0002 160.897 56.4502H174.187C173.187 58.9402 172.477 61.6702 172.307 64.5202ZM174.177 75.1302H160.877C157.617 72.5802 155.207 69.8302 154.637 67.0602H172.307C172.467 69.9102 173.177 72.6302 174.177 75.1302ZM164.497 53.9102C169.697 50.5802 175.917 47.7702 180.487 46.0002C178.887 47.9602 176.927 50.6902 175.317 53.9102H164.497ZM173.977 45.9902C169.567 47.9802 164.317 50.6902 160.047 53.9102H147.187C153.737 50.2802 163.137 47.4602 173.977 45.9902ZM143.237 56.4402H157.007C154.367 58.9302 152.487 61.6502 152.047 64.5102H137.487C137.957 61.6502 139.987 58.9102 143.237 56.4402ZM137.487 67.0502H152.047C152.487 69.9102 154.367 72.6302 157.007 75.1202H143.237C139.987 72.6602 137.957 69.9202 137.487 67.0502ZM147.187 77.6602H160.047C164.317 80.8802 169.577 83.5902 173.977 85.5802C163.137 84.1102 153.747 81.2902 147.187 77.6602ZM164.487 77.6602H175.307C176.917 80.8802 178.877 83.6102 180.487 85.5702C175.917 83.8002 169.697 81.0002 164.487 77.6602ZM189.817 86.7202C188.117 86.7002 186.437 86.6502 184.777 86.5802C183.607 85.3702 180.607 82.0802 178.207 77.6802H189.827V86.7202H189.817ZM189.817 75.1302H176.937C175.847 72.6402 175.027 69.9102 174.837 67.0602H189.817V75.1302ZM189.817 64.5202H174.837C175.027 61.6702 175.847 58.9402 176.947 56.4502H189.817V64.5202ZM189.817 53.9102H178.197C180.607 49.5002 183.607 46.2102 184.767 45.0102C186.427 44.9302 188.107 44.8802 189.807 44.8702V53.9102H189.817ZM244.687 64.5202H230.247C229.807 61.6602 227.927 58.9402 225.287 56.4502H238.937C242.187 58.9202 244.217 61.6502 244.687 64.5202ZM209.877 64.5202C209.707 61.6702 208.987 58.9402 207.997 56.4502H221.417C224.687 59.0002 227.087 61.7502 227.667 64.5202H209.877ZM227.677 67.0502C227.097 69.8202 224.687 72.5702 221.427 75.1202H208.007C208.997 72.6202 209.717 69.9002 209.887 67.0502H227.677ZM234.987 53.9102H222.257C217.997 50.7002 212.777 48.0002 208.377 46.0202C219.147 47.4902 228.477 50.3002 234.987 53.9102ZM217.807 53.9102H206.857C205.237 50.6402 203.247 47.8902 201.627 45.9302C206.217 47.7002 212.527 50.5302 217.807 53.9102ZM192.357 44.8602C194.057 44.8802 195.737 44.9302 197.397 45.0002C198.567 46.2002 201.557 49.5002 203.967 53.9002H192.347V44.8602H192.357ZM192.357 56.4402H205.227C206.327 58.9302 207.137 61.6602 207.337 64.5102H192.357V56.4402ZM207.337 67.0502C207.147 69.8902 206.327 72.6302 205.227 75.1202H192.357V67.0502H207.337ZM197.397 86.5602C195.737 86.6402 194.057 86.6902 192.357 86.7002V77.6602H203.977C201.567 82.0602 198.567 85.3602 197.397 86.5602ZM206.857 77.6602H217.807C212.527 81.0302 206.217 83.8602 201.627 85.6402C203.247 83.6802 205.237 80.9302 206.857 77.6602ZM208.377 85.5602C212.777 83.5702 218.007 80.8602 222.257 77.6702H234.987C228.477 81.2702 219.147 84.0802 208.377 85.5602ZM238.937 75.1302H225.287C227.927 72.6402 229.807 69.9202 230.247 67.0602H244.687C244.217 69.9202 242.187 72.6602 238.937 75.1302Z" fill="#F86623"/>
<path d="M63.5978 47.06C62.5578 47.06 61.5278 46.66 60.7478 45.87C59.1978 44.3 59.2078 41.75 60.7778 40.2C61.5278 39.45 62.5278 39.04 63.5978 39.04C63.6078 39.04 63.6178 39.04 63.6178 39.04C64.6878 39.05 65.6978 39.47 66.4478 40.23C67.1978 40.99 67.6078 42 67.6078 43.07C67.5978 44.14 67.1778 45.15 66.4178 45.9C65.6378 46.67 64.6178 47.06 63.5978 47.06ZM61.4778 45.14C62.6278 46.31 64.5178 46.32 65.6878 45.16C66.2578 44.6 66.5678 43.86 66.5678 43.06C66.5678 42.27 66.2678 41.52 65.7078 40.95C65.1478 40.38 64.4078 40.07 63.6078 40.07C62.8078 40.09 62.0678 40.37 61.4978 40.93C60.3378 42.08 60.3278 43.97 61.4778 45.14Z" fill="#34A1FD"/>
<path d="M24.6775 113.87C24.4475 113.87 24.2375 113.78 24.0675 113.62L18.2475 107.8C17.9175 107.46 17.9175 106.92 18.2475 106.59L24.0675 100.77C24.3875 100.44 24.9575 100.45 25.2775 100.77L31.0975 106.59C31.2575 106.75 31.3475 106.97 31.3475 107.19C31.3475 107.41 31.2575 107.63 31.0975 107.8L25.2775 113.62C25.1175 113.78 24.9075 113.86 24.6775 113.87ZM19.0575 107.19L24.6775 112.81L30.2975 107.19L24.6775 101.57L19.0575 107.19Z" fill="#E9652B"/>
<path d="M110.878 95.9298C110.648 95.9298 110.438 95.8398 110.268 95.6798L104.448 89.8598C104.118 89.5198 104.118 88.9798 104.448 88.6498L110.268 82.8298C110.588 82.5098 111.158 82.5098 111.478 82.8298L117.298 88.6498C117.628 88.9798 117.628 89.5298 117.298 89.8598L111.478 95.6798C111.318 95.8398 111.108 95.9298 110.878 95.9298ZM105.258 89.2598L110.878 94.8798L116.498 89.2598L110.878 83.6398L105.258 89.2598Z" fill="white"/>
<mask id="mask0_245_11459" style="mask-type:alpha" maskUnits="userSpaceOnUse" x="273" y="35" width="71" height="71">
<rect x="273" y="35" width="71" height="71" fill="#C4C4C4"/>
</mask>
<g mask="url(#mask0_245_11459)">
<path d="M212.023 87.8047L211.397 87.5541C211.491 87.314 221.337 63.1844 244.151 41.5712C257.547 28.8747 272.739 19.4985 289.298 13.735C309.982 6.52013 332.88 4.93307 357.323 9.01557L357.208 9.6838C332.87 5.62218 310.108 7.19881 289.528 14.3719C273.073 20.1145 257.964 29.4281 244.631 42.0514C221.922 63.5603 212.117 87.575 212.023 87.8047Z" fill="white"/>
<path d="M216.597 92.3884L215.97 92.1378C216.064 91.8977 225.91 67.7681 248.724 46.1549C262.12 33.4584 277.312 24.0823 293.861 18.3187C314.545 11.1039 337.443 9.51681 361.886 13.5993L361.771 14.2675C337.433 10.2059 314.671 11.7825 294.091 18.9556C277.625 24.6983 262.527 34.0118 249.194 46.6352C226.495 68.1336 216.701 92.1483 216.597 92.3884Z" fill="white"/>
<path d="M221.18 96.9617L220.554 96.7111C220.648 96.4709 230.494 72.3414 253.308 50.7281C266.704 38.0317 281.895 28.6555 298.445 22.892C319.139 15.6771 342.026 14.09 366.48 18.1725L366.365 18.8408C342.026 14.7792 319.264 16.3558 298.685 23.5289C282.219 29.2715 267.121 38.585 253.788 51.2084C231.078 72.7172 221.274 96.7215 221.18 96.9617Z" fill="white"/>
<path d="M225.754 101.545L225.127 101.295C225.221 101.055 235.067 76.9251 257.881 55.3119C271.277 42.6154 286.469 33.2392 303.018 27.4757C323.713 20.2609 346.6 18.6738 371.042 22.7563L370.928 23.4245C346.6 19.3629 323.827 20.9395 303.248 28.1126C286.782 33.8553 271.684 43.1688 258.351 55.7922C235.652 77.2905 225.847 101.305 225.754 101.545Z" fill="white"/>
<path d="M230.337 106.118L229.711 105.868C229.805 105.628 239.651 81.4981 262.465 59.8849C275.861 47.1884 291.053 37.8122 307.602 32.0487C328.296 24.8338 351.184 23.2468 375.637 27.3293L375.522 27.9975C351.183 23.9359 328.422 25.5125 307.842 32.6856C291.376 38.4282 276.278 47.7418 262.945 60.3652C240.235 81.874 230.431 105.878 230.337 106.118Z" fill="white"/>
<path d="M234.911 110.702L234.284 110.452C234.378 110.211 244.224 86.0819 267.038 64.4686C280.434 51.7721 295.626 42.396 312.175 36.6324C332.87 29.4176 355.757 27.8305 380.2 31.913L380.085 32.5813C355.757 28.5196 332.985 30.0963 312.405 37.2693C295.939 43.012 280.841 52.3255 267.508 64.9489C244.809 86.4473 235.005 110.462 234.911 110.702Z" fill="white"/>
<path d="M239.494 115.275L238.868 115.025C238.962 114.785 248.808 90.6551 271.622 69.0419C285.018 56.3454 300.209 46.9692 316.769 41.2057C337.453 33.9908 360.351 32.4038 384.794 36.4863L384.679 37.1545C360.34 33.0929 337.578 34.6695 316.999 41.8426C300.544 47.5852 285.435 56.8988 272.102 69.5221C249.392 91.031 239.588 115.035 239.494 115.275Z" fill="white"/>
<path d="M244.067 119.849L243.441 119.598C243.535 119.358 253.381 95.2283 276.195 73.6151C289.591 60.9186 304.783 51.5425 321.332 45.7789C342.016 38.5641 364.914 36.977 389.356 41.0595L389.241 41.7277C364.913 37.6661 342.141 39.2428 321.562 46.4158C305.096 52.1585 289.998 61.472 276.665 74.0954C253.966 95.6042 244.161 119.619 244.067 119.849Z" fill="white"/>
<path d="M248.64 124.432L248.014 124.182C248.108 123.942 257.954 99.8121 280.768 78.1988C294.164 65.5024 309.356 56.1262 325.916 50.3627C346.6 43.1478 369.497 41.5608 393.94 45.6433L393.825 46.3115C369.487 42.2499 346.725 43.8265 326.145 50.9996C309.69 56.7422 294.582 66.0557 281.248 78.6791C258.539 100.178 248.745 124.192 248.64 124.432Z" fill="white"/>
<path d="M253.224 129.006L252.598 128.755C252.692 128.515 262.538 104.385 285.351 82.7721C298.748 70.0756 313.94 60.6994 330.489 54.9359C351.173 47.721 374.07 46.134 398.513 50.2165L398.398 50.8847C374.07 46.8231 351.298 48.3997 330.719 55.5728C314.253 61.3155 299.155 70.629 285.822 83.2524C263.122 104.761 253.318 128.765 253.224 129.006Z" fill="white"/>
<path d="M257.797 133.589L257.171 133.339C257.265 133.098 267.111 108.969 289.925 87.3556C303.321 74.6591 318.513 65.2829 335.073 59.5194C355.767 52.3045 378.654 50.7175 403.097 54.8L402.982 55.4682C378.644 51.4066 355.882 52.9832 335.302 60.1563C318.847 65.899 303.739 75.2125 290.405 87.8359C267.696 109.334 257.891 133.349 257.797 133.589Z" fill="white"/>
<path d="M262.381 138.162L261.755 137.912C261.849 137.672 271.695 113.542 294.509 91.9288C307.905 79.2324 323.097 69.8562 339.646 64.0926C360.34 56.8778 383.228 55.2907 407.67 59.3732L407.555 60.0415C383.217 55.9798 360.455 57.5565 339.876 64.7296C323.41 70.4722 308.312 79.7857 294.979 92.4091C272.28 113.918 262.475 137.922 262.381 138.162Z" fill="white"/>
<path d="M266.955 142.746L266.328 142.496C266.422 142.255 276.268 118.126 299.082 96.5126C312.478 83.8161 327.67 74.4399 344.23 68.6764C364.914 61.4615 387.811 59.8745 412.254 63.957L412.139 64.6252C387.801 60.5636 365.039 62.1402 344.46 69.3133C328.004 75.0559 312.896 84.3695 299.562 96.9929C276.853 118.491 267.049 142.506 266.955 142.746Z" fill="white"/>
<path d="M271.538 147.319L270.912 147.069C271.006 146.829 280.851 122.699 303.665 101.086C317.061 88.3893 332.253 79.0132 348.803 73.2496C369.487 66.0348 392.384 64.4477 416.827 68.5302L416.712 69.1984C392.384 65.1368 369.612 66.7135 349.033 73.8865C332.567 79.6292 317.469 88.9427 304.136 101.566C281.426 123.075 271.632 147.079 271.538 147.319Z" fill="white"/>
<path d="M276.111 151.893L275.485 151.642C275.579 151.402 285.425 127.272 308.239 105.659C321.635 92.9626 336.827 83.5864 353.387 77.8229C374.071 70.608 396.968 69.021 421.411 73.1035L421.296 73.7717C396.958 69.7101 374.196 71.2867 353.616 78.4598C337.161 84.2024 322.053 93.5159 308.719 106.139C286.01 127.648 276.205 151.663 276.111 151.893Z" fill="white"/>
<path d="M280.684 156.476L280.058 156.226C280.152 155.986 289.998 131.856 312.812 110.243C326.208 97.5463 341.4 88.1701 357.949 82.4066C378.644 75.1918 401.531 73.6047 425.974 77.6872L425.859 78.3554C401.531 74.2938 378.758 75.8704 358.179 83.0435C341.713 88.7862 326.615 98.0997 313.282 110.723C290.583 132.221 280.789 156.236 280.684 156.476Z" fill="white"/>
<path d="M285.268 161.05L284.642 160.799C284.736 160.559 294.582 136.429 317.396 114.816C330.792 102.12 345.984 92.7434 362.543 86.9798C383.227 79.765 406.125 78.1779 430.567 82.2604L430.453 82.9287C406.114 78.8671 383.353 80.4437 362.773 87.6168C346.318 93.3594 331.209 102.673 317.876 115.296C295.166 136.805 285.362 160.809 285.268 161.05Z" fill="white"/>
<path d="M289.842 165.633L289.215 165.382C289.309 165.142 299.155 141.013 321.969 119.4C335.365 106.703 350.557 97.3269 367.106 91.5633C387.801 84.3485 410.688 82.7614 435.131 86.8439L435.016 87.5122C410.688 83.4506 387.916 85.0272 367.336 92.2003C350.87 97.9429 335.772 107.256 322.439 119.88C299.74 141.378 289.936 165.393 289.842 165.633Z" fill="white"/>
<path d="M294.425 170.206L293.799 169.956C293.893 169.716 303.739 145.586 326.553 123.973C339.949 111.276 355.141 101.9 371.701 96.1366C392.385 88.9217 415.282 87.3347 439.725 91.4172L439.61 92.0854C415.272 88.0238 392.51 89.6004 371.93 96.7735C355.475 102.516 340.367 111.83 327.033 124.453C304.324 145.962 294.519 169.966 294.425 170.206Z" fill="white"/>
<path d="M298.998 174.79L298.372 174.539C298.466 174.299 308.312 150.17 331.126 128.556C344.522 115.86 359.714 106.484 376.263 100.72C396.947 93.5055 419.845 91.9184 444.288 96.0009L444.173 96.6691C419.845 92.6075 397.072 94.1842 376.493 101.357C360.027 107.1 344.929 116.413 331.596 129.037C308.897 150.535 299.092 174.55 298.998 174.79Z" fill="white"/>
<path d="M303.582 179.363L302.956 179.113C303.05 178.873 312.896 154.743 335.71 133.13C349.106 120.433 364.298 111.057 380.857 105.294C401.541 98.0787 424.439 96.4917 448.881 100.574L448.766 101.242C424.428 97.1808 401.667 98.7574 381.087 105.93C364.632 111.673 349.523 120.987 336.19 133.61C313.48 155.119 303.676 179.123 303.582 179.363Z" fill="white"/>
</g>
</svg>
