<svg width="1440" height="488" viewBox="0 0 1440 488" fill="none" xmlns="http://www.w3.org/2000/svg">
<path d="M1174.82 140L1163.58 128.739L1175.32 117H1183.27L1171.53 128.739L1182.8 140H1174.82Z" fill="#F86623"/>
<path d="M1155.35 140L1144.09 128.739L1155.83 117H1163.8L1152.06 128.739L1163.33 140H1155.35Z" fill="#F86623"/>
<path d="M1135.87 140L1124.62 128.739L1136.36 117H1144.32L1132.58 128.739L1143.84 140H1135.87Z" fill="#F86623"/>
<path d="M1116.4 140L1105.14 128.739L1116.88 117H1124.85L1113.11 128.739L1124.35 140H1116.4Z" fill="#F86623"/>
<path d="M1096.69 140L1085.43 128.739L1097.17 117H1105.14L1093.4 128.739L1104.66 140H1096.69Z" fill="#F86623"/>
<path d="M1077.22 140L1065.96 128.739L1077.7 117H1085.67L1073.91 128.739L1085.17 140H1077.22Z" fill="#F86623"/>
<path d="M1057.73 140L1046.47 128.739L1058.21 117H1066.18L1054.44 128.739L1065.7 140H1057.73Z" fill="#F86623"/>
<path d="M1038.26 140L1027 128.739L1038.74 117H1046.69L1034.96 128.739L1046.22 140H1038.26Z" fill="#F86623"/>
<path d="M1061.15 293H1052.62V332.742H1061.15V293Z" fill="#F86623"/>
<path d="M1076.74 317.137V308.599H1037V317.137H1076.74Z" fill="#F86623"/>
<path d="M1368.62 150.195C1367.93 150.195 1367.23 149.94 1366.71 149.415L1335.8 118.504C1335.29 117.995 1335 117.326 1335 116.593C1335 115.861 1335.29 115.192 1335.8 114.683L1366.71 83.7883C1367.76 82.7372 1369.46 82.7372 1370.51 83.7883L1401.42 114.698C1401.93 115.208 1402.22 115.877 1402.22 116.609C1402.22 117.342 1401.93 118.011 1401.42 118.52L1370.51 149.431C1369.99 149.94 1369.3 150.195 1368.62 150.195ZM1368.62 84.6004C1368.33 84.6004 1368.04 84.7119 1367.84 84.9189L1336.93 115.829C1336.72 116.036 1336.61 116.307 1336.61 116.609C1336.61 116.912 1336.72 117.183 1336.93 117.39L1367.84 148.3C1368.25 148.714 1368.97 148.714 1369.4 148.3L1400.31 117.39C1400.51 117.183 1400.63 116.912 1400.63 116.609C1400.63 116.307 1400.51 116.036 1400.31 115.829L1369.4 84.9189C1369.17 84.7119 1368.9 84.6004 1368.62 84.6004Z" fill="#34A1FD"/>
<path d="M1368.04 130.305L1354.91 117.167C1354.59 116.848 1354.59 116.338 1354.91 116.02L1368.04 102.882C1368.36 102.563 1368.87 102.563 1369.19 102.882L1382.33 116.02C1382.65 116.338 1382.65 116.848 1382.33 117.167L1369.19 130.305C1368.87 130.623 1368.36 130.623 1368.04 130.305Z" fill="#34A1FD"/>
<path d="M1030.7 83.3047C1026.76 83.3047 1022.83 81.8453 1019.31 78.9264C1012.98 73.6563 1005.44 73.6563 999.117 78.9264C992.083 84.7844 983.367 84.7641 976.333 78.9264C970.009 73.6765 962.469 73.6563 956.145 78.9264C949.131 84.7641 940.395 84.7641 933.361 78.9264C932.936 78.5616 932.875 77.9332 933.24 77.5075C933.604 77.0818 934.233 77.021 934.679 77.3859C941.003 82.6358 948.544 82.6358 954.868 77.3859C961.901 71.5482 970.617 71.5279 977.651 77.3859C983.975 82.6358 991.516 82.6358 997.84 77.3859C1004.87 71.5482 1013.59 71.5482 1020.62 77.3859C1026.95 82.6358 1034.49 82.6561 1040.81 77.3859C1041.24 77.021 1041.89 77.0818 1042.25 77.5075C1042.62 77.9332 1042.55 78.5818 1042.11 78.9264C1038.58 81.825 1034.65 83.3047 1030.7 83.3047Z" fill="#34A1FD"/>
<path d="M884.118 125.256C882.01 125.256 879.922 124.446 878.341 122.844C875.199 119.662 875.22 114.493 878.402 111.351C879.922 109.831 881.949 109 884.118 109C884.139 109 884.159 109 884.159 109C886.328 109.02 888.375 109.872 889.895 111.412C891.416 112.953 892.247 115 892.247 117.169C892.226 119.338 891.375 121.385 889.835 122.905C888.254 124.466 886.186 125.256 884.118 125.256ZM879.821 121.365C882.152 123.736 885.983 123.756 888.355 121.405C889.51 120.27 890.138 118.77 890.138 117.148C890.138 115.547 889.531 114.027 888.396 112.872C887.26 111.716 885.76 111.088 884.139 111.088C882.517 111.128 881.017 111.696 879.861 112.831C877.51 115.162 877.49 118.993 879.821 121.365Z" fill="white"/>
<path d="M946.536 201.048C946.069 201.048 945.643 200.865 945.299 200.541L933.502 188.744C932.833 188.055 932.833 186.96 933.502 186.291L945.299 174.494C945.948 173.825 947.103 173.845 947.751 174.494L959.549 186.291C959.873 186.616 960.055 187.061 960.055 187.507C960.055 187.953 959.873 188.399 959.549 188.744L947.751 200.541C947.427 200.865 947.002 201.027 946.536 201.048ZM935.144 187.507L946.536 198.899L957.927 187.507L946.536 176.116L935.144 187.507Z" fill="#F86623"/>
<path d="M1181.17 315.62C1181.17 317.568 1179.59 319.147 1177.64 319.147C1175.7 319.147 1174.12 317.568 1174.12 315.62C1174.12 313.672 1175.7 312.093 1177.64 312.093C1179.61 312.093 1181.17 313.672 1181.17 315.62Z" fill="white"/>
<path d="M1203.72 315.62C1203.72 317.568 1202.14 319.147 1200.19 319.147C1198.24 319.147 1196.66 317.568 1196.66 315.62C1196.66 313.672 1198.24 312.093 1200.19 312.093C1202.14 312.093 1203.72 313.672 1203.72 315.62Z" fill="white"/>
<path d="M1226.27 315.62C1226.27 317.568 1224.69 319.147 1222.74 319.147C1220.79 319.147 1219.21 317.568 1219.21 315.62C1219.21 313.672 1220.79 312.093 1222.74 312.093C1224.69 312.093 1226.27 313.672 1226.27 315.62Z" fill="white"/>
<path d="M1248.8 315.62C1248.8 317.568 1247.22 319.147 1245.27 319.147C1243.32 319.147 1241.74 317.568 1241.74 315.62C1241.74 313.672 1243.32 312.093 1245.27 312.093C1247.22 312.093 1248.8 313.672 1248.8 315.62Z" fill="white"/>
<path d="M1271.35 315.62C1271.35 317.568 1269.77 319.147 1267.82 319.147C1265.87 319.147 1264.29 317.568 1264.29 315.62C1264.29 313.672 1265.87 312.093 1267.82 312.093C1269.77 312.093 1271.35 313.672 1271.35 315.62Z" fill="white"/>
<path d="M1293.88 315.62C1293.88 317.568 1292.3 319.147 1290.35 319.147C1288.4 319.147 1286.82 317.568 1286.82 315.62C1286.82 313.672 1288.4 312.093 1290.35 312.093C1292.31 312.093 1293.88 313.672 1293.88 315.62Z" fill="white"/>
<path d="M1316.42 315.62C1316.42 317.568 1314.84 319.147 1312.9 319.147C1310.95 319.147 1309.37 317.568 1309.37 315.62C1309.37 313.672 1310.95 312.093 1312.9 312.093C1314.84 312.093 1316.42 313.672 1316.42 315.62Z" fill="white"/>
<path d="M1338.97 315.62C1338.97 317.568 1337.39 319.147 1335.45 319.147C1333.5 319.147 1331.92 317.568 1331.92 315.62C1331.92 313.672 1333.5 312.093 1335.45 312.093C1337.39 312.093 1338.97 313.672 1338.97 315.62Z" fill="white"/>
<path d="M1181.17 294.335C1181.17 296.282 1179.59 297.862 1177.64 297.862C1175.7 297.862 1174.12 296.282 1174.12 294.335C1174.12 292.387 1175.7 290.808 1177.64 290.808C1179.61 290.808 1181.17 292.387 1181.17 294.335Z" fill="white"/>
<path d="M1203.72 294.335C1203.72 296.282 1202.14 297.862 1200.19 297.862C1198.24 297.862 1196.66 296.282 1196.66 294.335C1196.66 292.387 1198.24 290.808 1200.19 290.808C1202.14 290.808 1203.72 292.387 1203.72 294.335Z" fill="white"/>
<path d="M1226.27 294.335C1226.27 296.282 1224.69 297.862 1222.74 297.862C1220.79 297.862 1219.21 296.282 1219.21 294.335C1219.21 292.387 1220.79 290.808 1222.74 290.808C1224.69 290.808 1226.27 292.387 1226.27 294.335Z" fill="white"/>
<path d="M1248.8 294.335C1248.8 296.282 1247.22 297.862 1245.27 297.862C1243.32 297.862 1241.74 296.282 1241.74 294.335C1241.74 292.387 1243.32 290.808 1245.27 290.808C1247.22 290.808 1248.8 292.387 1248.8 294.335Z" fill="white"/>
<path d="M1271.35 294.335C1271.35 296.282 1269.77 297.862 1267.82 297.862C1265.87 297.862 1264.29 296.282 1264.29 294.335C1264.29 292.387 1265.87 290.808 1267.82 290.808C1269.77 290.808 1271.35 292.387 1271.35 294.335Z" fill="white"/>
<path d="M1293.88 294.335C1293.88 296.282 1292.3 297.862 1290.35 297.862C1288.4 297.862 1286.82 296.282 1286.82 294.335C1286.82 292.387 1288.4 290.808 1290.35 290.808C1292.31 290.808 1293.88 292.387 1293.88 294.335Z" fill="white"/>
<path d="M1316.42 294.335C1316.42 296.282 1314.84 297.862 1312.9 297.862C1310.95 297.862 1309.37 296.282 1309.37 294.335C1309.37 292.387 1310.95 290.808 1312.9 290.808C1314.84 290.808 1316.42 292.387 1316.42 294.335Z" fill="white"/>
<path d="M1338.97 294.335C1338.97 296.282 1337.39 297.862 1335.45 297.862C1333.5 297.862 1331.92 296.282 1331.92 294.335C1331.92 292.387 1333.5 290.808 1335.45 290.808C1337.39 290.808 1338.97 292.387 1338.97 294.335Z" fill="white"/>
<path d="M1181.17 273.068C1181.17 275.015 1179.59 276.595 1177.64 276.595C1175.7 276.595 1174.12 275.015 1174.12 273.068C1174.12 271.12 1175.7 269.541 1177.64 269.541C1179.61 269.541 1181.17 271.12 1181.17 273.068Z" fill="white"/>
<path d="M1203.72 273.068C1203.72 275.015 1202.14 276.595 1200.19 276.595C1198.24 276.595 1196.66 275.015 1196.66 273.068C1196.66 271.12 1198.24 269.541 1200.19 269.541C1202.14 269.541 1203.72 271.12 1203.72 273.068Z" fill="white"/>
<path d="M1226.27 273.068C1226.27 275.015 1224.69 276.595 1222.74 276.595C1220.79 276.595 1219.21 275.015 1219.21 273.068C1219.21 271.12 1220.79 269.541 1222.74 269.541C1224.69 269.541 1226.27 271.12 1226.27 273.068Z" fill="white"/>
<path d="M1248.8 273.068C1248.8 275.015 1247.22 276.595 1245.27 276.595C1243.32 276.595 1241.74 275.015 1241.74 273.068C1241.74 271.12 1243.32 269.541 1245.27 269.541C1247.22 269.541 1248.8 271.12 1248.8 273.068Z" fill="white"/>
<path d="M1271.35 273.068C1271.35 275.015 1269.77 276.595 1267.82 276.595C1265.87 276.595 1264.29 275.015 1264.29 273.068C1264.29 271.12 1265.87 269.541 1267.82 269.541C1269.77 269.541 1271.35 271.12 1271.35 273.068Z" fill="white"/>
<path d="M1293.88 273.068C1293.88 275.015 1292.3 276.595 1290.35 276.595C1288.4 276.595 1286.82 275.015 1286.82 273.068C1286.82 271.12 1288.4 269.541 1290.35 269.541C1292.31 269.541 1293.88 271.12 1293.88 273.068Z" fill="white"/>
<path d="M1316.42 273.068C1316.42 275.015 1314.84 276.595 1312.9 276.595C1310.95 276.595 1309.37 275.015 1309.37 273.068C1309.37 271.12 1310.95 269.541 1312.9 269.541C1314.84 269.541 1316.42 271.12 1316.42 273.068Z" fill="white"/>
<path d="M1338.97 273.068C1338.97 275.015 1337.39 276.595 1335.45 276.595C1333.5 276.595 1331.92 275.015 1331.92 273.068C1331.92 271.12 1333.5 269.541 1335.45 269.541C1337.39 269.541 1338.97 271.12 1338.97 273.068Z" fill="white"/>
<path d="M1181.17 251.783C1181.17 253.731 1179.59 255.31 1177.64 255.31C1175.7 255.31 1174.12 253.731 1174.12 251.783C1174.12 249.836 1175.7 248.256 1177.64 248.256C1179.61 248.274 1181.17 249.836 1181.17 251.783Z" fill="white"/>
<path d="M1203.72 251.783C1203.72 253.731 1202.14 255.31 1200.19 255.31C1198.24 255.31 1196.66 253.731 1196.66 251.783C1196.66 249.836 1198.24 248.256 1200.19 248.256C1202.14 248.274 1203.72 249.836 1203.72 251.783Z" fill="white"/>
<path d="M1226.27 251.783C1226.27 253.731 1224.69 255.31 1222.74 255.31C1220.79 255.31 1219.21 253.731 1219.21 251.783C1219.21 249.836 1220.79 248.256 1222.74 248.256C1224.69 248.256 1226.27 249.836 1226.27 251.783Z" fill="white"/>
<path d="M1248.8 251.783C1248.8 253.731 1247.22 255.31 1245.27 255.31C1243.32 255.31 1241.74 253.731 1241.74 251.783C1241.74 249.836 1243.32 248.256 1245.27 248.256C1247.22 248.274 1248.8 249.836 1248.8 251.783Z" fill="white"/>
<path d="M1271.35 251.783C1271.35 253.731 1269.77 255.31 1267.82 255.31C1265.87 255.31 1264.29 253.731 1264.29 251.783C1264.29 249.836 1265.87 248.256 1267.82 248.256C1269.77 248.274 1271.35 249.836 1271.35 251.783Z" fill="white"/>
<path d="M1293.88 251.783C1293.88 253.731 1292.3 255.31 1290.35 255.31C1288.4 255.31 1286.82 253.731 1286.82 251.783C1286.82 249.836 1288.4 248.256 1290.35 248.256C1292.31 248.274 1293.88 249.836 1293.88 251.783Z" fill="white"/>
<path d="M1316.42 251.783C1316.42 253.731 1314.84 255.31 1312.9 255.31C1310.95 255.31 1309.37 253.731 1309.37 251.783C1309.37 249.836 1310.95 248.256 1312.9 248.256C1314.84 248.274 1316.42 249.836 1316.42 251.783Z" fill="white"/>
<path d="M1338.97 251.783C1338.97 253.731 1337.39 255.31 1335.45 255.31C1333.5 255.31 1331.92 253.731 1331.92 251.783C1331.92 249.836 1333.5 248.256 1335.45 248.256C1337.39 248.274 1338.97 249.836 1338.97 251.783Z" fill="white"/>
<path d="M1177.66 234.043C1179.61 234.043 1181.19 232.464 1181.19 230.516C1181.19 228.568 1179.61 226.989 1177.66 226.989C1175.71 226.989 1174.13 228.568 1174.13 230.516C1174.13 232.464 1175.71 234.043 1177.66 234.043Z" fill="white"/>
<path d="M1200.19 234.043C1202.14 234.043 1203.72 232.464 1203.72 230.516C1203.72 228.568 1202.14 226.989 1200.19 226.989C1198.24 226.989 1196.66 228.568 1196.66 230.516C1196.66 232.464 1198.24 234.043 1200.19 234.043Z" fill="white"/>
<path d="M1226.27 230.516C1226.27 232.464 1224.69 234.043 1222.74 234.043C1220.79 234.043 1219.21 232.464 1219.21 230.516C1219.21 228.568 1220.79 226.989 1222.74 226.989C1224.69 226.989 1226.27 228.568 1226.27 230.516Z" fill="white"/>
<path d="M1248.8 230.516C1248.8 232.464 1247.22 234.043 1245.27 234.043C1243.32 234.043 1241.74 232.464 1241.74 230.516C1241.74 228.568 1243.32 226.989 1245.27 226.989C1247.22 226.989 1248.8 228.568 1248.8 230.516Z" fill="white"/>
<path d="M1267.82 234.043C1269.77 234.043 1271.35 232.464 1271.35 230.516C1271.35 228.568 1269.77 226.989 1267.82 226.989C1265.87 226.989 1264.29 228.568 1264.29 230.516C1264.29 232.464 1265.87 234.043 1267.82 234.043Z" fill="white"/>
<path d="M1290.37 234.043C1292.31 234.043 1293.89 232.464 1293.89 230.516C1293.89 228.568 1292.31 226.989 1290.37 226.989C1288.42 226.989 1286.84 228.568 1286.84 230.516C1286.84 232.464 1288.42 234.043 1290.37 234.043Z" fill="white"/>
<path d="M1312.9 234.043C1314.85 234.043 1316.42 232.464 1316.42 230.516C1316.42 228.568 1314.85 226.989 1312.9 226.989C1310.95 226.989 1309.37 228.568 1309.37 230.516C1309.37 232.464 1310.95 234.043 1312.9 234.043Z" fill="white"/>
<path d="M1338.97 230.516C1338.97 232.464 1337.39 234.043 1335.45 234.043C1333.5 234.043 1331.92 232.464 1331.92 230.516C1331.92 228.568 1333.5 226.989 1335.45 226.989C1337.39 226.989 1338.97 228.568 1338.97 230.516Z" fill="white"/>
<path d="M1177.66 212.758C1179.61 212.758 1181.19 211.179 1181.19 209.231C1181.19 207.283 1179.61 205.704 1177.66 205.704C1175.71 205.704 1174.13 207.283 1174.13 209.231C1174.13 211.179 1175.71 212.758 1177.66 212.758Z" fill="white"/>
<path d="M1200.19 212.758C1202.14 212.758 1203.72 211.179 1203.72 209.231C1203.72 207.283 1202.14 205.704 1200.19 205.704C1198.24 205.704 1196.66 207.283 1196.66 209.231C1196.66 211.179 1198.24 212.758 1200.19 212.758Z" fill="white"/>
<path d="M1226.27 209.231C1226.27 211.179 1224.69 212.758 1222.74 212.758C1220.79 212.758 1219.21 211.179 1219.21 209.231C1219.21 207.283 1220.79 205.704 1222.74 205.704C1224.69 205.704 1226.27 207.301 1226.27 209.231Z" fill="white"/>
<path d="M1248.8 209.231C1248.8 211.179 1247.22 212.758 1245.27 212.758C1243.32 212.758 1241.74 211.179 1241.74 209.231C1241.74 207.283 1243.32 205.704 1245.27 205.704C1247.22 205.722 1248.8 207.301 1248.8 209.231Z" fill="white"/>
<path d="M1267.82 212.758C1269.77 212.758 1271.35 211.179 1271.35 209.231C1271.35 207.283 1269.77 205.704 1267.82 205.704C1265.87 205.704 1264.29 207.283 1264.29 209.231C1264.29 211.179 1265.87 212.758 1267.82 212.758Z" fill="white"/>
<path d="M1290.37 212.758C1292.31 212.758 1293.89 211.179 1293.89 209.231C1293.89 207.283 1292.31 205.704 1290.37 205.704C1288.42 205.704 1286.84 207.283 1286.84 209.231C1286.84 211.179 1288.42 212.758 1290.37 212.758Z" fill="white"/>
<path d="M1312.9 212.758C1314.85 212.758 1316.42 211.179 1316.42 209.231C1316.42 207.283 1314.85 205.704 1312.9 205.704C1310.95 205.704 1309.37 207.283 1309.37 209.231C1309.37 211.179 1310.95 212.758 1312.9 212.758Z" fill="white"/>
<path d="M1338.97 209.231C1338.97 211.179 1337.39 212.758 1335.45 212.758C1333.5 212.758 1331.92 211.179 1331.92 209.231C1331.92 207.283 1333.5 205.704 1335.45 205.704C1337.39 205.722 1338.97 207.301 1338.97 209.231Z" fill="white"/>
<path d="M1177.66 191.491C1179.61 191.491 1181.19 189.912 1181.19 187.964C1181.19 186.016 1179.61 184.437 1177.66 184.437C1175.71 184.437 1174.13 186.016 1174.13 187.964C1174.13 189.912 1175.71 191.491 1177.66 191.491Z" fill="white"/>
<path d="M1200.19 191.491C1202.14 191.491 1203.72 189.912 1203.72 187.964C1203.72 186.016 1202.14 184.437 1200.19 184.437C1198.24 184.437 1196.66 186.016 1196.66 187.964C1196.66 189.912 1198.24 191.491 1200.19 191.491Z" fill="white"/>
<path d="M1226.27 187.964C1226.27 189.912 1224.69 191.491 1222.74 191.491C1220.79 191.491 1219.21 189.912 1219.21 187.964C1219.21 186.016 1220.79 184.437 1222.74 184.437C1224.69 184.437 1226.27 186.016 1226.27 187.964Z" fill="white"/>
<path d="M1248.8 187.964C1248.8 189.912 1247.22 191.491 1245.27 191.491C1243.32 191.491 1241.74 189.912 1241.74 187.964C1241.74 186.016 1243.32 184.437 1245.27 184.437C1247.22 184.437 1248.8 186.016 1248.8 187.964Z" fill="white"/>
<path d="M1267.82 191.491C1269.77 191.491 1271.35 189.912 1271.35 187.964C1271.35 186.016 1269.77 184.437 1267.82 184.437C1265.87 184.437 1264.29 186.016 1264.29 187.964C1264.29 189.912 1265.87 191.491 1267.82 191.491Z" fill="white"/>
<path d="M1290.37 191.491C1292.31 191.491 1293.89 189.912 1293.89 187.964C1293.89 186.016 1292.31 184.437 1290.37 184.437C1288.42 184.437 1286.84 186.016 1286.84 187.964C1286.84 189.912 1288.42 191.491 1290.37 191.491Z" fill="white"/>
<path d="M1312.9 191.491C1314.85 191.491 1316.42 189.912 1316.42 187.964C1316.42 186.016 1314.85 184.437 1312.9 184.437C1310.95 184.437 1309.37 186.016 1309.37 187.964C1309.37 189.912 1310.95 191.491 1312.9 191.491Z" fill="white"/>
<path d="M1338.97 187.964C1338.97 189.912 1337.39 191.491 1335.45 191.491C1333.5 191.491 1331.92 189.912 1331.92 187.964C1331.92 186.016 1333.5 184.437 1335.45 184.437C1337.39 184.437 1338.97 186.016 1338.97 187.964Z" fill="white"/>
<path d="M1177.66 170.224C1179.61 170.224 1181.19 168.645 1181.19 166.697C1181.19 164.749 1179.61 163.17 1177.66 163.17C1175.72 163.17 1174.14 164.749 1174.14 166.697C1174.14 168.645 1175.72 170.224 1177.66 170.224Z" fill="white"/>
<path d="M1200.19 170.224C1202.14 170.224 1203.72 168.645 1203.72 166.697C1203.72 164.749 1202.14 163.17 1200.19 163.17C1198.24 163.17 1196.66 164.749 1196.66 166.697C1196.66 168.645 1198.24 170.224 1200.19 170.224Z" fill="white"/>
<path d="M1226.27 166.697C1226.27 168.645 1224.69 170.224 1222.74 170.224C1220.79 170.224 1219.21 168.645 1219.21 166.697C1219.21 164.749 1220.79 163.17 1222.74 163.17C1224.69 163.17 1226.27 164.749 1226.27 166.697Z" fill="white"/>
<path d="M1248.8 166.697C1248.8 168.645 1247.22 170.224 1245.27 170.224C1243.32 170.224 1241.74 168.645 1241.74 166.697C1241.74 164.749 1243.32 163.17 1245.27 163.17C1247.22 163.17 1248.8 164.749 1248.8 166.697Z" fill="white"/>
<path d="M1267.82 170.224C1269.77 170.224 1271.35 168.645 1271.35 166.697C1271.35 164.749 1269.77 163.17 1267.82 163.17C1265.87 163.17 1264.29 164.749 1264.29 166.697C1264.29 168.645 1265.87 170.224 1267.82 170.224Z" fill="white"/>
<path d="M1290.37 170.224C1292.31 170.224 1293.89 168.645 1293.89 166.697C1293.89 164.749 1292.31 163.17 1290.37 163.17C1288.42 163.17 1286.84 164.749 1286.84 166.697C1286.84 168.645 1288.42 170.224 1290.37 170.224Z" fill="white"/>
<path d="M1312.9 170.224C1314.85 170.224 1316.42 168.645 1316.42 166.697C1316.42 164.749 1314.85 163.17 1312.9 163.17C1310.95 163.17 1309.37 164.749 1309.37 166.697C1309.37 168.645 1310.95 170.224 1312.9 170.224Z" fill="white"/>
<path d="M1338.97 166.697C1338.97 168.645 1337.39 170.224 1335.45 170.224C1333.5 170.224 1331.92 168.645 1331.92 166.697C1331.92 164.749 1333.5 163.17 1335.45 163.17C1337.39 163.17 1338.97 164.749 1338.97 166.697Z" fill="white"/>
<path d="M1229.25 332.5C1165.15 332.5 1113 280.35 1113 216.25C1113 152.15 1165.15 100 1229.25 100C1293.35 100 1345.5 152.15 1345.5 216.25C1345.5 280.35 1293.35 332.5 1229.25 332.5ZM1229.25 102.895C1166.75 102.895 1115.9 153.747 1115.9 216.25C1115.9 278.753 1166.75 329.605 1229.25 329.605C1291.75 329.605 1342.6 278.753 1342.6 216.25C1342.6 153.747 1291.75 102.895 1229.25 102.895Z" fill="white"/>
<path d="M1229.25 309.127C1178.03 309.127 1136.36 267.453 1136.36 216.233C1136.36 165.012 1178.03 123.338 1229.25 123.338C1280.47 123.338 1322.14 165.012 1322.14 216.233C1322.14 267.453 1280.47 309.127 1229.25 309.127ZM1229.25 126.251C1179.63 126.251 1139.27 166.609 1139.27 216.233C1139.27 265.856 1179.63 306.214 1229.25 306.214C1278.87 306.214 1319.23 265.856 1319.23 216.233C1319.23 166.609 1278.87 126.251 1229.25 126.251Z" fill="white"/>
<path d="M1229.25 285.772C1190.91 285.772 1159.73 254.59 1159.73 216.25C1159.73 177.909 1190.91 146.728 1229.25 146.728C1267.59 146.728 1298.77 177.909 1298.77 216.25C1298.77 254.59 1267.59 285.772 1229.25 285.772ZM1229.25 149.623C1192.52 149.623 1162.62 179.506 1162.62 216.25C1162.62 252.994 1192.51 282.877 1229.25 282.877C1265.99 282.877 1295.88 252.994 1295.88 216.25C1295.88 179.506 1265.99 149.623 1229.25 149.623Z" fill="white"/>
<path d="M1229.25 262.399C1203.79 262.399 1183.08 241.693 1183.08 216.233C1183.08 190.772 1203.79 170.066 1229.25 170.066C1254.71 170.066 1275.42 190.772 1275.42 216.233C1275.42 241.693 1254.71 262.399 1229.25 262.399ZM1229.25 172.979C1205.4 172.979 1186 192.386 1186 216.233C1186 240.079 1205.4 259.486 1229.25 259.486C1253.1 259.486 1272.5 240.079 1272.5 216.233C1272.5 192.386 1253.11 172.979 1229.25 172.979Z" fill="white"/>
<path d="M1229.25 239.044C1216.69 239.044 1206.46 228.814 1206.46 216.25C1206.46 203.686 1216.69 193.456 1229.25 193.456C1241.81 193.456 1252.04 203.686 1252.04 216.25C1252.04 228.814 1241.83 239.044 1229.25 239.044ZM1229.25 196.351C1218.28 196.351 1209.35 205.283 1209.35 216.25C1209.35 227.217 1218.28 236.148 1229.25 236.148C1240.22 236.148 1249.15 227.217 1249.15 216.25C1249.15 205.283 1240.22 196.351 1229.25 196.351Z" fill="white"/>
</svg>
