<svg width="375" height="340" viewBox="0 0 375 340" fill="none" xmlns="http://www.w3.org/2000/svg">
<path d="M222.85 51.38L215.33 43.85L223.18 36H228.5L220.65 43.85L228.18 51.38H222.85Z" fill="#F86623"/>
<path d="M209.83 51.38L202.3 43.85L210.15 36H215.48L207.63 43.85L215.16 51.38H209.83Z" fill="#F86623"/>
<path d="M196.8 51.38L189.28 43.85L197.13 36H202.45L194.6 43.85L202.13 51.38H196.8Z" fill="#F86623"/>
<path d="M183.78 51.38L176.25 43.85L184.1 36H189.43L181.58 43.85L189.1 51.38H183.78Z" fill="#F86623"/>
<path d="M170.6 51.38L163.07 43.85L170.92 36H176.25L168.4 43.85L175.93 51.38H170.6Z" fill="#F86623"/>
<path d="M157.58 51.38L150.05 43.85L157.9 36H163.23L155.37 43.85L162.9 51.38H157.58Z" fill="#F86623"/>
<path d="M144.55 51.38L137.02 43.85L144.87 36H150.2L142.35 43.85L149.88 51.38H144.55Z" fill="#F86623"/>
<path d="M131.53 51.38L124 43.85L131.85 36H137.17L129.32 43.85L136.85 51.38H131.53Z" fill="#F86623"/>
<path d="M38.8135 76H33.2236V102.02H38.8135V76Z" fill="#F86623"/>
<path d="M49.02 91.8027V86.2129H23.0001V91.8027H49.02Z" fill="#F86623"/>
<path d="M266.915 113.212C266.915 113.995 266.28 114.63 265.497 114.63C264.713 114.63 264.078 113.995 264.078 113.212C264.078 112.428 264.713 111.793 265.497 111.793C266.287 111.793 266.915 112.428 266.915 113.212Z" fill="white"/>
<path d="M275.982 113.212C275.982 113.995 275.347 114.63 274.564 114.63C273.781 114.63 273.146 113.995 273.146 113.212C273.146 112.428 273.781 111.793 274.564 111.793C275.347 111.793 275.982 112.428 275.982 113.212Z" fill="white"/>
<path d="M285.05 113.212C285.05 113.995 284.415 114.63 283.632 114.63C282.848 114.63 282.213 113.995 282.213 113.212C282.213 112.428 282.848 111.793 283.632 111.793C284.415 111.793 285.05 112.428 285.05 113.212Z" fill="white"/>
<path d="M294.111 113.212C294.111 113.995 293.476 114.63 292.693 114.63C291.91 114.63 291.274 113.995 291.274 113.212C291.274 112.428 291.91 111.793 292.693 111.793C293.476 111.793 294.111 112.428 294.111 113.212Z" fill="white"/>
<path d="M303.179 113.212C303.179 113.995 302.543 114.63 301.76 114.63C300.977 114.63 300.342 113.995 300.342 113.212C300.342 112.428 300.977 111.793 301.76 111.793C302.543 111.793 303.179 112.428 303.179 113.212Z" fill="white"/>
<path d="M312.24 113.212C312.24 113.995 311.604 114.63 310.821 114.63C310.038 114.63 309.403 113.995 309.403 113.212C309.403 112.428 310.038 111.793 310.821 111.793C311.612 111.793 312.24 112.428 312.24 113.212Z" fill="white"/>
<path d="M321.307 113.212C321.307 113.995 320.672 114.63 319.889 114.63C319.105 114.63 318.47 113.995 318.47 113.212C318.47 112.428 319.105 111.793 319.889 111.793C320.672 111.793 321.307 112.428 321.307 113.212Z" fill="white"/>
<path d="M330.375 113.212C330.375 113.995 329.74 114.63 328.956 114.63C328.173 114.63 327.538 113.995 327.538 113.212C327.538 112.428 328.173 111.793 328.956 111.793C329.74 111.793 330.375 112.428 330.375 113.212Z" fill="white"/>
<path d="M266.915 104.652C266.915 105.435 266.28 106.07 265.497 106.07C264.713 106.07 264.078 105.435 264.078 104.652C264.078 103.868 264.713 103.233 265.497 103.233C266.287 103.233 266.915 103.868 266.915 104.652Z" fill="white"/>
<path d="M275.982 104.652C275.982 105.435 275.347 106.07 274.564 106.07C273.781 106.07 273.146 105.435 273.146 104.652C273.146 103.868 273.781 103.233 274.564 103.233C275.347 103.233 275.982 103.868 275.982 104.652Z" fill="white"/>
<path d="M285.05 104.652C285.05 105.435 284.415 106.07 283.632 106.07C282.848 106.07 282.213 105.435 282.213 104.652C282.213 103.868 282.848 103.233 283.632 103.233C284.415 103.233 285.05 103.868 285.05 104.652Z" fill="white"/>
<path d="M294.111 104.652C294.111 105.435 293.476 106.07 292.693 106.07C291.91 106.07 291.274 105.435 291.274 104.652C291.274 103.868 291.91 103.233 292.693 103.233C293.476 103.233 294.111 103.868 294.111 104.652Z" fill="white"/>
<path d="M303.179 104.652C303.179 105.435 302.543 106.07 301.76 106.07C300.977 106.07 300.342 105.435 300.342 104.652C300.342 103.868 300.977 103.233 301.76 103.233C302.543 103.233 303.179 103.868 303.179 104.652Z" fill="white"/>
<path d="M312.24 104.652C312.24 105.435 311.604 106.07 310.821 106.07C310.038 106.07 309.403 105.435 309.403 104.652C309.403 103.868 310.038 103.233 310.821 103.233C311.612 103.233 312.24 103.868 312.24 104.652Z" fill="white"/>
<path d="M321.307 104.652C321.307 105.435 320.672 106.07 319.889 106.07C319.105 106.07 318.47 105.435 318.47 104.652C318.47 103.868 319.105 103.233 319.889 103.233C320.672 103.233 321.307 103.868 321.307 104.652Z" fill="white"/>
<path d="M330.375 104.652C330.375 105.435 329.74 106.07 328.956 106.07C328.173 106.07 327.538 105.435 327.538 104.652C327.538 103.868 328.173 103.233 328.956 103.233C329.74 103.233 330.375 103.868 330.375 104.652Z" fill="white"/>
<path d="M266.915 96.0993C266.915 96.8826 266.28 97.5177 265.497 97.5177C264.713 97.5177 264.078 96.8826 264.078 96.0993C264.078 95.316 264.713 94.6809 265.497 94.6809C266.287 94.6809 266.915 95.316 266.915 96.0993Z" fill="white"/>
<path d="M275.982 96.0993C275.982 96.8826 275.347 97.5177 274.564 97.5177C273.781 97.5177 273.146 96.8826 273.146 96.0993C273.146 95.316 273.781 94.6809 274.564 94.6809C275.347 94.6809 275.982 95.316 275.982 96.0993Z" fill="white"/>
<path d="M285.05 96.0993C285.05 96.8826 284.415 97.5177 283.632 97.5177C282.848 97.5177 282.213 96.8826 282.213 96.0993C282.213 95.316 282.848 94.6809 283.632 94.6809C284.415 94.6809 285.05 95.316 285.05 96.0993Z" fill="white"/>
<path d="M294.111 96.0993C294.111 96.8826 293.476 97.5177 292.693 97.5177C291.91 97.5177 291.274 96.8826 291.274 96.0993C291.274 95.316 291.91 94.6809 292.693 94.6809C293.476 94.6809 294.111 95.316 294.111 96.0993Z" fill="white"/>
<path d="M303.179 96.0993C303.179 96.8826 302.543 97.5177 301.76 97.5177C300.977 97.5177 300.342 96.8826 300.342 96.0993C300.342 95.316 300.977 94.6809 301.76 94.6809C302.543 94.6809 303.179 95.316 303.179 96.0993Z" fill="white"/>
<path d="M312.24 96.0993C312.24 96.8826 311.604 97.5177 310.821 97.5177C310.038 97.5177 309.403 96.8826 309.403 96.0993C309.403 95.316 310.038 94.6809 310.821 94.6809C311.612 94.6809 312.24 95.316 312.24 96.0993Z" fill="white"/>
<path d="M321.307 96.0993C321.307 96.8826 320.672 97.5177 319.889 97.5177C319.105 97.5177 318.47 96.8826 318.47 96.0993C318.47 95.316 319.105 94.6809 319.889 94.6809C320.672 94.6809 321.307 95.316 321.307 96.0993Z" fill="white"/>
<path d="M330.375 96.0993C330.375 96.8826 329.74 97.5177 328.956 97.5177C328.173 97.5177 327.538 96.8826 327.538 96.0993C327.538 95.316 328.173 94.6809 328.956 94.6809C329.74 94.6809 330.375 95.316 330.375 96.0993Z" fill="white"/>
<path d="M266.915 87.5397C266.915 88.323 266.28 88.9581 265.497 88.9581C264.713 88.9581 264.078 88.323 264.078 87.5397C264.078 86.7564 264.713 86.1213 265.497 86.1213C266.287 86.1284 266.915 86.7564 266.915 87.5397Z" fill="white"/>
<path d="M275.982 87.5397C275.982 88.323 275.347 88.9581 274.564 88.9581C273.781 88.9581 273.146 88.323 273.146 87.5397C273.146 86.7564 273.781 86.1213 274.564 86.1213C275.347 86.1284 275.982 86.7564 275.982 87.5397Z" fill="white"/>
<path d="M285.05 87.5397C285.05 88.323 284.415 88.9581 283.632 88.9581C282.848 88.9581 282.213 88.323 282.213 87.5397C282.213 86.7564 282.848 86.1213 283.632 86.1213C284.415 86.1213 285.05 86.7564 285.05 87.5397Z" fill="white"/>
<path d="M294.111 87.5397C294.111 88.323 293.476 88.9581 292.693 88.9581C291.91 88.9581 291.274 88.323 291.274 87.5397C291.274 86.7564 291.91 86.1213 292.693 86.1213C293.476 86.1284 294.111 86.7564 294.111 87.5397Z" fill="white"/>
<path d="M303.179 87.5397C303.179 88.323 302.543 88.9581 301.76 88.9581C300.977 88.9581 300.342 88.323 300.342 87.5397C300.342 86.7564 300.977 86.1213 301.76 86.1213C302.543 86.1284 303.179 86.7564 303.179 87.5397Z" fill="white"/>
<path d="M312.24 87.5397C312.24 88.323 311.604 88.9581 310.821 88.9581C310.038 88.9581 309.403 88.323 309.403 87.5397C309.403 86.7564 310.038 86.1213 310.821 86.1213C311.612 86.1284 312.24 86.7564 312.24 87.5397Z" fill="white"/>
<path d="M321.307 87.5397C321.307 88.323 320.672 88.9581 319.889 88.9581C319.105 88.9581 318.47 88.323 318.47 87.5397C318.47 86.7564 319.105 86.1213 319.889 86.1213C320.672 86.1284 321.307 86.7564 321.307 87.5397Z" fill="white"/>
<path d="M330.375 87.5397C330.375 88.323 329.74 88.9581 328.956 88.9581C328.173 88.9581 327.538 88.323 327.538 87.5397C327.538 86.7564 328.173 86.1213 328.956 86.1213C329.74 86.1284 330.375 86.7564 330.375 87.5397Z" fill="white"/>
<path d="M265.503 80.4054C266.287 80.4054 266.922 79.7703 266.922 78.987C266.922 78.2036 266.287 77.5686 265.503 77.5686C264.72 77.5686 264.085 78.2036 264.085 78.987C264.085 79.7703 264.72 80.4054 265.503 80.4054Z" fill="white"/>
<path d="M274.564 80.4054C275.347 80.4054 275.982 79.7703 275.982 78.987C275.982 78.2036 275.347 77.5686 274.564 77.5686C273.781 77.5686 273.146 78.2036 273.146 78.987C273.146 79.7703 273.781 80.4054 274.564 80.4054Z" fill="white"/>
<path d="M285.05 78.987C285.05 79.7703 284.415 80.4054 283.632 80.4054C282.848 80.4054 282.213 79.7703 282.213 78.987C282.213 78.2037 282.848 77.5686 283.632 77.5686C284.415 77.5686 285.05 78.2037 285.05 78.987Z" fill="white"/>
<path d="M294.111 78.987C294.111 79.7703 293.476 80.4054 292.692 80.4054C291.909 80.4054 291.274 79.7703 291.274 78.987C291.274 78.2037 291.909 77.5686 292.692 77.5686C293.476 77.5686 294.111 78.2037 294.111 78.987Z" fill="white"/>
<path d="M301.76 80.4054C302.544 80.4054 303.179 79.7703 303.179 78.987C303.179 78.2036 302.544 77.5686 301.76 77.5686C300.977 77.5686 300.342 78.2036 300.342 78.987C300.342 79.7703 300.977 80.4054 301.76 80.4054Z" fill="white"/>
<path d="M310.828 80.4054C311.611 80.4054 312.246 79.7703 312.246 78.987C312.246 78.2036 311.611 77.5686 310.828 77.5686C310.045 77.5686 309.41 78.2036 309.41 78.987C309.41 79.7703 310.045 80.4054 310.828 80.4054Z" fill="white"/>
<path d="M319.889 80.4054C320.672 80.4054 321.307 79.7703 321.307 78.987C321.307 78.2036 320.672 77.5686 319.889 77.5686C319.105 77.5686 318.47 78.2036 318.47 78.987C318.47 79.7703 319.105 80.4054 319.889 80.4054Z" fill="white"/>
<path d="M330.375 78.987C330.375 79.7703 329.74 80.4054 328.956 80.4054C328.173 80.4054 327.538 79.7703 327.538 78.987C327.538 78.2037 328.173 77.5686 328.956 77.5686C329.74 77.5686 330.375 78.2037 330.375 78.987Z" fill="white"/>
<path d="M265.503 71.8458C266.287 71.8458 266.922 71.2107 266.922 70.4274C266.922 69.644 266.287 69.009 265.503 69.009C264.72 69.009 264.085 69.644 264.085 70.4274C264.085 71.2107 264.72 71.8458 265.503 71.8458Z" fill="white"/>
<path d="M274.564 71.8458C275.347 71.8458 275.982 71.2107 275.982 70.4274C275.982 69.644 275.347 69.009 274.564 69.009C273.781 69.009 273.146 69.644 273.146 70.4274C273.146 71.2107 273.781 71.8458 274.564 71.8458Z" fill="white"/>
<path d="M285.05 70.4274C285.05 71.2107 284.415 71.8458 283.632 71.8458C282.848 71.8458 282.213 71.2107 282.213 70.4274C282.213 69.6441 282.848 69.009 283.632 69.009C284.415 69.009 285.05 69.6512 285.05 70.4274Z" fill="white"/>
<path d="M294.111 70.4274C294.111 71.2107 293.476 71.8458 292.692 71.8458C291.909 71.8458 291.274 71.2107 291.274 70.4274C291.274 69.6441 291.909 69.009 292.692 69.009C293.476 69.0161 294.111 69.6512 294.111 70.4274Z" fill="white"/>
<path d="M301.76 71.8458C302.544 71.8458 303.179 71.2107 303.179 70.4274C303.179 69.644 302.544 69.009 301.76 69.009C300.977 69.009 300.342 69.644 300.342 70.4274C300.342 71.2107 300.977 71.8458 301.76 71.8458Z" fill="white"/>
<path d="M310.828 71.8458C311.611 71.8458 312.246 71.2107 312.246 70.4274C312.246 69.644 311.611 69.009 310.828 69.009C310.045 69.009 309.41 69.644 309.41 70.4274C309.41 71.2107 310.045 71.8458 310.828 71.8458Z" fill="white"/>
<path d="M319.889 71.8458C320.672 71.8458 321.307 71.2107 321.307 70.4274C321.307 69.644 320.672 69.009 319.889 69.009C319.105 69.009 318.47 69.644 318.47 70.4274C318.47 71.2107 319.105 71.8458 319.889 71.8458Z" fill="white"/>
<path d="M330.375 70.4274C330.375 71.2107 329.74 71.8458 328.956 71.8458C328.173 71.8458 327.538 71.2107 327.538 70.4274C327.538 69.6441 328.173 69.009 328.956 69.009C329.74 69.0161 330.375 69.6512 330.375 70.4274Z" fill="white"/>
<path d="M265.503 63.2931C266.287 63.2931 266.922 62.658 266.922 61.8747C266.922 61.0913 266.287 60.4563 265.503 60.4563C264.72 60.4563 264.085 61.0913 264.085 61.8747C264.085 62.658 264.72 63.2931 265.503 63.2931Z" fill="white"/>
<path d="M274.564 63.2931C275.347 63.2931 275.982 62.658 275.982 61.8747C275.982 61.0913 275.347 60.4563 274.564 60.4563C273.781 60.4563 273.146 61.0913 273.146 61.8747C273.146 62.658 273.781 63.2931 274.564 63.2931Z" fill="white"/>
<path d="M285.05 61.8747C285.05 62.658 284.415 63.2931 283.632 63.2931C282.848 63.2931 282.213 62.658 282.213 61.8747C282.213 61.0914 282.848 60.4563 283.632 60.4563C284.415 60.4563 285.05 61.0914 285.05 61.8747Z" fill="white"/>
<path d="M294.111 61.8747C294.111 62.658 293.476 63.2931 292.692 63.2931C291.909 63.2931 291.274 62.658 291.274 61.8747C291.274 61.0914 291.909 60.4563 292.692 60.4563C293.476 60.4563 294.111 61.0914 294.111 61.8747Z" fill="white"/>
<path d="M301.76 63.2931C302.544 63.2931 303.179 62.658 303.179 61.8747C303.179 61.0913 302.544 60.4563 301.76 60.4563C300.977 60.4563 300.342 61.0913 300.342 61.8747C300.342 62.658 300.977 63.2931 301.76 63.2931Z" fill="white"/>
<path d="M310.828 63.2931C311.611 63.2931 312.246 62.658 312.246 61.8747C312.246 61.0913 311.611 60.4563 310.828 60.4563C310.045 60.4563 309.41 61.0913 309.41 61.8747C309.41 62.658 310.045 63.2931 310.828 63.2931Z" fill="white"/>
<path d="M319.889 63.2931C320.672 63.2931 321.307 62.658 321.307 61.8747C321.307 61.0913 320.672 60.4563 319.889 60.4563C319.105 60.4563 318.47 61.0913 318.47 61.8747C318.47 62.658 319.105 63.2931 319.889 63.2931Z" fill="white"/>
<path d="M330.375 61.8747C330.375 62.658 329.74 63.2931 328.956 63.2931C328.173 63.2931 327.538 62.658 327.538 61.8747C327.538 61.0914 328.173 60.4563 328.956 60.4563C329.74 60.4563 330.375 61.0914 330.375 61.8747Z" fill="white"/>
<path d="M265.504 54.7406C266.288 54.7406 266.923 54.1055 266.923 53.3222C266.923 52.5388 266.288 51.9038 265.504 51.9038C264.721 51.9038 264.086 52.5388 264.086 53.3222C264.086 54.1055 264.721 54.7406 265.504 54.7406Z" fill="white"/>
<path d="M274.564 54.7406C275.347 54.7406 275.982 54.1055 275.982 53.3222C275.982 52.5388 275.347 51.9038 274.564 51.9038C273.781 51.9038 273.146 52.5388 273.146 53.3222C273.146 54.1055 273.781 54.7406 274.564 54.7406Z" fill="white"/>
<path d="M285.05 53.3222C285.05 54.1055 284.415 54.7406 283.632 54.7406C282.848 54.7406 282.213 54.1055 282.213 53.3222C282.213 52.5389 282.848 51.9038 283.632 51.9038C284.415 51.9038 285.05 52.5389 285.05 53.3222Z" fill="white"/>
<path d="M294.111 53.3222C294.111 54.1055 293.476 54.7406 292.693 54.7406C291.91 54.7406 291.274 54.1055 291.274 53.3222C291.274 52.5389 291.91 51.9038 292.693 51.9038C293.476 51.9038 294.111 52.5389 294.111 53.3222Z" fill="white"/>
<path d="M301.76 54.7406C302.544 54.7406 303.179 54.1055 303.179 53.3222C303.179 52.5388 302.544 51.9038 301.76 51.9038C300.977 51.9038 300.342 52.5388 300.342 53.3222C300.342 54.1055 300.977 54.7406 301.76 54.7406Z" fill="white"/>
<path d="M310.828 54.7406C311.611 54.7406 312.246 54.1055 312.246 53.3222C312.246 52.5388 311.611 51.9038 310.828 51.9038C310.045 51.9038 309.41 52.5388 309.41 53.3222C309.41 54.1055 310.045 54.7406 310.828 54.7406Z" fill="white"/>
<path d="M319.889 54.7406C320.672 54.7406 321.307 54.1055 321.307 53.3222C321.307 52.5388 320.672 51.9038 319.889 51.9038C319.105 51.9038 318.47 52.5388 318.47 53.3222C318.47 54.1055 319.105 54.7406 319.889 54.7406Z" fill="white"/>
<path d="M330.375 53.3222C330.375 54.1055 329.74 54.7406 328.956 54.7406C328.173 54.7406 327.538 54.1055 327.538 53.3222C327.538 52.5389 328.173 51.9038 328.956 51.9038C329.74 51.9038 330.375 52.5389 330.375 53.3222Z" fill="white"/>
<path d="M286.25 120C260.472 120 239.5 99.0278 239.5 73.25C239.5 47.4722 260.472 26.5 286.25 26.5C312.028 26.5 333 47.4722 333 73.25C333 99.0278 312.028 120 286.25 120ZM286.25 27.6644C261.114 27.6644 240.664 48.1144 240.664 73.25C240.664 98.3856 261.114 118.836 286.25 118.836C311.386 118.836 331.836 98.3856 331.836 73.25C331.836 48.1144 311.386 27.6644 286.25 27.6644Z" fill="white"/>
<path d="M286.25 110.601C265.652 110.601 248.893 93.8411 248.893 73.2429C248.893 52.6447 265.652 35.8853 286.25 35.8853C306.848 35.8853 323.608 52.6447 323.608 73.2429C323.608 93.8411 306.848 110.601 286.25 110.601ZM286.25 37.0567C266.294 37.0567 250.064 53.2868 250.064 73.2429C250.064 93.199 266.294 109.429 286.25 109.429C306.206 109.429 322.436 93.199 322.436 73.2429C322.436 53.2868 306.206 37.0567 286.25 37.0567Z" fill="white"/>
<path d="M286.25 101.208C270.831 101.208 258.292 88.6687 258.292 73.25C258.292 57.8313 270.831 45.2917 286.25 45.2917C301.669 45.2917 314.209 57.8313 314.209 73.25C314.209 88.6687 301.669 101.208 286.25 101.208ZM286.25 46.4561C271.481 46.4561 259.456 58.4735 259.456 73.25C259.456 88.0265 271.474 100.044 286.25 100.044C301.027 100.044 313.044 88.0265 313.044 73.25C313.044 58.4735 301.027 46.4561 286.25 46.4561Z" fill="white"/>
<path d="M286.25 91.8088C276.011 91.8088 267.684 83.4821 267.684 73.2429C267.684 63.0038 276.011 54.677 286.25 54.677C296.489 54.677 304.816 63.0038 304.816 73.2429C304.816 83.4821 296.489 91.8088 286.25 91.8088ZM286.25 55.8484C276.66 55.8484 268.856 63.653 268.856 73.2429C268.856 82.8328 276.66 90.6375 286.25 90.6375C295.84 90.6375 303.645 82.8328 303.645 73.2429C303.645 63.653 295.847 55.8484 286.25 55.8484Z" fill="white"/>
<path d="M286.25 82.4166C281.197 82.4166 277.083 78.3025 277.083 73.25C277.083 68.1975 281.197 64.0835 286.25 64.0835C291.303 64.0835 295.417 68.1975 295.417 73.25C295.417 78.3025 291.31 82.4166 286.25 82.4166ZM286.25 65.2478C281.84 65.2478 278.248 68.8396 278.248 73.25C278.248 77.6604 281.84 81.2522 286.25 81.2522C290.66 81.2522 294.252 77.6604 294.252 73.25C294.252 68.8396 290.66 65.2478 286.25 65.2478Z" fill="white"/>
<path d="M312.11 184.195C311.68 184.195 311.24 184.035 310.91 183.705L291.5 164.295C291.18 163.975 291 163.555 291 163.095C291 162.635 291.18 162.215 291.5 161.895L310.91 142.495C311.57 141.835 312.64 141.835 313.3 142.495L332.71 161.905C333.03 162.225 333.21 162.645 333.21 163.105C333.21 163.565 333.03 163.985 332.71 164.305L313.3 183.715C312.97 184.035 312.54 184.195 312.11 184.195ZM312.11 143.005C311.93 143.005 311.75 143.075 311.62 143.205L292.21 162.615C292.08 162.745 292.01 162.915 292.01 163.105C292.01 163.295 292.08 163.465 292.21 163.595L311.62 183.005C311.88 183.265 312.33 183.265 312.6 183.005L332.01 163.595C332.14 163.465 332.21 163.295 332.21 163.105C332.21 162.915 332.14 162.745 332.01 162.615L312.6 143.205C312.46 143.075 312.29 143.005 312.11 143.005Z" fill="#34A1FD"/>
<path d="M311.75 171.705L303.5 163.455C303.3 163.255 303.3 162.935 303.5 162.735L311.75 154.485C311.95 154.285 312.27 154.285 312.47 154.485L320.72 162.735C320.92 162.935 320.92 163.255 320.72 163.455L312.47 171.705C312.27 171.905 311.95 171.905 311.75 171.705Z" fill="#34A1FD"/>
<path d="M127.198 106.084C125.258 106.084 123.318 105.364 121.578 103.924C118.458 101.324 114.738 101.324 111.618 103.924C108.148 106.814 103.848 106.804 100.378 103.924C97.2582 101.334 93.5382 101.324 90.4182 103.924C86.9582 106.804 82.6482 106.804 79.1782 103.924C78.9682 103.744 78.9382 103.434 79.1182 103.224C79.2982 103.014 79.6081 102.984 79.8281 103.164C82.9481 105.754 86.6683 105.754 89.7883 103.164C93.2583 100.284 97.5583 100.274 101.028 103.164C104.148 105.754 107.868 105.754 110.988 103.164C114.458 100.284 118.758 100.284 122.228 103.164C125.348 105.754 129.068 105.764 132.188 103.164C132.398 102.984 132.718 103.014 132.898 103.224C133.078 103.434 133.048 103.754 132.828 103.924C131.088 105.354 129.148 106.084 127.198 106.084Z" fill="#34A1FD"/>
<path d="M50.0051 55.02C48.9651 55.02 47.935 54.62 47.155 53.83C45.605 52.26 45.6151 49.71 47.1851 48.16C47.9351 47.41 48.9351 47 50.0051 47C50.0151 47 50.0252 47 50.0252 47C51.0952 47.01 52.1052 47.43 52.8552 48.19C53.6052 48.95 54.0151 49.96 54.0151 51.03C54.0051 52.1 53.5852 53.11 52.8252 53.86C52.0452 54.63 51.0251 55.02 50.0051 55.02ZM47.8853 53.1C49.0353 54.27 50.9252 54.28 52.0952 53.12C52.6652 52.56 52.9751 51.82 52.9751 51.02C52.9751 50.23 52.6752 49.48 52.1152 48.91C51.5552 48.34 50.8151 48.03 50.0151 48.03C49.2151 48.05 48.475 48.33 47.905 48.89C46.745 50.04 46.7353 51.93 47.8853 53.1Z" fill="white"/>
<path d="M85.6777 80.3438C85.4477 80.3438 85.2376 80.2538 85.0676 80.0938L79.2475 74.2738C78.9175 73.9338 78.9175 73.3938 79.2475 73.0638L85.0676 67.2438C85.3876 66.9138 85.9575 66.9238 86.2775 67.2438L92.0976 73.0638C92.2576 73.2238 92.3476 73.4438 92.3476 73.6638C92.3476 73.8838 92.2576 74.1038 92.0976 74.2738L86.2775 80.0938C86.1175 80.2538 85.9077 80.3338 85.6777 80.3438ZM80.0576 73.6638L85.6777 79.2838L91.2975 73.6638L85.6777 68.0438L80.0576 73.6638Z" fill="#F86623"/>
</svg>
