<svg width="139" height="138" viewBox="0 0 139 138" fill="none" xmlns="http://www.w3.org/2000/svg">
<path d="M0.279794 0.479625L0 137.37L1.47521 137.373L1.755 0.48264L0.279794 0.479625Z" fill="#ED5007"/>
<path d="M15.4326 0.510601L15.1528 137.401L16.628 137.404L16.9078 0.513616L15.4326 0.510601Z" fill="#ED5007"/>
<path d="M30.5691 0.541538L30.2893 137.432L31.7645 137.435L32.0443 0.544553L30.5691 0.541538Z" fill="#ED5007"/>
<path d="M45.7219 0.572505L45.4421 137.463L46.9173 137.466L47.1971 0.575521L45.7219 0.572505Z" fill="#ED5007"/>
<path d="M60.8591 0.603443L60.5793 137.494L62.0546 137.497L62.3344 0.606458L60.8591 0.603443Z" fill="#ED5007"/>
<path d="M76.0129 0.634418L75.7332 137.525L77.2084 137.528L77.4882 0.637433L76.0129 0.634418Z" fill="#ED5007"/>
<path d="M91.1499 0.665355L90.8701 137.556L92.3453 137.559L92.6251 0.66837L91.1499 0.665355Z" fill="#ED5007"/>
<path d="M106.303 0.69633L106.023 137.587L107.498 137.59L107.778 0.699346L106.303 0.69633Z" fill="#ED5007"/>
<path d="M121.44 0.727275L121.16 137.617L122.635 137.62L122.915 0.730291L121.44 0.727275Z" fill="#ED5007"/>
<path d="M136.593 0.758235L136.313 137.648L137.788 137.651L138.068 0.761251L136.593 0.758235Z" fill="#ED5007"/>
</svg>
