<svg width="166" height="175" viewBox="0 0 166 175" fill="none" xmlns="http://www.w3.org/2000/svg">
<path d="M160.76 173.738C162.796 173.738 164.446 172.088 164.446 170.052C164.446 168.017 162.796 166.367 160.76 166.367C158.725 166.367 157.075 168.017 157.075 170.052C157.075 172.088 158.725 173.738 160.76 173.738Z" stroke="#34A1FD" stroke-width="1.75588" stroke-miterlimit="10" stroke-linecap="round" stroke-linejoin="round"/>
<path d="M160.76 142.734C162.805 142.734 164.446 144.375 164.446 146.42C164.446 148.464 162.805 150.105 160.76 150.105C158.716 150.105 157.075 148.464 157.075 146.42C157.075 144.375 158.716 142.734 160.76 142.734Z" stroke="#34A1FD" stroke-width="1.75588" stroke-miterlimit="10" stroke-linecap="round" stroke-linejoin="round"/>
<path d="M160.76 126.473C162.796 126.473 164.446 124.823 164.446 122.787C164.446 120.751 162.796 119.101 160.76 119.101C158.725 119.101 157.075 120.751 157.075 122.787C157.075 124.823 158.725 126.473 160.76 126.473Z" stroke="#34A1FD" stroke-width="1.75588" stroke-miterlimit="10" stroke-linecap="round" stroke-linejoin="round"/>
<path d="M160.76 95.4686C162.805 95.4686 164.446 97.1102 164.446 99.1545C164.446 101.199 162.805 102.84 160.76 102.84C158.716 102.84 157.075 101.199 157.075 99.1545C157.075 97.1412 158.716 95.4686 160.76 95.4686Z" stroke="#34A1FD" stroke-width="1.75588" stroke-miterlimit="10" stroke-linecap="round" stroke-linejoin="round"/>
<path d="M160.76 79.2385C162.796 79.2385 164.446 77.5883 164.446 75.5527C164.446 73.5171 162.796 71.8669 160.76 71.8669C158.725 71.8669 157.075 73.5171 157.075 75.5527C157.075 77.5883 158.725 79.2385 160.76 79.2385Z" stroke="#34A1FD" stroke-width="1.75588" stroke-miterlimit="10" stroke-linecap="round" stroke-linejoin="round"/>
<path d="M160.76 48.2343C162.805 48.2343 164.446 49.8759 164.446 51.9201C164.446 53.9644 162.805 55.6059 160.76 55.6059C158.716 55.6059 157.075 53.9644 157.075 51.9201C157.075 49.8759 158.716 48.2343 160.76 48.2343Z" stroke="#34A1FD" stroke-width="1.75588" stroke-miterlimit="10" stroke-linecap="round" stroke-linejoin="round"/>
<path d="M160.76 32.0042C162.796 32.0042 164.446 30.354 164.446 28.3184C164.446 26.2828 162.796 24.6326 160.76 24.6326C158.725 24.6326 157.075 26.2828 157.075 28.3184C157.075 30.354 158.725 32.0042 160.76 32.0042Z" stroke="#34A1FD" stroke-width="1.75588" stroke-miterlimit="10" stroke-linecap="round" stroke-linejoin="round"/>
<path d="M160.76 1C162.805 1 164.446 2.64159 164.446 4.68583C164.446 6.73007 162.805 8.37157 160.76 8.37157C158.716 8.37157 157.075 6.73007 157.075 4.68583C157.075 2.64159 158.716 1 160.76 1Z" stroke="#34A1FD" stroke-width="1.75588" stroke-miterlimit="10" stroke-linecap="round" stroke-linejoin="round"/>
<path d="M138.46 173.738C140.495 173.738 142.145 172.088 142.145 170.052C142.145 168.017 140.495 166.367 138.46 166.367C136.424 166.367 134.774 168.017 134.774 170.052C134.774 172.088 136.424 173.738 138.46 173.738Z" stroke="#34A1FD" stroke-width="1.75588" stroke-miterlimit="10" stroke-linecap="round" stroke-linejoin="round"/>
<path d="M138.46 142.734C140.504 142.734 142.145 144.375 142.145 146.42C142.145 148.464 140.504 150.105 138.46 150.105C136.415 150.105 134.774 148.464 134.774 146.42C134.774 144.375 136.415 142.734 138.46 142.734Z" stroke="#34A1FD" stroke-width="1.75588" stroke-miterlimit="10" stroke-linecap="round" stroke-linejoin="round"/>
<path d="M138.46 126.473C140.495 126.473 142.145 124.823 142.145 122.787C142.145 120.751 140.495 119.101 138.46 119.101C136.424 119.101 134.774 120.751 134.774 122.787C134.774 124.823 136.424 126.473 138.46 126.473Z" stroke="#34A1FD" stroke-width="1.75588" stroke-miterlimit="10" stroke-linecap="round" stroke-linejoin="round"/>
<path d="M138.46 95.4686C140.504 95.4686 142.145 97.1102 142.145 99.1545C142.145 101.199 140.504 102.84 138.46 102.84C136.415 102.84 134.774 101.199 134.774 99.1545C134.774 97.1412 136.415 95.4686 138.46 95.4686Z" stroke="#34A1FD" stroke-width="1.75588" stroke-miterlimit="10" stroke-linecap="round" stroke-linejoin="round"/>
<path d="M138.46 79.2385C140.495 79.2385 142.145 77.5883 142.145 75.5527C142.145 73.5171 140.495 71.8669 138.46 71.8669C136.424 71.8669 134.774 73.5171 134.774 75.5527C134.774 77.5883 136.424 79.2385 138.46 79.2385Z" stroke="#34A1FD" stroke-width="1.75588" stroke-miterlimit="10" stroke-linecap="round" stroke-linejoin="round"/>
<path d="M138.46 48.2343C140.504 48.2343 142.145 49.8759 142.145 51.9201C142.145 53.9644 140.504 55.6059 138.46 55.6059C136.415 55.6059 134.774 53.9644 134.774 51.9201C134.774 49.8759 136.415 48.2343 138.46 48.2343Z" stroke="#34A1FD" stroke-width="1.75588" stroke-miterlimit="10" stroke-linecap="round" stroke-linejoin="round"/>
<path d="M138.46 32.0042C140.495 32.0042 142.145 30.354 142.145 28.3184C142.145 26.2828 140.495 24.6326 138.46 24.6326C136.424 24.6326 134.774 26.2828 134.774 28.3184C134.774 30.354 136.424 32.0042 138.46 32.0042Z" stroke="#34A1FD" stroke-width="1.75588" stroke-miterlimit="10" stroke-linecap="round" stroke-linejoin="round"/>
<path d="M116.159 166.367C118.203 166.367 119.845 168.008 119.845 170.052C119.845 172.097 118.203 173.738 116.159 173.738C114.114 173.738 112.473 172.097 112.473 170.052C112.473 168.008 114.114 166.367 116.159 166.367Z" stroke="#34A1FD" stroke-width="1.75588" stroke-miterlimit="10" stroke-linecap="round" stroke-linejoin="round"/>
<path d="M116.159 142.734C118.203 142.734 119.845 144.375 119.845 146.42C119.845 148.464 118.203 150.105 116.159 150.105C114.114 150.105 112.473 148.464 112.473 146.42C112.473 144.375 114.114 142.734 116.159 142.734Z" stroke="#34A1FD" stroke-width="1.75588" stroke-miterlimit="10" stroke-linecap="round" stroke-linejoin="round"/>
<path d="M116.159 119.101C118.203 119.101 119.845 120.743 119.845 122.787C119.845 124.831 118.203 126.473 116.159 126.473C114.114 126.473 112.473 124.831 112.473 122.787C112.473 120.743 114.114 119.101 116.159 119.101Z" stroke="#34A1FD" stroke-width="1.75588" stroke-miterlimit="10" stroke-linecap="round" stroke-linejoin="round"/>
<path d="M116.159 95.4686C118.203 95.4686 119.845 97.1102 119.845 99.1545C119.845 101.199 118.203 102.84 116.159 102.84C114.114 102.84 112.473 101.199 112.473 99.1545C112.473 97.1412 114.114 95.4686 116.159 95.4686Z" stroke="#34A1FD" stroke-width="1.75588" stroke-miterlimit="10" stroke-linecap="round" stroke-linejoin="round"/>
<path d="M116.159 71.8669C118.203 71.8669 119.845 73.5085 119.845 75.5527C119.845 77.597 118.203 79.2385 116.159 79.2385C114.114 79.2385 112.473 77.597 112.473 75.5527C112.473 73.5085 114.114 71.8669 116.159 71.8669Z" stroke="#34A1FD" stroke-width="1.75588" stroke-miterlimit="10" stroke-linecap="round" stroke-linejoin="round"/>
<path d="M116.159 48.2343C118.203 48.2343 119.845 49.8759 119.845 51.9201C119.845 53.9644 118.203 55.6059 116.159 55.6059C114.114 55.6059 112.473 53.9644 112.473 51.9201C112.473 49.8759 114.114 48.2343 116.159 48.2343Z" stroke="#34A1FD" stroke-width="1.75588" stroke-miterlimit="10" stroke-linecap="round" stroke-linejoin="round"/>
<path d="M93.8577 173.738C95.8933 173.738 97.5435 172.088 97.5435 170.052C97.5435 168.017 95.8933 166.367 93.8577 166.367C91.8221 166.367 90.1719 168.017 90.1719 170.052C90.1719 172.088 91.8221 173.738 93.8577 173.738Z" stroke="#34A1FD" stroke-width="1.75588" stroke-miterlimit="10" stroke-linecap="round" stroke-linejoin="round"/>
<path d="M93.8577 142.734C95.9019 142.734 97.5435 144.375 97.5435 146.42C97.5435 148.464 95.9019 150.105 93.8577 150.105C91.8135 150.105 90.1719 148.464 90.1719 146.42C90.1719 144.375 91.8135 142.734 93.8577 142.734Z" stroke="#34A1FD" stroke-width="1.75588" stroke-miterlimit="10" stroke-linecap="round" stroke-linejoin="round"/>
<path d="M93.8577 126.473C95.8933 126.473 97.5435 124.823 97.5435 122.787C97.5435 120.751 95.8933 119.101 93.8577 119.101C91.8221 119.101 90.1719 120.751 90.1719 122.787C90.1719 124.823 91.8221 126.473 93.8577 126.473Z" stroke="#34A1FD" stroke-width="1.75588" stroke-miterlimit="10" stroke-linecap="round" stroke-linejoin="round"/>
<path d="M93.8577 95.4686C95.9019 95.4686 97.5435 97.1102 97.5435 99.1545C97.5435 101.199 95.9019 102.84 93.8577 102.84C91.8135 102.84 90.1719 101.199 90.1719 99.1545C90.1719 97.1412 91.8135 95.4686 93.8577 95.4686Z" stroke="#34A1FD" stroke-width="1.75588" stroke-miterlimit="10" stroke-linecap="round" stroke-linejoin="round"/>
<path d="M93.8577 79.2385C95.8933 79.2385 97.5435 77.5883 97.5435 75.5527C97.5435 73.5171 95.8933 71.8669 93.8577 71.8669C91.8221 71.8669 90.1719 73.5171 90.1719 75.5527C90.1719 77.5883 91.8221 79.2385 93.8577 79.2385Z" stroke="#34A1FD" stroke-width="1.75588" stroke-miterlimit="10" stroke-linecap="round" stroke-linejoin="round"/>
<path d="M71.5572 173.738C73.5928 173.738 75.243 172.088 75.243 170.052C75.243 168.017 73.5928 166.367 71.5572 166.367C69.5215 166.367 67.8713 168.017 67.8713 170.052C67.8713 172.088 69.5215 173.738 71.5572 173.738Z" stroke="#34A1FD" stroke-width="1.75588" stroke-miterlimit="10" stroke-linecap="round" stroke-linejoin="round"/>
<path d="M71.5572 142.734C73.6014 142.734 75.243 144.375 75.243 146.42C75.243 148.464 73.6014 150.105 71.5572 150.105C69.5129 150.105 67.8713 148.464 67.8713 146.42C67.8713 144.375 69.5439 142.734 71.5572 142.734Z" stroke="#34A1FD" stroke-width="1.75588" stroke-miterlimit="10" stroke-linecap="round" stroke-linejoin="round"/>
<path d="M71.5572 126.473C73.5928 126.473 75.243 124.823 75.243 122.787C75.243 120.751 73.5928 119.101 71.5572 119.101C69.5215 119.101 67.8713 120.751 67.8713 122.787C67.8713 124.823 69.5215 126.473 71.5572 126.473Z" stroke="#34A1FD" stroke-width="1.75588" stroke-miterlimit="10" stroke-linecap="round" stroke-linejoin="round"/>
<path d="M71.5572 95.4686C73.6014 95.4686 75.243 97.1102 75.243 99.1545C75.243 101.199 73.6014 102.84 71.5572 102.84C69.5129 102.84 67.8713 101.199 67.8713 99.1545C67.8713 97.1412 69.5439 95.4686 71.5572 95.4686Z" stroke="#34A1FD" stroke-width="1.75588" stroke-miterlimit="10" stroke-linecap="round" stroke-linejoin="round"/>
<path d="M49.2565 173.738C51.2921 173.738 52.9423 172.088 52.9423 170.052C52.9423 168.017 51.2921 166.366 49.2565 166.366C47.2209 166.366 45.5707 168.017 45.5707 170.052C45.5707 172.088 47.2209 173.738 49.2565 173.738Z" stroke="#34A1FD" stroke-width="1.75588" stroke-miterlimit="10" stroke-linecap="round" stroke-linejoin="round"/>
<path d="M49.2565 142.734C51.3008 142.734 52.9423 144.375 52.9423 146.42C52.9423 148.464 51.3008 150.105 49.2565 150.105C47.2123 150.105 45.5707 148.464 45.5707 146.42C45.5707 144.375 47.2432 142.734 49.2565 142.734Z" stroke="#34A1FD" stroke-width="1.75588" stroke-miterlimit="10" stroke-linecap="round" stroke-linejoin="round"/>
<path d="M49.2565 126.473C51.2921 126.473 52.9423 124.823 52.9423 122.787C52.9423 120.751 51.2921 119.101 49.2565 119.101C47.2209 119.101 45.5707 120.751 45.5707 122.787C45.5707 124.823 47.2209 126.473 49.2565 126.473Z" stroke="#34A1FD" stroke-width="1.75588" stroke-miterlimit="10" stroke-linecap="round" stroke-linejoin="round"/>
<path d="M26.9865 173.738C29.0221 173.738 30.6723 172.088 30.6723 170.052C30.6723 168.017 29.0221 166.366 26.9865 166.366C24.9509 166.366 23.3007 168.017 23.3007 170.052C23.3007 172.088 24.9509 173.738 26.9865 173.738Z" stroke="#34A1FD" stroke-width="1.75588" stroke-miterlimit="10" stroke-linecap="round" stroke-linejoin="round"/>
<path d="M26.9865 142.734C29.0308 142.734 30.6724 144.375 30.6724 146.42C30.6724 148.464 29.0308 150.105 26.9865 150.105C24.9423 150.105 23.3007 148.464 23.3007 146.42C23.2697 144.375 24.9423 142.734 26.9865 142.734Z" stroke="#34A1FD" stroke-width="1.75588" stroke-miterlimit="10" stroke-linecap="round" stroke-linejoin="round"/>
<path d="M4.68583 166.367C6.73007 166.367 8.37157 168.008 8.37157 170.052C8.37157 172.097 6.73007 173.738 4.68583 173.738C2.64159 173.738 1 172.097 1 170.052C1 168.008 2.64159 166.367 4.68583 166.367Z" stroke="#34A1FD" stroke-width="1.75588" stroke-miterlimit="10" stroke-linecap="round" stroke-linejoin="round"/>
</svg>
