<svg width="191" height="181" viewBox="0 0 191 181" fill="none" xmlns="http://www.w3.org/2000/svg">
<path d="M185.77 9.06C187.996 9.06 189.8 7.25571 189.8 5.03C189.8 2.8043 187.996 1 185.77 1C183.544 1 181.74 2.8043 181.74 5.03C181.74 7.25571 183.544 9.06 185.77 9.06Z" stroke="white" stroke-width="0.8504" stroke-miterlimit="10" stroke-linecap="round" stroke-linejoin="round"/>
<path d="M155.92 5.03C155.92 2.8 157.73 1 159.95 1C162.18 1 163.98 2.81 163.98 5.03C163.98 7.26 162.17 9.06 159.95 9.06C157.72 9.06 155.92 7.26 155.92 5.03Z" stroke="white" stroke-width="0.8504" stroke-miterlimit="10" stroke-linecap="round" stroke-linejoin="round"/>
<path d="M134.13 9.06C136.356 9.06 138.16 7.25571 138.16 5.03C138.16 2.8043 136.356 1 134.13 1C131.904 1 130.1 2.8043 130.1 5.03C130.1 7.25571 131.904 9.06 134.13 9.06Z" stroke="white" stroke-width="0.8504" stroke-miterlimit="10" stroke-linecap="round" stroke-linejoin="round"/>
<path d="M104.28 5.03C104.28 2.8 106.09 1 108.31 1C110.54 1 112.34 2.81 112.34 5.03C112.34 7.26 110.53 9.06 108.31 9.06C106.08 9.06 104.28 7.26 104.28 5.03Z" stroke="white" stroke-width="0.8504" stroke-miterlimit="10" stroke-linecap="round" stroke-linejoin="round"/>
<path d="M82.4901 9.06C84.7158 9.06 86.52 7.25571 86.52 5.03C86.52 2.8043 84.7158 1 82.4901 1C80.2644 1 78.4601 2.8043 78.4601 5.03C78.4601 7.25571 80.2644 9.06 82.4901 9.06Z" stroke="white" stroke-width="0.8504" stroke-miterlimit="10" stroke-linecap="round" stroke-linejoin="round"/>
<path d="M52.64 5.03C52.64 2.8 54.45 1 56.67 1C58.9 1 60.7001 2.81 60.7001 5.03C60.7001 7.26 58.89 9.06 56.67 9.06C54.44 9.06 52.64 7.26 52.64 5.03Z" stroke="white" stroke-width="0.8504" stroke-miterlimit="10" stroke-linecap="round" stroke-linejoin="round"/>
<path d="M30.8501 9.06C33.0758 9.06 34.88 7.25571 34.88 5.03C34.88 2.8043 33.0758 1 30.8501 1C28.6244 1 26.8201 2.8043 26.8201 5.03C26.8201 7.25571 28.6244 9.06 30.8501 9.06Z" stroke="white" stroke-width="0.8504" stroke-miterlimit="10" stroke-linecap="round" stroke-linejoin="round"/>
<path d="M1 5.03C1 2.8 2.81003 1 5.03003 1C7.26003 1 9.06006 2.81 9.06006 5.03C9.06006 7.26 7.25003 9.06 5.03003 9.06C2.80003 9.06 1 7.26 1 5.03Z" stroke="white" stroke-width="0.8504" stroke-miterlimit="10" stroke-linecap="round" stroke-linejoin="round"/>
<path d="M185.77 33.43C187.996 33.43 189.8 31.6257 189.8 29.4C189.8 27.1743 187.996 25.37 185.77 25.37C183.544 25.37 181.74 27.1743 181.74 29.4C181.74 31.6257 183.544 33.43 185.77 33.43Z" stroke="white" stroke-width="0.8504" stroke-miterlimit="10" stroke-linecap="round" stroke-linejoin="round"/>
<path d="M155.92 29.4C155.92 27.17 157.73 25.37 159.95 25.37C162.18 25.37 163.98 27.18 163.98 29.4C163.98 31.62 162.17 33.43 159.95 33.43C157.72 33.43 155.92 31.63 155.92 29.4Z" stroke="white" stroke-width="0.8504" stroke-miterlimit="10" stroke-linecap="round" stroke-linejoin="round"/>
<path d="M134.13 33.43C136.356 33.43 138.16 31.6257 138.16 29.4C138.16 27.1743 136.356 25.37 134.13 25.37C131.904 25.37 130.1 27.1743 130.1 29.4C130.1 31.6257 131.904 33.43 134.13 33.43Z" stroke="white" stroke-width="0.8504" stroke-miterlimit="10" stroke-linecap="round" stroke-linejoin="round"/>
<path d="M104.28 29.4C104.28 27.17 106.09 25.37 108.31 25.37C110.54 25.37 112.34 27.18 112.34 29.4C112.34 31.62 110.53 33.43 108.31 33.43C106.08 33.43 104.28 31.63 104.28 29.4Z" stroke="white" stroke-width="0.8504" stroke-miterlimit="10" stroke-linecap="round" stroke-linejoin="round"/>
<path d="M82.4901 33.43C84.7158 33.43 86.52 31.6257 86.52 29.4C86.52 27.1743 84.7158 25.37 82.4901 25.37C80.2644 25.37 78.4601 27.1743 78.4601 29.4C78.4601 31.6257 80.2644 33.43 82.4901 33.43Z" stroke="white" stroke-width="0.8504" stroke-miterlimit="10" stroke-linecap="round" stroke-linejoin="round"/>
<path d="M52.64 29.4C52.64 27.17 54.45 25.37 56.67 25.37C58.9 25.37 60.7001 27.18 60.7001 29.4C60.7001 31.62 58.89 33.43 56.67 33.43C54.44 33.43 52.64 31.63 52.64 29.4Z" stroke="white" stroke-width="0.8504" stroke-miterlimit="10" stroke-linecap="round" stroke-linejoin="round"/>
<path d="M30.8501 33.43C33.0758 33.43 34.88 31.6257 34.88 29.4C34.88 27.1743 33.0758 25.37 30.8501 25.37C28.6244 25.37 26.8201 27.1743 26.8201 29.4C26.8201 31.6257 28.6244 33.43 30.8501 33.43Z" stroke="white" stroke-width="0.8504" stroke-miterlimit="10" stroke-linecap="round" stroke-linejoin="round"/>
<path d="M181.74 53.77C181.74 51.54 183.55 49.74 185.77 49.74C188 49.74 189.8 51.55 189.8 53.77C189.8 56 187.99 57.8 185.77 57.8C183.54 57.8 181.74 55.99 181.74 53.77Z" stroke="white" stroke-width="0.8504" stroke-miterlimit="10" stroke-linecap="round" stroke-linejoin="round"/>
<path d="M155.92 53.77C155.92 51.54 157.73 49.74 159.95 49.74C162.18 49.74 163.98 51.55 163.98 53.77C163.98 56 162.17 57.8 159.95 57.8C157.72 57.8 155.92 55.99 155.92 53.77Z" stroke="white" stroke-width="0.8504" stroke-miterlimit="10" stroke-linecap="round" stroke-linejoin="round"/>
<path d="M130.1 53.77C130.1 51.54 131.91 49.74 134.13 49.74C136.35 49.74 138.16 51.55 138.16 53.77C138.16 56 136.35 57.8 134.13 57.8C131.91 57.8 130.1 55.99 130.1 53.77Z" stroke="white" stroke-width="0.8504" stroke-miterlimit="10" stroke-linecap="round" stroke-linejoin="round"/>
<path d="M104.28 53.77C104.28 51.54 106.09 49.74 108.31 49.74C110.54 49.74 112.34 51.55 112.34 53.77C112.34 56 110.53 57.8 108.31 57.8C106.08 57.8 104.28 55.99 104.28 53.77Z" stroke="white" stroke-width="0.8504" stroke-miterlimit="10" stroke-linecap="round" stroke-linejoin="round"/>
<path d="M78.4601 53.77C78.4601 51.54 80.2701 49.74 82.4901 49.74C84.7101 49.74 86.52 51.55 86.52 53.77C86.52 56 84.7101 57.8 82.4901 57.8C80.2701 57.8 78.4601 55.99 78.4601 53.77Z" stroke="white" stroke-width="0.8504" stroke-miterlimit="10" stroke-linecap="round" stroke-linejoin="round"/>
<path d="M52.64 53.77C52.64 51.54 54.45 49.74 56.67 49.74C58.9 49.74 60.7001 51.55 60.7001 53.77C60.7001 56 58.89 57.8 56.67 57.8C54.44 57.8 52.64 55.99 52.64 53.77Z" stroke="white" stroke-width="0.8504" stroke-miterlimit="10" stroke-linecap="round" stroke-linejoin="round"/>
<path d="M185.77 82.17C187.996 82.17 189.8 80.3657 189.8 78.14C189.8 75.9143 187.996 74.11 185.77 74.11C183.544 74.11 181.74 75.9143 181.74 78.14C181.74 80.3657 183.544 82.17 185.77 82.17Z" stroke="white" stroke-width="0.8504" stroke-miterlimit="10" stroke-linecap="round" stroke-linejoin="round"/>
<path d="M155.92 78.14C155.92 75.91 157.73 74.11 159.95 74.11C162.18 74.11 163.98 75.92 163.98 78.14C163.98 80.37 162.17 82.17 159.95 82.17C157.72 82.17 155.92 80.36 155.92 78.14Z" stroke="white" stroke-width="0.8504" stroke-miterlimit="10" stroke-linecap="round" stroke-linejoin="round"/>
<path d="M134.13 82.17C136.356 82.17 138.16 80.3657 138.16 78.14C138.16 75.9143 136.356 74.11 134.13 74.11C131.904 74.11 130.1 75.9143 130.1 78.14C130.1 80.3657 131.904 82.17 134.13 82.17Z" stroke="white" stroke-width="0.8504" stroke-miterlimit="10" stroke-linecap="round" stroke-linejoin="round"/>
<path d="M104.28 78.14C104.28 75.91 106.09 74.11 108.31 74.11C110.54 74.11 112.34 75.92 112.34 78.14C112.34 80.36 110.53 82.17 108.31 82.17C106.08 82.17 104.28 80.36 104.28 78.14Z" stroke="white" stroke-width="0.8504" stroke-miterlimit="10" stroke-linecap="round" stroke-linejoin="round"/>
<path d="M82.4901 82.17C84.7158 82.17 86.52 80.3657 86.52 78.14C86.52 75.9143 84.7158 74.11 82.4901 74.11C80.2644 74.11 78.4601 75.9143 78.4601 78.14C78.4601 80.3657 80.2644 82.17 82.4901 82.17Z" stroke="white" stroke-width="0.8504" stroke-miterlimit="10" stroke-linecap="round" stroke-linejoin="round"/>
<path d="M185.77 106.54C187.996 106.54 189.8 104.736 189.8 102.51C189.8 100.284 187.996 98.48 185.77 98.48C183.544 98.48 181.74 100.284 181.74 102.51C181.74 104.736 183.544 106.54 185.77 106.54Z" stroke="white" stroke-width="0.8504" stroke-miterlimit="10" stroke-linecap="round" stroke-linejoin="round"/>
<path d="M155.92 102.51C155.92 100.28 157.73 98.48 159.95 98.48C162.18 98.48 163.98 100.29 163.98 102.51C163.98 104.74 162.17 106.54 159.95 106.54C157.72 106.54 155.92 104.73 155.92 102.51Z" stroke="white" stroke-width="0.8504" stroke-miterlimit="10" stroke-linecap="round" stroke-linejoin="round"/>
<path d="M134.13 106.54C136.356 106.54 138.16 104.736 138.16 102.51C138.16 100.284 136.356 98.48 134.13 98.48C131.904 98.48 130.1 100.284 130.1 102.51C130.1 104.736 131.904 106.54 134.13 106.54Z" stroke="white" stroke-width="0.8504" stroke-miterlimit="10" stroke-linecap="round" stroke-linejoin="round"/>
<path d="M104.28 102.5C104.28 100.27 106.09 98.47 108.31 98.47C110.54 98.47 112.34 100.28 112.34 102.5C112.34 104.73 110.53 106.53 108.31 106.53C106.08 106.54 104.28 104.73 104.28 102.5Z" stroke="white" stroke-width="0.8504" stroke-miterlimit="10" stroke-linecap="round" stroke-linejoin="round"/>
<path d="M185.77 130.9C187.996 130.9 189.8 129.096 189.8 126.87C189.8 124.644 187.996 122.84 185.77 122.84C183.544 122.84 181.74 124.644 181.74 126.87C181.74 129.096 183.544 130.9 185.77 130.9Z" stroke="white" stroke-width="0.8504" stroke-miterlimit="10" stroke-linecap="round" stroke-linejoin="round"/>
<path d="M155.92 126.87C155.92 124.64 157.73 122.84 159.95 122.84C162.18 122.84 163.98 124.65 163.98 126.87C163.98 129.1 162.17 130.9 159.95 130.9C157.72 130.91 155.92 129.1 155.92 126.87Z" stroke="white" stroke-width="0.8504" stroke-miterlimit="10" stroke-linecap="round" stroke-linejoin="round"/>
<path d="M134.13 130.9C136.356 130.9 138.16 129.096 138.16 126.87C138.16 124.644 136.356 122.84 134.13 122.84C131.904 122.84 130.1 124.644 130.1 126.87C130.1 129.096 131.904 130.9 134.13 130.9Z" stroke="white" stroke-width="0.8504" stroke-miterlimit="10" stroke-linecap="round" stroke-linejoin="round"/>
<path d="M185.77 155.27C187.996 155.27 189.8 153.466 189.8 151.24C189.8 149.014 187.996 147.21 185.77 147.21C183.544 147.21 181.74 149.014 181.74 151.24C181.74 153.466 183.544 155.27 185.77 155.27Z" stroke="white" stroke-width="0.8504" stroke-miterlimit="10" stroke-linecap="round" stroke-linejoin="round"/>
<path d="M155.92 151.24C155.92 149.01 157.73 147.21 159.95 147.21C162.18 147.21 163.98 149.02 163.98 151.24C163.98 153.46 162.17 155.27 159.95 155.27C157.72 155.28 155.92 153.47 155.92 151.24Z" stroke="white" stroke-width="0.8504" stroke-miterlimit="10" stroke-linecap="round" stroke-linejoin="round"/>
<path d="M181.74 175.61C181.74 173.38 183.55 171.58 185.77 171.58C188 171.58 189.8 173.39 189.8 175.61C189.8 177.84 187.99 179.64 185.77 179.64C183.54 179.65 181.74 177.84 181.74 175.61Z" stroke="white" stroke-width="0.8504" stroke-miterlimit="10" stroke-linecap="round" stroke-linejoin="round"/>
</svg>
