<svg width="301" height="301" viewBox="0 0 301 301" fill="none" xmlns="http://www.w3.org/2000/svg">
<path d="M150.393 4.29331L150.393 296.483" stroke="white" stroke-width="8.5039" stroke-miterlimit="10" stroke-linejoin="round"/>
<path d="M172.263 5.92331C181.313 16.6333 231.053 78.7633 231.053 150.393C231.053 222.023 181.313 284.153 172.263 294.863" stroke="white" stroke-width="8.5039" stroke-miterlimit="10" stroke-linejoin="round"/>
<path d="M128.523 5.92331C119.473 16.6333 69.7333 78.7633 69.7333 150.393C69.7333 222.023 119.473 284.143 128.523 294.863" stroke="white" stroke-width="8.5039" stroke-miterlimit="10" stroke-linejoin="round"/>
<path d="M4.30328 150.393L296.493 150.393" stroke="white" stroke-width="8.5039" stroke-miterlimit="10" stroke-linejoin="round"/>
<path d="M150.393 4.29331C231.033 4.29331 296.493 69.7633 296.493 150.393C296.493 231.033 231.033 296.493 150.393 296.493C69.7633 296.493 4.30328 231.033 4.30328 150.393C4.30328 69.7633 69.7633 4.29331 150.393 4.29331Z" stroke="white" stroke-width="8.5039" stroke-miterlimit="10" stroke-linejoin="round"/>
</svg>
