<svg width="311" height="255" viewBox="0 0 311 255" fill="none" xmlns="http://www.w3.org/2000/svg">
<g clip-path="url(#clip0_245_11417)">
<rect x="55.0461" width="161.243" height="372.1" fill="#1E2124"/>
<rect x="89.0535" width="127.528" height="371.956" fill="#2E3136"/>
<rect x="107.12" y="184.384" width="35.6015" height="7.97049" rx="3.98524" fill="#55585B"/>
<circle cx="102.071" cy="188.369" r="2.92251" fill="#55585B"/>
<line x1="89.0535" y1="23.9433" x2="216.609" y2="23.9433" stroke="#1F2125" stroke-width="2.0626"/>
<circle cx="72.5817" cy="23.9111" r="10.6273" fill="white"/>
<circle cx="72.5817" cy="81.8301" r="10.6273" fill="#2E3136"/>
<circle cx="72.5817" cy="108.399" r="10.6273" fill="#2E3136"/>
<circle cx="72.5817" cy="134.967" r="10.6273" fill="#2E3136"/>
<circle cx="72.5817" cy="161.536" r="10.6273" fill="#2E3136"/>
<circle cx="72.5817" cy="188.104" r="8.90849" stroke="#4B4D4F" stroke-width="3.43767"/>
<rect x="61.9543" y="44.6345" width="21.2546" height="21.2546" rx="4.81274" fill="#8A2EFF"/>
<rect x="119.341" y="239.115" width="58.4502" height="7.97049" rx="3.98524" fill="#55585B"/>
<circle cx="113.762" cy="243.1" r="2.92251" fill="#F86623"/>
<rect x="119.341" y="225.831" width="58.4502" height="7.97049" rx="3.98524" fill="#55585B"/>
<circle cx="113.762" cy="229.816" r="2.92251" fill="#F86623"/>
<rect x="119.341" y="212.547" width="58.4502" height="7.97049" rx="3.98524" fill="#55585B"/>
<circle cx="113.762" cy="216.531" r="2.92251" fill="#F86623"/>
<rect x="119.341" y="199.262" width="58.4502" height="7.97049" rx="3.98524" fill="#55585B"/>
<circle cx="113.762" cy="203.247" r="2.92251" fill="#F86623"/>
<rect x="119.341" y="157.284" width="58.4502" height="7.97049" rx="3.98524" fill="#55585B"/>
<circle cx="113.762" cy="161.27" r="2.92251" fill="#F86623"/>
<rect x="119.341" y="144" width="58.4502" height="7.97049" rx="3.98524" fill="#55585B"/>
<circle cx="113.762" cy="147.986" r="2.92251" fill="#8A2EFF"/>
<rect x="119.341" y="130.716" width="58.4502" height="7.97049" rx="3.98524" fill="#55585B"/>
<circle cx="113.762" cy="134.701" r="2.92251" fill="#F86623"/>
<rect x="119.341" y="117.432" width="58.4502" height="7.97049" rx="3.98524" fill="#55585B"/>
<circle cx="113.762" cy="121.417" r="2.92251" fill="#F86623"/>
<rect x="119.341" y="170.568" width="58.4502" height="7.97049" rx="3.98524" fill="#55585B"/>
<circle cx="113.762" cy="174.554" r="2.92251" fill="#34A1FD"/>
<rect x="107.12" y="103.616" width="79.7049" height="7.97049" rx="3.98524" fill="#55585B"/>
<circle cx="102.071" cy="107.602" r="2.92251" fill="#55585B"/>
<rect x="107.12" y="34.5387" width="65.8894" height="7.97049" rx="3.98524" fill="#55585B"/>
<circle cx="102.071" cy="38.5238" r="2.92251" fill="#55585B"/>
<rect x="107.12" y="57.9186" width="45.1661" height="7.97049" rx="3.98524" fill="#55585B"/>
<rect x="101.806" y="8.50195" width="69.0776" height="7.97049" rx="3.98524" fill="#55585B"/>
<circle cx="102.071" cy="61.9037" r="2.92251" fill="#55585B"/>
<rect x="107.12" y="81.2992" width="89.8008" height="7.97049" rx="3.98524" fill="#55585B"/>
<circle cx="102.071" cy="85.2838" r="2.92251" fill="#55585B"/>
<rect x="196.92" y="199.262" width="7.97049" height="7.97049" rx="3.98524" fill="#F86623"/>
<rect x="196.92" y="117.432" width="7.97049" height="7.97049" rx="3.98524" fill="#F86623"/>
<rect x="55.0461" width="161.243" height="372.1" fill="#2076FF" fill-opacity="0.5"/>
</g>
<path d="M119.087 254.059H118.385C118.666 246.127 117.192 240.968 113.858 238.335C110.524 235.703 104.943 235.528 97.1164 237.949C97.022 237.973 96.9217 237.961 96.8357 237.914C96.749 237.857 96.6865 237.769 96.6602 237.668C96.4429 236.257 95.8628 234.927 94.9769 233.807C94.0911 232.688 92.9297 231.817 91.6062 231.281C88.2369 229.912 84.0604 230.684 80.4805 233.316C71.7764 239.669 72.724 251.04 72.724 251.146C72.7254 251.218 72.7065 251.289 72.6693 251.351C72.6321 251.414 72.578 251.464 72.5134 251.497C72.4506 251.53 72.3783 251.542 72.3085 251.529C72.2383 251.516 72.1744 251.48 72.1274 251.427C67.5998 247.39 64.4411 245.811 61.879 246.267C59.317 246.724 57.0005 249.461 54.3683 254.059H53.561C56.4039 249.075 58.7203 246.092 61.7386 245.565C64.757 245.039 67.5998 246.583 71.987 250.374C71.9519 247.566 72.4432 238.335 80.0593 232.755C83.8498 229.982 88.272 229.175 91.8519 230.649C93.2312 231.187 94.4529 232.064 95.4037 233.199C96.3545 234.334 97.0038 235.69 97.2919 237.142C105.154 234.791 110.699 235.001 114.279 237.809C117.859 240.617 119.368 245.881 119.087 254.059Z" fill="#808AFF"/>
<path d="M309.875 254.059H252V235.984C265.477 223.138 280.849 231.983 281.867 241.529C297.204 231.562 311.629 239.529 309.875 254.059Z" fill="#404EED"/>
<path d="M252 206.362H99.1172V254.059H252V206.362Z" fill="#5865F2"/>
<path d="M99.1172 221.103L252 208.784V206.362H99.1172V221.103Z" fill="#4B59F2"/>
<path d="M252 206.362H250.877V254.059H252V206.362Z" fill="#3543DE"/>
<path d="M238.207 206.362H237.084V254.059H238.207V206.362Z" fill="#3543DE"/>
<path d="M224.413 206.362H223.29V254.059H224.413V206.362Z" fill="#3543DE"/>
<path d="M210.62 206.362H209.497V254.059H210.62V206.362Z" fill="#3543DE"/>
<path d="M196.792 206.362H195.669V254.059H196.792V206.362Z" fill="#3543DE"/>
<path d="M182.999 206.362H181.876V254.059H182.999V206.362Z" fill="#3543DE"/>
<path d="M169.207 206.362H168.083V254.059H169.207V206.362Z" fill="#3543DE"/>
<path d="M155.413 206.362H154.29V254.059H155.413V206.362Z" fill="#3543DE"/>
<path d="M141.62 206.362H140.497V254.059H141.62V206.362Z" fill="#3543DE"/>
<path d="M127.827 206.362H126.704V254.059H127.827V206.362Z" fill="#3543DE"/>
<path d="M114.033 206.362H112.91V254.059H114.033V206.362Z" fill="#3543DE"/>
<path d="M100.24 206.362H99.1172V254.059H100.24V206.362Z" fill="#3543DE"/>
<path d="M140.602 162.245C139.163 157.472 138.39 155.191 140.988 153.787C143.585 152.383 151.482 153.331 155.167 154.208C158.852 155.085 159.378 155.998 156.957 159.613L140.602 162.245Z" fill="#FFF4B3"/>
<path d="M138.918 205.169C138.356 190.99 138.707 179.197 139.163 172.915C136.812 171.37 135.724 170.177 135.267 169.51C135.173 169.382 135.124 169.225 135.131 169.065C135.137 168.906 135.198 168.753 135.303 168.633C139.023 163.965 142.217 159.894 145.551 157.998C148.885 156.103 153.448 155.612 160.713 162.842C160.782 162.934 160.817 163.049 160.81 163.164C160.804 163.279 160.757 163.389 160.678 163.474C160.101 164.046 159.491 164.585 158.853 165.088C160.327 167.72 162.468 171.721 162.468 171.721H164.152C165.232 171.721 166.268 172.15 167.031 172.914C167.795 173.677 168.224 174.713 168.224 175.793C168.259 179.057 167.487 182.988 165.977 188.041C172.716 193.517 171.066 205.134 171.066 205.134L138.918 205.169Z" fill="#29CC7A"/>
<path d="M165.977 188.041C166.188 187.304 166.398 186.638 166.574 185.936L161.274 188.884C161.274 188.884 152.886 183.233 138.812 179.723C138.567 186.251 138.531 195.096 138.917 205.169H171.066C171.066 205.169 172.716 193.517 165.977 188.041Z" fill="#8CD9FF"/>
<path d="M167.311 189.34C166.901 188.872 166.455 188.438 165.977 188.041C166.188 187.304 166.398 186.638 166.574 185.936L161.274 188.884C161.274 188.884 152.886 183.233 138.812 179.723C138.777 180.531 138.742 181.408 138.742 182.285C149.516 186.743 155.307 194.394 155.974 205.169H163.941C165.345 198.992 166.468 193.587 167.311 189.34Z" fill="#BAE8FF"/>
<path d="M143.059 175.617H143.199C143.269 175.547 143.339 175.512 143.374 175.407L146.428 165.544C146.448 165.503 146.46 165.458 146.461 165.411C146.462 165.365 146.453 165.319 146.435 165.277C146.416 165.235 146.389 165.197 146.354 165.166C146.319 165.136 146.279 165.113 146.234 165.1C146.19 165.087 146.143 165.084 146.098 165.091C146.052 165.098 146.008 165.115 145.97 165.14C145.932 165.166 145.899 165.2 145.875 165.239C145.851 165.279 145.836 165.323 145.831 165.369L142.883 174.915C141.609 174.372 140.388 173.714 139.233 172.95H139.163C139.163 173.16 139.128 173.406 139.128 173.617C140.34 174.397 141.621 175.066 142.953 175.617H143.059Z" fill="black"/>
<path d="M156.116 159.753L143.551 160.666C157.59 163.333 158.186 163.719 156.116 159.753Z" fill="black"/>
<path d="M163.065 196.535L161.731 184.076C161.705 183.855 161.596 183.653 161.426 183.51C161.257 183.367 161.04 183.293 160.818 183.303H159.485L158.888 182.145C158.703 181.826 158.411 181.584 158.064 181.461C157.716 181.339 157.336 181.345 156.993 181.478C156.639 181.629 156.352 181.903 156.186 182.25C153.553 187.901 152.255 197.202 152.009 198.957C152.003 199.039 152.024 199.121 152.068 199.19C152.112 199.26 152.178 199.313 152.255 199.343L159.836 201.764C159.878 201.787 159.925 201.796 159.973 201.791C160.02 201.787 160.065 201.768 160.102 201.738C160.14 201.709 160.167 201.669 160.182 201.623C160.197 201.578 160.198 201.53 160.187 201.484L159.906 197.939L162.714 197.061C162.824 197.029 162.921 196.959 162.985 196.862C163.049 196.766 163.077 196.65 163.065 196.535Z" fill="#EB459F"/>
<path d="M156.572 186.603L155.413 198.711" stroke="#D11583" stroke-width="0.70194" stroke-miterlimit="10" stroke-linecap="round"/>
<path d="M152.975 168.882C153.46 168.686 153.547 167.77 153.17 166.835C152.792 165.901 152.093 165.302 151.608 165.498C151.122 165.694 151.035 166.611 151.413 167.545C151.79 168.48 152.49 169.079 152.975 168.882Z" fill="black"/>
<path d="M156.593 170.823C157.219 169.641 157.143 168.374 156.424 167.993C155.704 167.612 154.614 168.261 153.988 169.443C153.362 170.625 153.438 171.892 154.157 172.273C154.877 172.654 155.967 172.005 156.593 170.823Z" stroke="white" stroke-width="0.70194" stroke-miterlimit="10"/>
<path d="M161.761 170.83C162.387 169.648 162.311 168.381 161.592 168C160.872 167.619 159.782 168.269 159.156 169.451C158.53 170.633 158.606 171.9 159.325 172.28C160.045 172.661 161.135 172.012 161.761 170.83Z" stroke="white" stroke-width="0.70194" stroke-miterlimit="10"/>
<path d="M158.211 168.713C158.535 168.582 158.503 167.748 158.139 166.849C157.777 165.95 157.22 165.328 156.896 165.459C156.573 165.589 156.605 166.424 156.968 167.322C157.331 168.221 157.888 168.844 158.211 168.713Z" fill="black"/>
<path d="M161.555 177.898C158.845 177.907 156.216 176.977 154.114 175.266C151.938 173.476 152.816 173.265 154.185 173.23C155.553 173.195 162.116 173.441 164.012 173.722C165.907 174.002 166.258 177.758 161.555 177.898Z" fill="#912869"/>
<path d="M161.555 177.898C158.845 177.907 156.216 176.977 154.114 175.266C151.938 173.476 152.816 173.265 154.185 173.23C155.553 173.195 162.116 173.441 164.012 173.722C165.907 174.002 166.258 177.758 161.555 177.898Z" fill="#611B46"/>
<path d="M161.414 181.829L161.274 180.531C162.265 180.452 163.232 180.177 164.117 179.723" stroke="black" stroke-width="0.70194" stroke-linecap="round" stroke-linejoin="round"/>
<path d="M162.853 177.723C160.958 175.898 158.396 174.529 153.658 174.845C157.729 178.6 161.976 177.968 162.853 177.723Z" fill="#EB459F"/>
<path d="M156.817 169.58H158.958" stroke="white" stroke-width="0.70194" stroke-miterlimit="10"/>
<path d="M153.588 170.002L144.533 166.316C144.343 166.243 144.138 166.216 143.936 166.239C143.733 166.262 143.539 166.333 143.37 166.447C143.201 166.56 143.062 166.713 142.966 166.892C142.868 167.071 142.816 167.271 142.813 167.475C142.809 167.714 142.877 167.949 143.008 168.15C143.14 168.35 143.329 168.506 143.55 168.598L144.147 168.878" stroke="white" stroke-width="0.70194" stroke-miterlimit="10" stroke-linecap="round"/>
<path d="M151.693 165.404C152.405 165.422 153.116 165.327 153.798 165.123" stroke="black" stroke-width="0.70194" stroke-miterlimit="10" stroke-linecap="round"/>
<path d="M156.958 165.404C157.406 165.415 157.852 165.319 158.256 165.123" stroke="black" stroke-width="0.70194" stroke-miterlimit="10" stroke-linecap="round"/>
<path d="M141.795 161.017C154.325 160.841 158.572 159.437 162.152 158.139C165.732 156.84 165.381 155.822 162.643 155.928C159.905 156.033 150.535 159.613 141.795 161.017Z" fill="#FFF4B3"/>
<path d="M138.706 183.409L138.636 186.848L140.356 186.181C140.356 186.181 149.516 182.356 151.692 181.829C153.868 181.303 155.939 182.321 159.063 183.514C162.186 184.707 161.379 185.795 160.396 186.848C159.414 187.901 159.449 187.831 154.289 187.831C144.427 194.956 141.409 199.132 137.373 199.132C134.951 199.132 132.88 198.044 131.336 193.271C129.792 188.498 132.67 186.322 138.706 183.409Z" fill="#29CC7A"/>
<path d="M173.066 187.34L167.802 180.987L158.817 189.937L165.169 195.237C165.099 195.833 165.169 196.289 165.485 196.605C166.433 197.553 169.206 196.325 171.698 193.868C174.189 191.411 175.383 188.603 174.435 187.656C174.119 187.34 173.663 187.27 173.066 187.34Z" fill="white"/>
<path d="M164.491 186.665C166.959 184.198 168.425 181.664 167.767 181.007C167.11 180.349 164.576 181.815 162.109 184.283C159.642 186.75 158.175 189.283 158.833 189.941C159.491 190.599 162.024 189.132 164.491 186.665Z" fill="white"/>
<path d="M163.881 186.063C166.115 183.829 167.615 181.707 167.231 181.323C166.847 180.939 164.725 182.439 162.491 184.673C160.257 186.907 158.757 189.03 159.14 189.414C159.524 189.797 161.647 188.297 163.881 186.063Z" fill="#BAE8FF"/>
<path d="M172.575 184.672C174.084 184.883 174.681 186.251 174.084 188.077C174.017 188.271 173.9 188.444 173.746 188.58C173.591 188.716 173.404 188.81 173.203 188.852C173.002 188.895 172.793 188.884 172.596 188.822C172.401 188.76 172.224 188.648 172.084 188.498C171.737 188.13 171.526 187.653 171.488 187.149C171.45 186.644 171.586 186.142 171.873 185.725L172.575 184.672Z" fill="#29CC7A"/>
<path d="M169.943 183.619C169.873 184.918 169.101 186.216 168.54 187.058C168.388 187.295 168.319 187.575 168.345 187.855C168.37 188.134 168.488 188.397 168.68 188.603L168.961 188.848C169.052 188.942 169.161 189.016 169.282 189.067C169.403 189.117 169.532 189.143 169.663 189.143C169.793 189.143 169.923 189.117 170.043 189.067C170.164 189.016 170.273 188.942 170.365 188.848C171.422 187.883 172.167 186.625 172.505 185.233C172.927 183.338 171.558 182.004 169.171 182.636L169.943 183.619Z" fill="#29CC7A"/>
<path d="M141.795 161.016L146.077 160.666L156.361 158.63L153.799 156.103H141.55L141.795 161.016Z" fill="#FFF4B3"/>
<path d="M162.538 173.967L160.081 173.827C160.362 175.301 161.064 176.073 161.661 175.828C162.257 175.582 162.468 174.283 162.538 173.967Z" fill="white"/>
<path d="M154.957 173.651C155.273 175.336 155.905 176.214 156.501 175.933C157.098 175.652 157.238 174.248 157.344 173.687L154.957 173.651Z" fill="white"/>
<path d="M257.65 206.362H95.8179" stroke="#2835BD" stroke-width="2.80776" stroke-linecap="round" stroke-linejoin="round"/>
<path d="M159.028 189.235C159.055 189.307 159.104 189.369 159.169 189.41C159.204 189.41 159.204 189.41 159.204 189.445C159.204 189.48 161.731 188.217 163.907 186.041V185.971L162.538 184.637L161.415 183.479L159.941 183.549L157.063 182.461L156.958 182.707C158.186 183.128 158.432 187.55 159.028 189.235Z" fill="#EB459F"/>
<path d="M159.484 183.338C160.077 184.537 160.604 185.767 161.064 187.024C161.088 187.08 161.127 187.13 161.176 187.166C161.225 187.203 161.283 187.227 161.345 187.234H161.45C161.524 187.203 161.585 187.149 161.623 187.078C161.661 187.008 161.674 186.927 161.66 186.848C161.625 186.743 160.853 184.707 160.151 183.338H159.484Z" fill="#D11583"/>
<path d="M159.906 198.009H159.835L157.133 198.816C157.083 198.831 157.038 198.858 157.001 198.895C156.964 198.932 156.937 198.977 156.922 199.027C156.912 199.084 156.917 199.143 156.935 199.198C156.954 199.253 156.985 199.303 157.028 199.343L159.414 201.413C159.429 201.447 159.454 201.476 159.485 201.494C159.516 201.513 159.553 201.522 159.59 201.519C159.636 201.52 159.682 201.511 159.724 201.493C159.767 201.475 159.804 201.448 159.835 201.413C159.864 201.382 159.886 201.344 159.9 201.304C159.913 201.263 159.919 201.22 159.916 201.178C159.912 201.135 159.9 201.094 159.881 201.055C159.861 201.018 159.833 200.984 159.8 200.957L157.835 199.237L159.941 198.606L159.906 198.009Z" fill="#D11583"/>
<path d="M138.531 186.743L133.583 189.094" stroke="black" stroke-width="0.70194" stroke-linecap="round" stroke-linejoin="round"/>
<path d="M157.8 156.981C152.39 158.43 146.907 159.59 141.374 160.455" stroke="#FFC619" stroke-width="0.70194" stroke-miterlimit="10" stroke-linecap="round"/>
<path d="M162.186 190.604L165.977 194.078C166.096 194.183 166.246 194.246 166.404 194.259C166.562 194.271 166.72 194.233 166.854 194.148C166.939 194.088 167.01 194.009 167.061 193.918C167.112 193.827 167.142 193.725 167.148 193.621C167.155 193.517 167.139 193.412 167.1 193.315C167.061 193.218 167.001 193.131 166.925 193.06L163.239 189.516C163.127 189.413 162.986 189.348 162.835 189.329C162.684 189.311 162.531 189.339 162.397 189.41L162.292 189.48C162.198 189.537 162.119 189.615 162.06 189.708C162.002 189.801 161.966 189.906 161.956 190.015C161.946 190.125 161.961 190.235 162.001 190.337C162.041 190.439 162.105 190.53 162.186 190.604Z" fill="#BAE8FF"/>
<path d="M171.698 187.761C172.338 186.911 172.738 185.905 172.856 184.848" stroke="black" stroke-width="0.70194" stroke-linecap="round" stroke-linejoin="round"/>
<path d="M202.825 139.233C203.145 137.715 202.143 136.22 200.588 135.892C199.033 135.564 197.513 136.528 197.193 138.046C196.873 139.563 197.875 141.059 199.43 141.387C200.986 141.714 202.506 140.75 202.825 139.233Z" fill="#2A39D4"/>
<path d="M221.605 165.298C224.168 165.439 227.256 166.492 231.117 170.774C233.293 168.598 234.346 169.194 237.259 171.686C240.172 174.178 246.419 178.916 247.963 180.495C249.508 182.075 250.666 185.479 246.454 188.041C242.243 190.603 234.767 185.9 230.836 183.163C226.905 180.425 221.605 177.231 221.605 177.231V165.298Z" fill="#2331B5"/>
<path d="M236.1 170.703C237.121 172.385 237.979 174.159 238.662 176.003C239.469 178.53 238.452 180.004 236.381 181.724C234.31 183.444 233.468 183.058 232.38 182.18C232.314 182.143 232.237 182.13 232.163 182.145C232.089 182.159 232.022 182.2 231.975 182.259C231.928 182.319 231.904 182.393 231.908 182.469C231.911 182.544 231.942 182.616 231.994 182.671C232.55 183.16 233.255 183.444 233.994 183.479C234.872 183.479 235.749 183.058 236.802 182.18C238.592 180.671 240.277 178.951 239.224 175.792C238.833 174.656 238.352 173.553 237.785 172.493C237.564 172.068 237.266 171.687 236.907 171.37L236.1 170.703Z" fill="#3442D9"/>
<path d="M230.801 181.198C232.696 183.023 237.224 186.252 237.224 186.252" stroke="black" stroke-width="0.70194" stroke-miterlimit="10" stroke-linecap="round"/>
<path d="M212.193 164.85C221.272 162.264 226.742 153.533 224.411 145.35C222.08 137.166 212.83 132.628 203.751 135.214C194.673 137.8 189.203 146.531 191.534 154.715C193.865 162.899 203.115 167.436 212.193 164.85Z" fill="#FF78B9"/>
<path d="M196.02 148.347C196.02 151.716 197.634 154.699 199.635 155.015C201.635 155.331 202.127 153.576 202.197 150.312C202.197 149.47 202.232 148.628 202.302 147.75C202.513 144.732 201.425 143.082 199.635 142.801C197.845 142.521 196.02 144.977 196.02 148.347Z" fill="white"/>
<path d="M210.9 148.557C210.553 148.106 210.348 147.561 210.31 146.992C210.273 146.424 210.405 145.857 210.69 145.363C213.498 140.59 216.06 140.415 217.885 140.52C219.71 140.625 221.114 142.345 219.605 146.697C221.745 149.013 220.868 151.154 217.815 151.435C214.761 151.716 213.112 151.47 210.9 148.557Z" fill="#D11583"/>
<path d="M230.976 195.341C231.398 183.83 227.712 182.356 227.361 178.916C227.01 175.477 226.659 170.844 222.869 165.86C222.869 165.86 223.325 161.192 223.571 158.068C223.577 157.946 223.556 157.823 223.51 157.709C223.463 157.595 223.392 157.492 223.302 157.409C223.212 157.325 223.104 157.262 222.987 157.225C222.87 157.187 222.745 157.176 222.623 157.191C220.164 157.583 217.672 157.735 215.183 157.647C210.901 157.507 205.11 157.086 198.933 163.087L200.933 165.895L200.793 166.141C200.694 166.31 200.633 166.499 200.615 166.694C200.598 166.89 200.623 167.087 200.69 167.271C200.757 167.455 200.864 167.623 201.003 167.761C201.142 167.899 201.31 168.005 201.495 168.071L201.881 168.211C201.881 168.211 196.23 171.616 197.915 179.302C199.6 186.988 197.81 194.429 200.653 196.71C201.228 197.167 201.911 197.469 202.636 197.586C203.361 197.702 204.105 197.631 204.794 197.377L217.815 204.326C222.553 209.556 229.292 215.417 229.292 215.417L224.097 227.806L229.572 241.599C234.24 230.158 240.382 218.927 241.47 213.732C242.558 208.538 239.049 205.485 230.976 195.341Z" fill="#2331B5"/>
<path d="M225.852 234.545C228.449 226.508 231.362 219.243 232.24 217.137C232.314 216.952 232.33 216.749 232.286 216.554C232.242 216.36 232.14 216.184 231.994 216.049C224.413 208.784 222.623 206.292 222.623 206.292" stroke="#3442D9" stroke-width="0.70194" stroke-miterlimit="10"/>
<path d="M205.812 190.393L201.109 187.199C201.109 187.199 203.951 183.303 205.531 180.952L205.917 180.355C205.932 180.32 205.954 180.288 205.982 180.261C206.01 180.235 206.043 180.214 206.079 180.201C206.116 180.188 206.154 180.182 206.193 180.185C206.231 180.187 206.269 180.197 206.303 180.215C206.368 180.245 206.42 180.296 206.452 180.36C206.484 180.424 206.493 180.496 206.478 180.566C205.461 186.778 205.812 190.393 205.812 190.393Z" fill="black"/>
<path d="M223.501 158.665C221.009 159.508 217.71 159.473 213.779 159.367C209.848 159.262 205.882 159.157 199.389 163.719L200.442 165.229C206.443 160.982 209.672 161.087 213.744 161.192C217.815 161.298 220.693 161.333 223.36 160.631C223.395 159.964 223.465 159.297 223.501 158.665Z" fill="#3442D9"/>
<path d="M221.605 194.78C221.684 194.78 221.759 194.752 221.817 194.7C221.876 194.648 221.913 194.576 221.921 194.499C221.991 188.848 219.851 183.092 218.938 180.881C217.98 178.604 217.399 176.186 217.218 173.721C216.938 170.528 216.271 168.036 215.85 167.053L217.043 157.647H216.411L215.218 167.158V167.229C215.604 168.071 216.306 170.563 216.587 173.792C216.772 176.312 217.352 178.787 218.306 181.127C219.254 183.303 221.36 188.954 221.29 194.464C221.29 194.548 221.323 194.628 221.382 194.687C221.442 194.746 221.522 194.78 221.605 194.78Z" fill="black"/>
<path d="M241.892 249.531C241.767 249.346 241.6 249.192 241.405 249.083C241.21 248.973 240.992 248.91 240.769 248.9C240.979 247.636 240.734 246.583 239.084 246.197C237.18 245.786 235.204 245.846 233.328 246.373C230.099 238.09 223.712 216.259 219.254 200.325L204.794 197.377C204.654 201.343 207.251 210.082 209.146 217.593C211.042 225.104 215.218 240.827 216.376 246.513C217.078 249.952 218.096 254.059 218.096 254.059H231.503C235.434 254.059 240.488 252.515 241.471 251.742C242.453 250.97 242.243 250.163 241.892 249.531Z" fill="#2331B5"/>
<path d="M220.377 245.952C216.236 232.896 210.199 215.347 206.514 197.518" stroke="#3442D9" stroke-width="0.70194" stroke-miterlimit="10"/>
<path d="M213.498 195.342C213.568 194.324 212.164 190.498 210.48 187.725C208.795 184.953 207.953 182.987 206.373 183.9C204.794 184.812 201.109 187.199 201.109 187.199C201.109 187.199 203.951 183.303 205.531 180.952C208.935 175.828 207.742 168.773 201.881 168.212C197.072 170.879 196.335 173.16 191.773 181.197C187.21 189.235 184.508 197.798 189.421 201.343C194.335 204.888 199.073 202.431 207.917 198.535C211.743 196.886 213.463 196.394 213.498 195.342Z" fill="#2331B5"/>
<path d="M207.988 198.009C207.005 197.553 206.127 196.079 205.075 193.06C203.32 187.971 202.863 186.427 203.951 185.374L203.285 185.795C203.127 185.89 202.996 186.024 202.904 186.183C202.811 186.343 202.762 186.523 202.758 186.708C202.723 188.041 203.39 190.007 204.513 193.271C205.215 195.306 205.847 196.675 206.514 197.518C206.767 197.874 207.137 198.132 207.559 198.247C207.981 198.362 208.431 198.328 208.83 198.149C208.542 198.177 208.251 198.129 207.988 198.009Z" fill="#3442D9"/>
<path d="M210.479 187.726C208.83 184.953 207.952 182.987 206.373 183.9C204.794 184.813 196.721 189.902 196.721 189.902" stroke="black" stroke-width="0.70194" stroke-miterlimit="10" stroke-linecap="round"/>
<path d="M228.625 167.545C227.541 160.251 227.129 152.873 227.396 145.504C227.404 145.268 227.357 145.035 227.258 144.821C227.16 144.607 227.012 144.419 226.828 144.273C226.644 144.126 226.428 144.024 226.198 143.976C225.967 143.928 225.729 143.934 225.501 143.995L216.762 146.451" stroke="#66BCFF" stroke-width="1.40388" stroke-miterlimit="10" stroke-linecap="round"/>
<path d="M223.009 168.142C223.851 169.756 225.36 172.634 225.676 173.582C225.782 175.056 225.711 177.583 225.711 178.355C225.715 178.426 225.741 178.495 225.785 178.551C225.829 178.607 225.889 178.649 225.957 178.671C228.344 179.022 229.362 179.057 230.344 178.951C231.327 178.846 232.696 178.39 233.643 178.109C233.744 178.07 233.826 177.993 233.871 177.895C233.917 177.797 233.923 177.685 233.889 177.583C233.012 174.705 232.415 172.634 232.415 172.634C232.239 169.054 232.204 166.211 232.204 165.264C232.204 165.171 232.168 165.081 232.102 165.015C232.036 164.949 231.947 164.913 231.853 164.913C228.589 164.702 227.466 164.702 226.273 164.772C225.08 164.842 224.694 165.544 223.044 167.51C222.971 167.597 222.928 167.706 222.921 167.82C222.915 167.934 222.946 168.047 223.009 168.142Z" fill="white"/>
<path d="M233.538 177.828C233.538 177.828 233.924 177.969 233.644 178.109C233.744 178.07 233.826 177.993 233.872 177.895C233.918 177.797 233.924 177.685 233.889 177.583C233.012 174.705 232.415 172.634 232.415 172.634C232.24 169.054 232.205 166.211 232.205 165.264C232.205 165.171 232.168 165.081 232.102 165.015C232.036 164.949 231.947 164.913 231.854 164.913C228.59 164.702 227.466 164.702 226.273 164.772C226.019 164.789 225.771 164.849 225.536 164.948L228.625 171.476L228.414 177.477L233.538 177.828Z" fill="#FFE75C"/>
<path d="M228.8 177.653C229.397 179.794 229.923 181.303 231.257 181.584C232.591 181.864 234.17 180.496 236.206 178.46C238.241 176.424 237.539 174.705 236.662 173.09C235.784 171.476 235.644 169.44 234.556 168.598C233.209 167.607 231.762 166.76 230.239 166.071C229.011 165.544 228.274 165.544 226.414 167.65C224.553 169.756 223.465 170.984 223.781 171.827C224.097 172.669 224.624 173.582 224.624 173.582C223.781 174.424 223.781 175.126 224.132 176.003C224.483 176.881 224.624 177.688 226.414 177.688L228.8 177.653Z" fill="#FF78B9"/>
<path d="M224.694 173.195L229.607 168.563" stroke="black" stroke-width="0.70194" stroke-miterlimit="10" stroke-linecap="round"/>
<path d="M229.187 175.021C228.083 175.717 226.934 176.338 225.747 176.881C225.712 177.548 225.712 178.074 225.712 178.355C225.716 178.427 225.741 178.495 225.785 178.552C225.829 178.608 225.89 178.649 225.958 178.671C228.344 179.022 229.362 179.057 230.345 178.952C231.327 178.846 232.696 178.39 233.644 178.109C233.745 178.07 233.826 177.993 233.872 177.895C233.918 177.797 233.924 177.685 233.89 177.583L233.679 176.881C232.113 176.443 230.604 175.819 229.187 175.021Z" fill="white"/>
<path d="M233.678 176.881C232.112 176.443 230.604 175.819 229.186 175.021L228.484 175.477L228.414 177.407C228.423 177.432 228.437 177.454 228.455 177.472C228.473 177.49 228.495 177.504 228.519 177.513L233.538 177.829C233.538 177.829 233.924 177.969 233.643 178.109C233.748 178.071 233.836 177.997 233.889 177.899C233.889 177.864 233.924 177.793 233.924 177.758C233.93 177.698 233.917 177.637 233.889 177.583L233.678 176.916V176.881Z" fill="#FFE75C"/>
<path d="M207.602 184.777C208.706 183.492 209.52 181.984 209.988 180.355C210.339 179.302 210.725 177.793 210.866 177.232C211.006 176.67 211.673 176.354 212.48 176.53C213.287 176.705 213.638 176.845 213.498 178.284C213.357 179.723 213.042 183.128 213.042 183.128L207.602 184.777Z" fill="#FF78B9"/>
<path d="M223.746 185.62C223.22 184.181 222.974 183.444 222.518 182.847C222.062 182.25 221.64 182.145 219.605 182.04C218.798 182.005 217.253 182.04 216.235 182.075C218.236 181.549 220.377 181.092 220.833 180.952C221.289 180.811 222.202 180.671 221.886 179.794C221.57 178.916 221.289 178.706 220.798 178.706C219.539 178.681 218.28 178.787 217.043 179.022C215.237 179.375 213.464 179.88 211.743 180.531C210.725 180.952 209.427 182.847 207.602 184.777C208.409 187.62 210.339 191.972 212.305 194.043C214.902 193.025 216.446 190.779 217.078 189.937C220.342 189.375 221.465 189.726 223.29 189.972C224.413 190.112 224.518 189.305 224.589 188.919C224.659 188.533 224.202 186.953 223.746 185.62Z" fill="#FF78B9"/>
<path d="M197.072 148.382C196.967 149.856 197.458 151.084 198.16 151.154C198.862 151.225 199.213 150.663 199.248 149.294C199.264 148.716 199.335 148.14 199.459 147.574C199.705 146.346 199.178 145.89 198.581 145.855C197.985 145.82 197.178 146.943 197.072 148.382Z" fill="black"/>
<path d="M209.111 131.044C209.839 130.893 210.598 131.013 211.244 131.381C211.89 131.749 212.38 132.341 212.621 133.045C213.147 134.694 213.603 137.186 210.796 137.642C209.602 137.818 208.374 137.291 206.479 135.817C205.11 134.729 203.636 134.343 200.442 135.993C198.722 134.799 199.565 131.746 204.232 133.29C202.197 130.658 202.794 128.833 204.268 128.306C205.742 127.78 207.953 128.061 209.111 131.044Z" fill="#2A39D4"/>
<path d="M209.111 136.098C208.093 134.834 207.251 133.15 206.549 131.711C205.847 130.272 205.145 128.763 204.373 128.306H204.268C203.992 128.403 203.74 128.559 203.531 128.763L203.776 128.692C204.443 128.763 205.18 130.307 205.988 131.956C206.795 133.606 207.567 135.15 208.62 136.484C208.974 136.903 209.374 137.279 209.813 137.607C210.137 137.671 210.469 137.683 210.796 137.642H210.831C210.184 137.215 209.605 136.695 209.111 136.098Z" fill="black"/>
<path d="M212.656 136.589C212.505 136.81 212.315 137 212.094 137.151C211.928 134.821 210.887 132.64 209.181 131.044C209.445 130.98 209.719 130.968 209.988 131.009C211.457 132.532 212.393 134.49 212.656 136.589Z" fill="black"/>
<path d="M216.235 245.741C216.27 246.022 216.341 246.268 216.376 246.513C217.078 249.953 218.095 254.059 218.095 254.059H231.503C235.433 254.059 240.487 252.515 241.47 251.743C242.453 250.971 242.242 250.163 241.891 249.532C241.766 249.346 241.6 249.193 241.404 249.083C241.21 248.973 240.992 248.911 240.768 248.9C240.979 247.637 240.733 246.584 239.084 246.198C237.179 245.787 235.204 245.847 233.328 246.373C232.836 245.074 232.24 243.46 231.608 241.6C225.712 241.495 219.71 241.003 216.235 245.741Z" fill="#45AAF7"/>
<path d="M216.235 245.741C216.27 246.022 216.341 246.268 216.376 246.513C217.078 249.953 218.095 254.059 218.095 254.059H231.503C235.433 254.059 240.487 252.515 241.47 251.743C242.453 250.971 242.242 250.163 241.891 249.532C241.766 249.346 241.6 249.193 241.404 249.083C241.21 248.973 240.992 248.911 240.768 248.9C240.979 247.637 240.733 246.584 239.084 246.198C237.179 245.787 235.204 245.847 233.328 246.373C232.836 245.074 232.24 243.46 231.608 241.6C225.712 241.495 219.71 241.003 216.235 245.741Z" fill="#45AAF7"/>
<path d="M233.328 246.373L232.871 246.478H232.801L228.976 247.25C228.914 247.169 228.878 247.071 228.87 246.969C228.582 245.977 228.428 244.95 228.414 243.916C228.379 241.775 227.256 241.564 225.325 241.6L225.431 241.354C225.69 240.674 226.153 240.09 226.756 239.682C227.358 239.274 228.072 239.061 228.8 239.073H231.994C232.181 239.075 232.365 239.118 232.534 239.198C232.702 239.279 232.852 239.394 232.972 239.538C233.092 239.681 233.179 239.848 233.229 240.028C233.278 240.209 233.288 240.398 233.257 240.582C232.871 242.231 232.766 244.267 233.152 245.776C233.19 245.981 233.248 246.181 233.328 246.373Z" fill="#8CD9FF"/>
<path d="M219.781 248.514C219.304 248.354 218.8 248.293 218.299 248.335C217.798 248.377 217.311 248.522 216.868 248.759C216.898 248.973 216.945 249.185 217.008 249.391C217.386 249.154 217.811 249.004 218.254 248.949C218.697 248.894 219.146 248.938 219.57 249.075C221.536 249.742 222.975 252.304 223.712 254.059H224.378C223.606 252.234 222.062 249.286 219.781 248.514Z" fill="#5865F2"/>
<path d="M241.786 251.426L241.47 251.742C240.487 252.514 235.433 254.059 231.503 254.059H223.5V253.918C232.696 253.778 238.943 249.952 241.084 249.952C241.786 249.952 242.207 251.005 241.786 251.426Z" fill="black"/>
<path d="M232.977 176.389C233.477 177.06 234.198 177.533 235.012 177.723" stroke="black" stroke-width="0.70194" stroke-miterlimit="10" stroke-linecap="round"/>
<path d="M217.57 173.687C217.22 173.688 216.883 173.56 216.623 173.326C216.364 173.093 216.201 172.771 216.166 172.423L215.885 169.229H216.517L218.377 172.283C218.456 172.425 218.496 172.586 218.494 172.749C218.493 172.911 218.449 173.071 218.368 173.212C218.287 173.353 218.171 173.47 218.031 173.554C217.891 173.637 217.733 173.683 217.57 173.687Z" fill="#FFE75C"/>
<path d="M201.881 168.212H205.321" stroke="black" stroke-width="0.70194" stroke-miterlimit="10" stroke-linecap="round"/>
<path d="M221.43 208.082C221.009 206.573 220.377 204.432 220.377 204.432C223.199 202.592 225.886 200.551 228.414 198.325C228.414 198.325 225.501 204.783 224.203 210.784L221.43 208.082Z" fill="black"/>
<path d="M229.291 215.417L232.696 215.277" stroke="black" stroke-width="0.70194" stroke-miterlimit="10" stroke-linecap="round"/>
<path d="M233.328 246.373L232.871 246.478H232.801C231.276 246.838 229.776 247.295 228.309 247.847H228.204C228.141 247.843 228.081 247.822 228.031 247.784C227.981 247.747 227.943 247.695 227.923 247.636C227.906 247.6 227.897 247.56 227.897 247.52C227.897 247.48 227.906 247.44 227.922 247.403C227.939 247.367 227.963 247.334 227.994 247.308C228.024 247.281 228.06 247.262 228.098 247.25L228.87 246.934C230.271 246.447 231.701 246.049 233.152 245.741C233.187 245.958 233.246 246.169 233.328 246.373Z" fill="black"/>
<path d="M223.852 185.901L223.746 185.62L223.606 185.269C220.553 184.953 217.359 184.743 214.235 185.058C214.194 185.063 214.154 185.076 214.117 185.096C214.08 185.116 214.048 185.143 214.022 185.176C213.996 185.208 213.977 185.246 213.965 185.286C213.954 185.326 213.95 185.368 213.954 185.409C213.959 185.451 213.972 185.491 213.992 185.528C214.012 185.564 214.039 185.597 214.072 185.622C214.104 185.649 214.142 185.668 214.182 185.68C214.222 185.691 214.264 185.695 214.305 185.69C217.464 185.339 220.728 185.585 223.852 185.901Z" fill="black"/>
<path d="M200.021 146.803L197.985 147.785L200.828 149.084L200.021 146.803Z" fill="white"/>
<path d="M241.786 251.427C241.997 251.146 241.751 250.97 241.084 250.97C238.943 250.97 232.696 253.919 223.5 254.059H218.096L217.709 252.515C221.921 252.515 226.519 252.445 230.801 251.076C235.082 249.707 237.925 248.549 240.768 248.9C240.992 248.911 241.21 248.973 241.405 249.083C241.6 249.192 241.766 249.346 241.891 249.531C242.082 249.816 242.174 250.155 242.155 250.497C242.136 250.838 242.007 251.165 241.786 251.427Z" fill="white"/>
<path d="M230.8 240.195H231.222C232.204 240.195 232.871 240.23 233.082 240.476C233.292 240.722 233.187 240.827 233.117 241.178C233.147 240.975 233.194 240.776 233.257 240.581C233.288 240.363 233.231 240.142 233.1 239.964C232.969 239.787 232.773 239.668 232.555 239.634H230.8C229.186 239.634 227.361 239.634 226.413 241.704C226.629 241.699 226.843 241.735 227.045 241.81C227.852 240.16 229.291 240.195 230.8 240.195Z" fill="#3442D9"/>
<path d="M217.569 144.872C217.113 145.609 216.306 146.452 214.516 146.803C216.972 146.522 218.025 147.891 218.025 147.891" stroke="black" stroke-width="0.70194" stroke-linecap="round" stroke-linejoin="round"/>
<path d="M171.838 254.059H148.499V249.145C148.495 247.876 148.986 246.655 149.867 245.741L152.184 243.495C152.481 243.215 152.718 242.878 152.88 242.504C153.044 242.13 153.129 241.727 153.131 241.319V235.703C153.134 234.579 153.517 233.488 154.218 232.609C154.919 231.73 155.897 231.113 156.992 230.86C160.747 229.912 164.643 229.737 167.837 230.369C168.967 230.603 169.982 231.219 170.711 232.114C171.44 233.009 171.838 234.128 171.838 235.282V254.059Z" fill="#45AAF7"/>
<path d="M154.5 244.653H154.641C154.696 244.656 154.75 244.645 154.8 244.62C154.849 244.595 154.891 244.559 154.921 244.513C155.974 242.477 155.974 239.318 155.974 235.949C155.974 232.58 156.29 231.316 158.536 230.474L157.343 230.719C157.035 230.789 156.747 230.926 156.498 231.12C156.249 231.314 156.047 231.561 155.904 231.843C155.413 232.825 155.343 234.124 155.343 235.949C155.343 239.248 155.343 242.337 154.36 244.232C154.336 244.267 154.321 244.308 154.315 244.35C154.309 244.393 154.314 244.436 154.327 244.477C154.341 244.517 154.363 244.554 154.393 244.585C154.423 244.615 154.46 244.639 154.5 244.653Z" fill="#BAE8FF"/>
<path d="M171.838 235.282C171.836 234.123 171.433 233 170.698 232.104C169.962 231.209 168.938 230.596 167.802 230.368C165.925 230.046 164.017 229.94 162.116 230.053C157.624 230.368 158.291 233.211 158.291 237.353V240.898C158.292 242.082 157.978 243.246 157.378 244.267C156.711 245.355 156.536 246.689 156.536 249.286V254.059H171.838V235.282Z" fill="#3F99F2"/>
<path d="M166.222 248.408C166.011 242.301 163.239 236.967 160.431 231.878C160.359 231.777 160.317 231.658 160.309 231.534C160.301 231.41 160.328 231.287 160.386 231.177C160.445 231.068 160.532 230.977 160.639 230.915C160.746 230.853 160.869 230.822 160.993 230.825H161.694C161.842 230.833 161.985 230.875 162.113 230.948C162.241 231.021 162.35 231.123 162.431 231.246C165.309 236.545 168.328 242.056 168.538 248.408C168.644 251.602 166.222 254.059 162.993 254.059H160.677C163.906 254.059 166.327 251.602 166.222 248.408Z" fill="#3543DE"/>
<path d="M172.821 248.408C172.61 242.301 169.803 236.967 167.03 231.878C166.958 231.777 166.916 231.658 166.908 231.534C166.9 231.41 166.927 231.287 166.985 231.177C167.044 231.068 167.131 230.977 167.238 230.915C167.345 230.853 167.468 230.822 167.592 230.825H168.294C168.437 230.83 168.576 230.871 168.699 230.944C168.822 231.018 168.924 231.122 168.996 231.246C171.909 236.545 174.892 242.056 175.138 248.408C175.172 249.151 175.052 249.892 174.787 250.586C174.522 251.28 174.116 251.911 173.596 252.442C173.075 252.972 172.451 253.389 171.762 253.668C171.074 253.946 170.335 254.079 169.592 254.059H167.276C168.019 254.079 168.757 253.946 169.446 253.668C170.135 253.389 170.759 252.972 171.279 252.442C171.8 251.911 172.205 251.28 172.471 250.586C172.736 249.892 172.855 249.151 172.821 248.408Z" fill="#3543DE"/>
<path d="M167.1 238.932L174.225 240.161C174.786 241.635 175.067 242.617 175.137 243.565C175.208 244.513 174.295 245.039 172.891 245.601C171.884 246.021 170.957 246.616 170.154 247.355C168.118 249.145 166.398 250.233 163.415 250.233C162.818 250.233 162.397 250.268 162.046 249.882C161.674 249.463 161.453 248.929 161.422 248.369C161.39 247.808 161.548 247.253 161.871 246.794C162.232 246.304 162.67 245.877 163.169 245.53C164.23 244.842 165.126 243.929 165.793 242.855C166.461 241.782 166.883 240.574 167.03 239.318C167.065 239.143 167.065 239.037 167.1 238.932Z" fill="#DE3A93"/>
<path d="M172.891 245.601C173.483 245.379 174.039 245.072 174.541 244.688C175.207 244.056 174.927 243.46 173.488 243.495C172.049 243.53 170.54 244.653 167.521 246.513C164.503 248.373 160.011 250.234 163.415 250.234C166.82 250.234 168.118 249.146 170.153 247.356C170.957 246.616 171.883 246.022 172.891 245.601Z" fill="black"/>
<path d="M166.328 236.791C165.801 236.896 165.871 237.493 166.152 238.09C165.591 239.143 165.942 239.564 166.925 239.985C168.91 240.66 171.008 240.946 173.102 240.827C175.243 240.617 175.102 239.915 174.891 239.213C175.628 238.581 175.523 237.844 174.786 237.528C174.049 237.212 170.083 235.984 166.328 236.791Z" fill="#66BCFF"/>
<path d="M182.157 200.15H172.961V205.165H182.157V200.15Z" fill="white"/>
<path d="M200.863 200.255C201.039 200.968 201.05 201.712 200.896 202.43C200.742 203.149 200.426 203.822 199.973 204.401C199.52 204.979 198.941 205.447 198.28 205.768C197.62 206.09 196.895 206.257 196.16 206.257H186.122L181.419 208.889V208.749C179.278 208.749 178.05 208.047 178.998 200.185C178.577 197.974 176.611 189.27 175.523 182.777C174.541 176.845 176.752 174.669 182.859 171.23C185.456 163.509 192.194 163.965 193.493 168.598C194.791 173.23 199.073 192.92 200.863 200.255Z" fill="#66BCFF"/>
<path d="M182.016 211.381L180.402 211.662C180.323 211.677 180.248 211.71 180.183 211.757C180.117 211.803 180.063 211.864 180.023 211.934C179.983 212.004 179.958 212.081 179.951 212.162C179.944 212.242 179.954 212.323 179.981 212.399L180.332 213.276C175.453 213.557 171.207 213.978 169.522 215.452C167.837 216.926 167.837 219.172 167.065 225.876C166.293 232.579 165.03 236.58 167.065 237.493C169.132 238.38 171.392 238.719 173.628 238.476C175.875 238.265 176.085 237.107 176.541 233.632C176.998 230.158 178.085 222.436 178.085 222.436H195.809C200.196 222.436 202.794 219.558 203.391 217.102C203.812 215.347 203.25 211.205 202.232 206.292H186.123L181.419 208.924L181.77 210.433L182.016 211.381Z" fill="#3442D9"/>
<path d="M196.792 206.362C198.547 215.136 198.898 221.735 192.229 224.753" stroke="#2330BF" stroke-width="0.70194" stroke-miterlimit="10"/>
<path d="M182.999 201.94C182.999 201.94 183.736 206.257 184.754 211.381C185.912 217.277 185.596 217.067 177.559 217.593C170.504 218.049 171.136 217.698 169.662 225.735C169.1 228.894 168.118 234.615 168.398 237.774C168.398 237.774 168.083 239.634 168.153 240.02" stroke="#2467D4" stroke-width="0.70194" stroke-linecap="round" stroke-linejoin="round"/>
<path d="M178.085 222.437C174.19 221.84 172.294 218.33 172.294 218.33" stroke="black" stroke-width="0.70194" stroke-linecap="round" stroke-linejoin="round"/>
<path d="M178.086 222.437C177.289 221.967 176.592 221.343 176.038 220.602C175.484 219.861 175.082 219.017 174.857 218.12" stroke="black" stroke-width="0.70194" stroke-linecap="round" stroke-linejoin="round"/>
<path d="M200.863 200.255C199.951 196.464 198.336 189.445 196.827 182.882L188.965 182.285L182.894 186.567L179.384 191.27L177.594 193.692C178.226 196.71 178.752 199.167 178.963 200.22C178.015 208.082 179.243 208.784 181.384 208.784L187.597 206.151L201.987 205.133C201.636 203.554 201.249 201.905 200.863 200.255Z" fill="#EB459F"/>
<path d="M184.778 196.304C185.221 193.686 184.991 191.463 184.265 191.34C183.539 191.218 182.591 193.241 182.148 195.859C181.705 198.477 181.935 200.699 182.661 200.822C183.387 200.945 184.335 198.922 184.778 196.304Z" fill="black"/>
<path d="M180.191 189.796C180.542 189.164 180.929 188.532 181.315 187.971C185.281 182.25 189.001 180.706 192.581 180.706H197.038C197.105 180.708 197.17 180.725 197.228 180.757C197.286 180.788 197.337 180.834 197.374 180.888C197.412 180.943 197.436 181.006 197.445 181.072C197.454 181.138 197.447 181.205 197.424 181.267L196.827 182.882C189.983 182.882 187.562 182.671 181.876 188.638L179.385 191.27L180.191 189.796Z" fill="#D11583"/>
<path d="M201.987 205.134H190.369C187.772 205.134 184.578 204.993 181.384 208.784L181.77 210.433C183.63 208.643 185.35 207.871 189.071 207.871H202.548L201.987 205.134Z" fill="black"/>
<path d="M181.876 188.849C179.524 189.27 177.664 190.498 176.611 192.674C176.312 193.278 175.881 193.806 175.348 194.218L169.03 198.816C168.32 199.32 167.825 200.072 167.643 200.924C167.462 201.775 167.606 202.664 168.048 203.414C168.356 203.94 168.797 204.376 169.327 204.678C169.857 204.98 170.456 205.137 171.066 205.134H173.698C179.173 202.08 181.7 200.009 182.999 198.816C184.298 197.623 185.737 195.482 185.491 193.025C185.245 190.568 184.543 188.357 181.876 188.849Z" fill="white"/>
<path d="M183.841 170.704C182.999 169.3 181.876 167.44 181.455 166.562C181.034 165.685 180.016 165.895 181.455 169.826C177.945 168.492 177.208 168.984 177.033 169.475C176.857 169.967 177.629 170.212 179.103 171.055C180.577 171.897 182.157 172.915 182.157 172.915L183.841 170.704Z" fill="#66BCFF"/>
<path d="M187.491 170.809C188.088 170.072 188.299 169.265 187.948 168.984C187.597 168.703 187.21 168.843 186.684 169.545C186.457 169.831 186.211 170.101 185.947 170.353C185.35 170.914 185.491 171.335 185.771 171.581C186.052 171.827 186.895 171.546 187.491 170.809Z" fill="black"/>
<path d="M193.457 168.633C193.457 168.633 189.281 166.737 187.491 165.579C185.701 164.421 184.788 162.701 185.596 162.245C186.403 161.789 187.948 162.877 189.036 164.281C189 161.789 189.422 161.262 190.088 161.227C190.755 161.192 190.825 162.175 190.86 163.579C190.895 164.983 191.141 165.544 192.194 166.492C192.825 167.059 193.265 167.806 193.457 168.633Z" fill="#3442D9"/>
<path d="M178.121 180.285C177.138 180.285 176.296 179.443 177.068 177.969C177.84 176.495 180.367 175.021 181.595 174.459C182.823 173.898 183.385 174.459 183.42 174.88C183.455 175.302 183.28 175.933 182.402 177.056C181.525 178.179 179.911 180.285 178.121 180.285Z" fill="white"/>
<path d="M178.892 180.18L178.296 180.285L177.454 177.407L177.945 176.881L178.892 180.18Z" fill="#8CD9FF"/>
<path d="M181.069 178.635L180.578 179.127L179.595 175.582L180.121 175.231L181.069 178.635Z" fill="#8CD9FF"/>
<path d="M183.034 176.179L182.578 176.81L181.876 174.354L182.472 174.248L183.034 176.179Z" fill="#8CD9FF"/>
<path d="M182.262 173.932C182.911 174.243 183.58 174.512 184.263 174.74" stroke="black" stroke-width="0.70194" stroke-linecap="round" stroke-linejoin="round"/>
<path d="M181.384 213.031L185.245 217.734" stroke="black" stroke-width="0.70194" stroke-linecap="round" stroke-linejoin="round"/>
<path d="M184.403 211.627H183.034L182.613 209.696L182.227 207.906C182.582 207.558 182.957 207.23 183.35 206.924L183.806 208.889L184.403 211.627Z" fill="#3442D9"/>
<path d="M190.475 209.767H189.106L188.685 207.871L188.124 205.204H189.492L190.054 207.906L190.475 209.767Z" fill="#3442D9"/>
<path d="M201.671 209.696H200.302L199.881 207.871L199.319 205.134H200.688L201.249 207.871L201.671 209.696Z" fill="#3442D9"/>
<path d="M197.915 187.515C197.244 186.982 196.421 186.675 195.564 186.638C193.739 186.638 192.721 188.427 192.37 190.147C192.314 190.423 192.165 190.671 191.947 190.85C191.73 191.029 191.458 191.127 191.177 191.13H190.931C190.773 191.101 190.622 191.04 190.488 190.951C190.354 190.862 190.239 190.747 190.151 190.613C190.062 190.478 190.001 190.327 189.973 190.169C189.944 190.01 189.948 189.848 189.984 189.691C190.651 186.357 192.827 184.216 195.564 184.216C196.017 184.221 196.455 184.381 196.806 184.668C197.156 184.955 197.399 185.352 197.495 185.795L197.915 187.515Z" fill="white"/>
<path d="M200.863 200.255C200.941 200.569 200.953 200.895 200.901 201.214C200.848 201.533 200.732 201.838 200.558 202.11C200.384 202.383 200.156 202.617 199.889 202.799C199.622 202.981 199.32 203.107 199.004 203.168L198.126 203.239C196.126 203.239 194.054 202.045 192.44 199.974C192.343 199.845 192.273 199.699 192.233 199.542C192.193 199.386 192.184 199.223 192.207 199.064C192.23 198.904 192.284 198.75 192.366 198.612C192.448 198.473 192.557 198.352 192.686 198.255C192.813 198.153 192.96 198.079 193.117 198.036C193.274 197.994 193.438 197.983 193.599 198.006C193.76 198.029 193.914 198.085 194.053 198.17C194.192 198.255 194.312 198.367 194.405 198.5C195.529 199.939 196.898 200.817 198.126 200.817C199.354 200.817 200.092 200.115 200.618 199.202C200.688 199.588 200.793 199.939 200.863 200.255Z" fill="#2331B5"/>
<path d="M198.512 190.218C198.264 190.219 198.023 190.297 197.822 190.442C197.621 190.586 197.469 190.79 197.389 191.025L195.915 194.991C195.786 195.363 195.789 195.768 195.923 196.139C196.057 196.51 196.315 196.823 196.652 197.026C196.805 197.12 196.977 197.179 197.155 197.197C197.333 197.216 197.513 197.193 197.682 197.133C197.85 197.072 198.003 196.974 198.128 196.846C198.254 196.719 198.349 196.564 198.407 196.395L199.355 193.833C199.109 192.674 198.828 191.481 198.512 190.218Z" fill="#5865F2"/>
<path d="M196.652 197.026C196.315 196.823 196.057 196.51 195.923 196.139C195.789 195.768 195.786 195.363 195.915 194.991L196.336 193.903C196.407 193.713 196.518 193.541 196.661 193.397C196.804 193.254 196.977 193.144 197.167 193.074C197.357 193.004 197.56 192.976 197.762 192.992C197.964 193.008 198.16 193.067 198.337 193.166C198.625 193.334 198.847 193.598 198.962 193.912C199.077 194.226 199.079 194.57 198.968 194.885L198.407 196.395C198.349 196.564 198.254 196.719 198.128 196.846C198.003 196.974 197.85 197.072 197.682 197.133C197.513 197.193 197.333 197.216 197.155 197.197C196.977 197.179 196.805 197.12 196.652 197.026Z" fill="#FFE75C"/>
<path d="M178.05 202.642C176.926 203.423 175.664 203.983 174.33 204.292" stroke="#A3D7FF" stroke-width="0.70194" stroke-linecap="round" stroke-linejoin="round"/>
<path d="M191.633 254.059H185.491C181.736 254.059 178.261 251.041 177.735 247.32C177.208 243.6 179.595 241.635 183.631 240.757L184.333 240.582C184.901 240.463 185.403 240.131 185.736 239.655C186.068 239.179 186.207 238.594 186.123 238.02C186.055 237.461 185.799 236.941 185.397 236.546C184.996 236.15 184.472 235.903 183.912 235.844L182.894 235.738C178.542 235.282 175.664 232.72 175.138 229C174.611 225.279 177.208 222.437 180.858 222.437H187C190.756 222.437 194.23 225.455 194.757 229.175L197.354 247.496C197.845 251.111 195.283 254.059 191.633 254.059Z" fill="#ADB4FF"/>
<path d="M198.757 254.059H192.615C188.86 254.059 185.385 251.041 184.859 247.32C184.645 245.951 184.941 244.552 185.692 243.387C186.443 242.222 187.595 241.373 188.93 241.003C189.423 240.871 189.85 240.561 190.128 240.134C190.407 239.706 190.518 239.191 190.439 238.686L190.264 237.353C190.197 236.928 190.003 236.534 189.709 236.221C189.415 235.909 189.034 235.691 188.614 235.598C185.42 234.931 182.718 232.229 182.262 229C181.805 225.771 184.332 222.437 187.983 222.437H194.125C197.88 222.437 201.354 225.455 201.881 229.175L204.478 247.496C204.969 251.111 202.407 254.059 198.757 254.059Z" fill="white"/>
<path d="M197.213 228.614C197.239 228.789 197.226 228.968 197.176 229.138C197.125 229.308 197.039 229.465 196.922 229.598C196.805 229.732 196.661 229.838 196.499 229.911C196.338 229.983 196.162 230.019 195.985 230.018H189.527C189.137 230.007 188.763 229.861 188.469 229.605C188.174 229.349 187.978 228.998 187.913 228.614V228.403C187.881 228.231 187.888 228.055 187.934 227.886C187.98 227.718 188.063 227.562 188.178 227.43C188.293 227.299 188.436 227.194 188.597 227.126C188.757 227.057 188.931 227.026 189.106 227.034H195.599C195.984 227.043 196.354 227.185 196.648 227.433C196.942 227.683 197.141 228.025 197.213 228.403V228.614Z" fill="#66BCFF"/>
<path d="M194.405 231.211C194.437 231.384 194.429 231.562 194.383 231.732C194.337 231.902 194.254 232.06 194.14 232.194C194.026 232.329 193.884 232.436 193.723 232.509C193.563 232.581 193.388 232.617 193.212 232.615H193.037C192.647 232.604 192.272 232.458 191.978 232.202C191.684 231.946 191.487 231.595 191.422 231.211L190.65 225.806C190.624 225.632 190.637 225.455 190.687 225.286C190.738 225.118 190.825 224.963 190.942 224.832C191.059 224.702 191.204 224.598 191.366 224.53C191.528 224.462 191.703 224.43 191.879 224.437H192.054C192.439 224.446 192.809 224.587 193.103 224.836C193.397 225.085 193.596 225.427 193.668 225.806L194.405 231.211Z" fill="#66BCFF"/>
<path d="M195.212 239.353C195.222 239.425 195.217 239.498 195.197 239.568C195.177 239.638 195.143 239.703 195.097 239.759C195.051 239.815 194.994 239.861 194.929 239.894C194.864 239.927 194.793 239.946 194.721 239.95H194.616C194.454 239.937 194.302 239.872 194.181 239.764C194.061 239.657 193.979 239.512 193.949 239.353L193.633 237.107C193.622 237.034 193.628 236.959 193.65 236.888C193.672 236.818 193.71 236.753 193.76 236.699C193.811 236.645 193.873 236.603 193.942 236.577C194.011 236.55 194.085 236.54 194.16 236.546H194.229C194.389 236.543 194.545 236.599 194.667 236.702C194.79 236.805 194.871 236.949 194.896 237.107L195.212 239.353Z" fill="#ADB4FF"/>
<path d="M195.072 246.443C194.687 246.434 194.317 246.293 194.023 246.044C193.73 245.795 193.53 245.452 193.458 245.074V244.863C193.426 244.692 193.433 244.515 193.479 244.346C193.525 244.178 193.609 244.022 193.723 243.891C193.838 243.759 193.981 243.655 194.142 243.586C194.302 243.518 194.477 243.487 194.651 243.495H194.827C195.207 243.502 195.573 243.638 195.866 243.88C196.159 244.122 196.362 244.457 196.441 244.828V245.074C196.467 245.248 196.454 245.425 196.404 245.593C196.354 245.762 196.267 245.917 196.149 246.048C196.032 246.178 195.887 246.281 195.725 246.35C195.563 246.418 195.388 246.45 195.213 246.443H195.072Z" fill="#66BCFF"/>
<path d="M195.985 251.673H195.81C195.423 251.67 195.049 251.531 194.754 251.281C194.459 251.031 194.261 250.685 194.195 250.304V249.988C194.18 249.819 194.201 249.65 194.256 249.49C194.312 249.331 194.401 249.184 194.517 249.062C194.633 248.939 194.774 248.842 194.93 248.778C195.087 248.714 195.255 248.684 195.423 248.689H195.599C195.979 248.697 196.345 248.833 196.639 249.075C196.932 249.317 197.134 249.651 197.213 250.023V250.269C197.245 250.445 197.237 250.626 197.189 250.799C197.141 250.972 197.055 251.131 196.937 251.266C196.819 251.401 196.673 251.508 196.508 251.578C196.343 251.648 196.164 251.681 195.985 251.673Z" fill="#FF78B9"/>
<path d="M195.248 246.443H195.072C194.687 246.434 194.317 246.293 194.023 246.044C193.73 245.795 193.53 245.452 193.458 245.074V244.863C193.426 244.692 193.433 244.515 193.479 244.346C193.525 244.178 193.609 244.022 193.723 243.891C193.838 243.759 193.981 243.655 194.142 243.586C194.302 243.518 194.477 243.487 194.651 243.495H194.827C195.207 243.502 195.573 243.638 195.866 243.88C196.159 244.122 196.362 244.457 196.441 244.828V245.074C196.467 245.245 196.455 245.419 196.406 245.585C196.358 245.75 196.274 245.904 196.16 246.034C196.047 246.164 195.906 246.268 195.749 246.339C195.592 246.409 195.42 246.445 195.248 246.443Z" fill="#5865F2"/>
<path d="M198.582 249.04C198.197 249.031 197.827 248.89 197.533 248.641C197.239 248.392 197.04 248.049 196.968 247.671V247.46C196.935 247.289 196.943 247.112 196.989 246.944C197.035 246.775 197.118 246.619 197.233 246.488C197.348 246.356 197.491 246.252 197.652 246.183C197.812 246.115 197.986 246.084 198.161 246.092H198.337C198.717 246.099 199.083 246.235 199.376 246.477C199.669 246.719 199.872 247.054 199.951 247.425V247.671C199.983 247.843 199.976 248.02 199.93 248.188C199.884 248.357 199.8 248.512 199.685 248.644C199.571 248.776 199.427 248.88 199.267 248.948C199.106 249.017 198.932 249.048 198.757 249.04H198.582Z" fill="#66BCFF"/>
<path d="M198.757 249.04H198.582C198.197 249.031 197.827 248.89 197.533 248.641C197.239 248.392 197.04 248.049 196.968 247.671V247.46C196.935 247.289 196.943 247.112 196.989 246.944C197.035 246.775 197.118 246.619 197.233 246.488C197.348 246.356 197.491 246.252 197.652 246.183C197.812 246.115 197.986 246.084 198.161 246.092H198.337C198.717 246.099 199.083 246.235 199.376 246.477C199.669 246.719 199.872 247.054 199.951 247.425V247.671C199.983 247.843 199.976 248.02 199.93 248.188C199.884 248.357 199.8 248.512 199.685 248.644C199.571 248.776 199.427 248.88 199.267 248.948C199.106 249.017 198.932 249.048 198.757 249.04Z" fill="#5865F2"/>
<path d="M192.475 249.11H192.265C191.879 249.098 191.509 248.951 191.221 248.695C190.932 248.438 190.743 248.088 190.685 247.707V247.391C190.665 247.224 190.681 247.055 190.732 246.896C190.784 246.736 190.869 246.589 190.982 246.466C191.096 246.342 191.235 246.245 191.389 246.181C191.544 246.116 191.711 246.086 191.879 246.092H192.089C192.468 246.109 192.83 246.254 193.117 246.502C193.404 246.751 193.598 247.088 193.669 247.461V247.671C193.706 247.847 193.703 248.029 193.659 248.204C193.616 248.378 193.534 248.541 193.42 248.679C193.305 248.817 193.16 248.928 192.997 249.003C192.833 249.077 192.655 249.114 192.475 249.11Z" fill="#FF78B9"/>
<path d="M135.513 247.04L132.108 245.144C134.781 240.744 137.723 236.512 140.918 232.474C134.635 234.756 128.037 237.599 120.737 237.599H108.523C107.786 236.089 107.575 234.545 107.575 232.229L122.492 226.789L128.142 227.947L128.318 229.561C133.723 228.193 139.303 226.613 143.339 225.666C148.428 224.472 150.148 227.034 147.2 231.316C141.514 239.599 135.513 247.04 135.513 247.04Z" fill="#29CC7A"/>
<path d="M111.893 230.825C111.893 233.808 111.893 235.914 113.332 237.107C113.678 237.421 114.128 237.596 114.595 237.599H116.069C112.489 237.002 112.489 235.072 112.524 230.825V230.544C112.524 230.509 112.489 230.474 112.489 230.439L111.893 230.649V230.825Z" fill="#15AD75"/>
<path d="M135.513 245.46C140.988 238.23 144.498 233.211 145.972 230.86C147.446 228.508 147.937 227.034 140.497 229.561C133.056 232.088 127.405 234.369 125.756 233.738C124.106 233.106 124.703 231.421 124.808 228.438" stroke="#15AD75" stroke-width="0.70194" stroke-linecap="round" stroke-linejoin="round"/>
<path d="M113.612 211.381C111.096 207.508 109.024 203.364 107.435 199.027C107.21 198.305 107.16 197.541 107.288 196.797C107.416 196.053 107.719 195.349 108.172 194.745C110.734 191.656 114.103 190.007 118.596 189.235C119.085 189.181 119.576 189.319 119.965 189.621C125.299 194.289 126.879 199.553 127.791 204.677C127.814 204.973 127.762 205.27 127.639 205.54C127.516 205.81 127.327 206.044 127.089 206.222C124.457 207.836 123.053 208.327 123.053 208.327L123.58 212.223L113.612 211.381Z" fill="#FFE75C"/>
<path d="M118.701 198.29C121.331 198.534 123.945 198.932 126.528 199.483L127.967 199.869C128.02 199.884 128.068 199.912 128.107 199.951C128.146 199.99 128.174 200.039 128.188 200.092C128.202 200.145 128.202 200.202 128.188 200.255C128.174 200.308 128.146 200.356 128.107 200.396L127.791 200.676L128.353 202.852C128.534 203.518 128.488 204.225 128.221 204.861C127.954 205.497 127.481 206.026 126.879 206.362L125.58 207.099L118.701 198.29Z" fill="#FFE75C"/>
<path d="M119.826 200.876C120.494 200.41 120.361 199.066 119.529 197.873C118.697 196.681 117.482 196.092 116.814 196.558C116.147 197.024 116.28 198.368 117.111 199.56C117.943 200.752 119.159 201.341 119.826 200.876Z" fill="#FF78B9"/>
<path d="M123.966 196.008C123.545 195.622 123.088 195.517 122.913 195.693C122.737 195.868 122.843 196.149 123.229 196.43L123.685 196.886C124.001 197.237 124.247 197.167 124.387 196.991C124.527 196.816 124.387 196.359 123.966 196.008Z" fill="black"/>
<path d="M110.032 192.885C109.471 187.234 110.032 185.339 111.226 183.689C112.419 182.04 113.121 182.531 112.91 184.707C112.782 186.413 112.794 188.127 112.945 189.831C113.983 187.172 115.493 184.723 117.403 182.601C117.968 181.915 118.726 181.414 119.579 181.162C120.421 180.952 120.877 181.443 120.632 182.25C120.21 183.619 119.193 185.795 116.455 189.691L116.736 191.235L110.032 192.885Z" fill="#FFE75C"/>
<path d="M126.423 214.715C129.406 215.733 127.3 225.069 127.3 225.069L127.722 225.384C128.066 225.648 128.31 226.022 128.412 226.443C128.514 226.865 128.469 227.309 128.283 227.701L128.143 227.947C126.072 227.947 124.703 228.122 121.895 230.123C119.088 232.123 117.298 232.228 114.42 232.228H107.576V229.912C105.014 228.894 104.803 227.666 105.786 226.086C106.312 225.174 107.155 223.91 107.786 222.963C108.029 222.601 108.197 222.194 108.282 221.766C108.366 221.338 108.364 220.898 108.278 220.471C107.716 217.453 108.172 215.663 108.172 215.663L115.613 213.662L125.054 213.276L126.423 214.715Z" fill="#2331B5"/>
<path d="M126.203 223.312C127.102 223.074 127.418 221.317 126.908 219.386C126.398 217.456 125.255 216.084 124.356 216.322C123.456 216.559 123.14 218.317 123.65 220.247C124.16 222.177 125.303 223.549 126.203 223.312Z" fill="black"/>
<path d="M130.775 245.355C131.617 244.477 133.442 243.003 133.442 243.003C134.6 243.003 136.355 243.214 137.127 246.408L138.075 250.163C141.69 250.83 141.725 251.848 141.234 253.182V253.778C141.234 253.853 141.204 253.924 141.151 253.977C141.099 254.029 141.027 254.059 140.953 254.059H134.916L130.775 245.355Z" fill="white"/>
<path d="M140.953 254.059C141.027 254.059 141.099 254.029 141.151 253.977C141.204 253.924 141.234 253.852 141.234 253.778V253.181C138.847 253.181 137.092 253.427 136.215 251.883C135.273 250.014 134.441 248.092 133.723 246.127C133.407 245.214 132.74 244.126 131.722 244.442L130.775 245.355L134.916 254.059H140.953Z" fill="#FF78B9"/>
<path d="M138.391 254.059C137.756 254.069 137.129 253.916 136.57 253.615C136.011 253.314 135.538 252.875 135.197 252.339C133.898 250.374 133.091 248.022 132.6 246.583C132.108 245.144 130.529 244.583 130.388 246.408C130.248 248.233 131.196 249.637 132.67 253.287C132.751 253.518 132.904 253.717 133.106 253.856C133.308 253.994 133.548 254.066 133.793 254.059H138.391Z" fill="black"/>
<path d="M126.423 214.715L131.968 216.61C132.529 208.854 134.881 206.643 137.619 200.466C139.584 196.079 140.496 194.078 140.883 193.306C140.939 193.177 141.032 193.068 141.151 192.993C141.27 192.918 141.409 192.88 141.549 192.885H141.76C141.868 192.884 141.974 192.907 142.073 192.949C142.171 192.993 142.26 193.056 142.332 193.135C142.405 193.214 142.461 193.308 142.495 193.41C142.529 193.512 142.542 193.62 142.532 193.727C142.183 195.8 141.63 197.834 140.883 199.799C142.532 198.676 143.269 198.676 144.041 199.834C145.937 198.851 146.638 198.816 147.305 200.29C147.972 201.764 147.867 202.045 147.516 203.238C147.165 204.432 146.638 204.537 145.831 204.537C145.831 212.679 145.305 215.733 141.479 221.208C138.075 226.087 137.899 225.49 133.266 224.016C130.599 223.174 127.967 222.226 126.247 221.559C125.251 221.196 124.413 220.495 123.881 219.578C123.348 218.66 123.155 217.585 123.334 216.54C123.65 215.066 124.633 214.118 126.423 214.715Z" fill="#FFE75C"/>
<path d="M126.423 214.715C126.612 214.491 126.788 214.257 126.949 214.013C127.043 213.883 127.108 213.734 127.139 213.576C127.171 213.419 127.168 213.257 127.132 213.1C127.095 212.944 127.025 212.797 126.927 212.67C126.829 212.543 126.705 212.439 126.563 212.363C116.982 207.099 113.612 206.467 108.348 206.467C104.943 206.467 105.119 207.345 105.435 208.959C103.013 211.205 103.048 211.977 104.733 214.189C106.417 216.4 106.944 217.277 108.523 217.277C110.103 217.277 113.788 217.312 117.017 215.663C120.246 214.013 121.79 213.171 126.423 214.715Z" fill="white"/>
<path d="M126.282 198.816C122.387 198.149 118.421 197.728 118.386 197.728C118.346 197.723 118.306 197.727 118.267 197.739C118.229 197.75 118.194 197.77 118.164 197.797C118.134 197.824 118.11 197.856 118.094 197.893C118.078 197.929 118.069 197.969 118.07 198.009C118.059 198.087 118.078 198.168 118.124 198.232C118.169 198.297 118.238 198.343 118.315 198.36C118.386 198.36 122.527 198.781 126.528 199.483C126.458 199.272 126.388 199.062 126.282 198.816Z" fill="black"/>
<path d="M118.456 197.553C118.247 197.856 118.059 198.172 117.894 198.5" stroke="black" stroke-width="0.70194" stroke-linecap="round" stroke-linejoin="round"/>
<path d="M131.968 216.61L134.284 217.277" stroke="black" stroke-width="0.70194" stroke-linecap="round" stroke-linejoin="round"/>
<path d="M111.997 192.394C111.962 192.526 111.915 192.655 111.857 192.78C111.833 192.836 111.794 192.886 111.745 192.923C111.696 192.96 111.637 192.983 111.576 192.99H111.471C111.432 192.979 111.397 192.959 111.366 192.933C111.336 192.906 111.312 192.874 111.295 192.837C111.279 192.801 111.27 192.761 111.27 192.721C111.27 192.68 111.279 192.641 111.295 192.604C111.33 192.499 112.068 190.323 112.734 188.779C112.762 188.716 112.812 188.666 112.875 188.638C112.875 189.059 112.91 189.446 112.945 189.867C112.98 190.288 112.208 191.762 111.997 192.394Z" fill="#FFC619"/>
<path d="M144.778 214.961C144.904 214.588 144.942 214.191 144.886 213.8C144.832 213.41 144.686 213.039 144.462 212.715C144.307 212.531 144.13 212.366 143.936 212.223C143.499 211.975 143.002 211.853 142.499 211.872C141.998 211.89 141.51 212.049 141.093 212.329C141.304 211.135 141.585 208.959 141.374 207.31C141.163 205.66 140.532 205.871 140.146 205.801C139.022 205.59 137.478 206.783 136.109 208.924C135.864 207.766 135.513 207.205 134.951 207.064C134.798 207.033 134.638 207.055 134.499 207.124C134.359 207.194 134.246 207.309 134.179 207.45L133.653 208.714C134.355 207.661 134.741 207.661 134.846 207.661C134.951 207.661 135.407 207.942 135.653 209.837C135.66 209.899 135.689 209.958 135.733 210.002C135.778 210.047 135.836 210.075 135.899 210.082C135.964 210.095 136.033 210.088 136.095 210.064C136.157 210.039 136.211 209.996 136.25 209.942C137.689 207.31 139.233 206.257 140.04 206.397C140.847 206.538 140.707 206.994 140.742 207.415C141.058 209.556 140.356 212.96 140.356 212.996C140.346 213.056 140.354 213.118 140.379 213.175C140.404 213.23 140.445 213.278 140.497 213.311C140.558 213.34 140.626 213.352 140.694 213.346C140.762 213.34 140.827 213.316 140.883 213.276C141.655 212.469 142.848 212.258 143.585 212.75C144.322 213.241 144.673 215.031 143.866 217.242C144.236 216.51 144.541 215.746 144.778 214.961Z" fill="#FFF4B3"/>
<path d="M138.952 200.606C140.145 199.939 140.567 199.553 141.62 200.606C143.023 199.869 143.304 199.869 144.076 200.992" stroke="#FFC619" stroke-width="0.70194" stroke-linecap="round" stroke-linejoin="round"/>
<path d="M146.463 204.397C146.428 203.414 146.323 201.905 146.288 201.87C146.288 201.83 146.279 201.79 146.263 201.753C146.247 201.717 146.223 201.684 146.193 201.658C146.163 201.631 146.128 201.611 146.09 201.599C146.052 201.587 146.011 201.584 145.972 201.589C145.932 201.588 145.892 201.597 145.855 201.613C145.819 201.629 145.786 201.653 145.76 201.683C145.733 201.713 145.713 201.748 145.701 201.786C145.689 201.825 145.686 201.865 145.691 201.905C145.691 201.94 145.831 203.449 145.831 204.432C145.83 204.451 145.832 204.47 145.838 204.488C145.844 204.506 145.854 204.523 145.866 204.537H146.428L146.463 204.397Z" fill="black"/>
<path d="M146.849 203.203H146.076C146.035 203.203 145.994 203.195 145.956 203.179C145.917 203.163 145.882 203.14 145.853 203.111C145.824 203.082 145.801 203.047 145.784 203.008C145.769 202.97 145.76 202.929 145.76 202.887C145.769 202.81 145.806 202.738 145.864 202.686C145.923 202.635 145.998 202.606 146.076 202.607H146.849C146.926 202.606 147.002 202.635 147.06 202.686C147.119 202.738 147.156 202.81 147.164 202.887C147.164 202.929 147.156 202.97 147.14 203.008C147.124 203.047 147.101 203.082 147.072 203.111C147.043 203.14 147.008 203.163 146.969 203.179C146.931 203.195 146.89 203.203 146.849 203.203Z" fill="black"/>
<path d="M135.899 223.524C136.64 223.506 137.379 223.436 138.11 223.314" stroke="#FFC619" stroke-width="0.70194" stroke-linecap="round" stroke-linejoin="round"/>
<path d="M113.437 231.176C109.436 230.684 107.646 229.947 107.611 229.947H107.575V230.579C108.172 230.79 109.962 231.351 113.366 231.808H113.402C113.479 231.808 113.555 231.779 113.614 231.728C113.672 231.676 113.709 231.604 113.717 231.527C113.722 231.485 113.719 231.443 113.707 231.403C113.696 231.363 113.676 231.325 113.65 231.293C113.624 231.26 113.592 231.233 113.555 231.213C113.518 231.193 113.478 231.18 113.437 231.176Z" fill="black"/>
<path d="M128.318 229.561C127.422 229.847 126.613 230.354 125.966 231.035" stroke="black" stroke-width="0.70194" stroke-linecap="round" stroke-linejoin="round"/>
<path d="M141.233 232.474C142.652 231.847 144.024 231.12 145.34 230.298" stroke="black" stroke-width="0.70194" stroke-linecap="round" stroke-linejoin="round"/>
<path d="M141.935 232.158L143.795 232.229" stroke="black" stroke-width="0.70194" stroke-linecap="round" stroke-linejoin="round"/>
<path d="M105.75 208.784C111.577 208.222 115.718 209.556 121.439 212.118C115.718 211.732 108.979 211.521 108.979 211.521" stroke="#BAE8FF" stroke-width="0.70194" stroke-linecap="round" stroke-linejoin="round"/>
<path d="M104.171 237.598H127.546C127.881 237.598 128.202 237.731 128.439 237.968C128.676 238.205 128.809 238.527 128.809 238.862V254.059H102.907V238.862C102.907 238.527 103.04 238.205 103.277 237.968C103.515 237.731 103.836 237.598 104.171 237.598Z" fill="#8CD9FF"/>
<path d="M126.492 237.598H127.545C127.88 237.598 128.201 237.731 128.439 237.968C128.676 238.205 128.809 238.527 128.809 238.862V254.059H125.229V238.862C125.229 238.696 125.261 238.531 125.325 238.378C125.388 238.225 125.481 238.086 125.599 237.968C125.716 237.851 125.856 237.758 126.009 237.694C126.162 237.631 126.326 237.598 126.492 237.598Z" fill="#45AAF7"/>
<path d="M106.347 249.216H121.79C122.069 249.216 122.337 249.327 122.534 249.524C122.732 249.721 122.843 249.989 122.843 250.269V254.059H105.329V250.269C105.329 249.995 105.435 249.733 105.625 249.536C105.815 249.34 106.074 249.225 106.347 249.216Z" fill="#45AAF7"/>
<path d="M107.049 237.598V254.059" stroke="#5865F2" stroke-width="0.70194" stroke-miterlimit="10"/>
<path d="M121.052 237.598V254.059" stroke="#5865F2" stroke-width="0.70194" stroke-miterlimit="10"/>
<path d="M121.93 238.862H106.171C105.687 238.862 105.294 239.255 105.294 239.74V245.352C105.294 245.836 105.687 246.229 106.171 246.229H121.93C122.415 246.229 122.807 245.836 122.807 245.352V239.74C122.807 239.255 122.415 238.862 121.93 238.862Z" fill="black"/>
<path d="M124.913 240.055C124.865 240.05 124.817 240.055 124.772 240.07C124.727 240.086 124.686 240.112 124.652 240.145C124.618 240.18 124.593 240.22 124.577 240.266C124.561 240.311 124.556 240.359 124.562 240.406C124.562 240.499 124.599 240.589 124.665 240.654C124.73 240.72 124.82 240.757 124.913 240.757H128.808V240.055H124.913Z" fill="#5865F2"/>
<path d="M124.562 241.915C124.556 241.963 124.561 242.011 124.577 242.056C124.593 242.101 124.618 242.142 124.652 242.176C124.686 242.21 124.727 242.236 124.772 242.251C124.817 242.267 124.865 242.272 124.913 242.266H128.808V241.564H124.913C124.82 241.564 124.73 241.601 124.665 241.667C124.599 241.733 124.562 241.822 124.562 241.915Z" fill="#5865F2"/>
<path d="M124.562 243.46C124.562 243.553 124.599 243.642 124.665 243.708C124.73 243.774 124.82 243.811 124.913 243.811H128.808V243.109H124.913C124.865 243.103 124.817 243.108 124.772 243.124C124.727 243.14 124.686 243.165 124.652 243.199C124.618 243.233 124.593 243.274 124.577 243.319C124.561 243.364 124.556 243.412 124.562 243.46Z" fill="#5865F2"/>
<path d="M103.539 240.406C103.531 240.497 103.492 240.581 103.428 240.646C103.363 240.71 103.279 240.749 103.188 240.757H102.907V240.055H103.188C103.281 240.055 103.371 240.092 103.436 240.158C103.502 240.224 103.539 240.313 103.539 240.406Z" fill="#5865F2"/>
<path d="M103.539 241.915C103.539 242.008 103.502 242.098 103.436 242.164C103.371 242.23 103.281 242.266 103.188 242.266H102.907V241.564H103.188C103.279 241.573 103.363 241.612 103.428 241.676C103.492 241.74 103.531 241.825 103.539 241.915Z" fill="#5865F2"/>
<path d="M103.539 243.46C103.531 243.55 103.492 243.635 103.428 243.699C103.363 243.763 103.279 243.803 103.188 243.811H102.907V243.109H103.188C103.281 243.109 103.371 243.145 103.436 243.211C103.502 243.277 103.539 243.367 103.539 243.46Z" fill="#5865F2"/>
<path d="M117.437 239.389H107.154C106.902 239.389 106.698 239.593 106.698 239.845V244.706C106.698 244.958 106.902 245.162 107.154 245.162H117.437C117.689 245.162 117.894 244.958 117.894 244.706V239.845C117.894 239.593 117.689 239.389 117.437 239.389Z" fill="#FFF4B3"/>
<path d="M121.789 245.179H118.981C118.807 245.179 118.666 245.321 118.666 245.495V245.923C118.666 246.098 118.807 246.239 118.981 246.239H121.789C121.964 246.239 122.105 246.098 122.105 245.923V245.495C122.105 245.321 121.964 245.179 121.789 245.179Z" fill="#FF78B9"/>
<path d="M110.839 240.055C110.839 240.912 111.18 241.733 111.785 242.338C112.391 242.944 113.212 243.284 114.068 243.284C114.925 243.284 115.746 242.944 116.351 242.338C116.957 241.733 117.297 240.912 117.297 240.055C117.293 239.831 117.27 239.608 117.227 239.389H110.91C110.85 239.605 110.826 239.831 110.839 240.055Z" fill="#29CC7A"/>
<path d="M107.646 245.179H112.91C112.612 244.759 112.217 244.417 111.759 244.18C111.301 243.944 110.793 243.82 110.278 243.82C109.763 243.82 109.255 243.944 108.797 244.18C108.339 244.417 107.944 244.759 107.646 245.179Z" fill="#29CC7A"/>
<path d="M24.8157 250.97C24.8157 250.97 21.7272 245.46 18.8843 241.423L13.8303 243.284C13.8303 243.284 18.8492 249.32 20.1829 254.058H20.7445C22.1388 254.077 23.5265 253.864 24.8508 253.427C26.1845 252.935 27.3076 252.304 27.7989 251.461C28.2903 250.619 26.8513 250.97 24.8157 250.97Z" fill="#FFC619"/>
<path d="M20.2882 243.529C19.8319 242.792 19.3406 242.09 18.8843 241.423L13.8303 243.284C13.8303 243.284 15.2342 244.968 16.7434 247.25C16.3573 245.389 19.3406 243.95 20.2882 243.529Z" fill="black"/>
<path d="M13.936 251.777C15.9014 247.495 15.761 245.986 14.9187 241.95L9.51375 241.774C10.7071 246.548 10.8474 248.653 9.09255 252.584C8.90773 253.053 8.8473 253.56 8.91707 254.058H17.4106C17.6563 253.286 16.9192 252.935 13.936 251.777Z" fill="#FFC619"/>
<path d="M15.3397 244.021C15.2345 243.389 15.0941 242.722 14.9186 241.95L9.51367 241.774C9.85903 243.151 10.1285 244.545 10.3209 245.951C10.3209 245.951 12.9531 244.477 15.3397 244.021Z" fill="black"/>
<path d="M21.5525 223.594C21.7753 222.846 21.6999 222.042 21.342 221.348C21.2295 221.115 21.1894 220.853 21.2269 220.596C21.2644 220.34 21.3778 220.101 21.5525 219.909C21.8039 219.575 21.9832 219.193 22.079 218.786C22.5001 217.382 21.8684 215.908 20.7453 215.557C19.6222 215.206 18.3236 216.048 17.9376 217.487C17.7345 218.226 17.8094 219.012 18.1481 219.699C18.2596 219.936 18.3022 220.2 18.2712 220.461C18.2402 220.721 18.1367 220.968 17.9727 221.173C17.7036 221.487 17.5114 221.859 17.4111 222.261C17.025 223.7 17.6217 225.139 18.7799 225.49C19.9381 225.841 21.1665 224.998 21.5525 223.594Z" fill="white"/>
<path d="M20.8499 222.12C20.9474 221.742 20.9595 221.346 20.885 220.962C20.8466 220.808 20.8393 220.648 20.8633 220.492C20.8874 220.335 20.9425 220.185 21.0253 220.05C21.119 219.844 21.2011 219.633 21.2711 219.418C21.4465 218.576 21.3062 217.839 20.9201 217.698C20.534 217.558 20.0075 218.119 19.7969 218.962C19.6816 219.401 19.6938 219.863 19.8321 220.295C19.8647 220.382 19.8754 220.476 19.8631 220.567C19.8509 220.659 19.8161 220.747 19.7618 220.822C19.6191 221.079 19.5016 221.349 19.4109 221.629C19.1652 222.471 19.3407 223.243 19.7618 223.349C20.183 223.454 20.6393 222.928 20.8499 222.12Z" fill="black"/>
<path d="M21.5521 242.687L9.12779 244.407C8.91159 244.441 8.69023 244.417 8.4866 244.337C8.28297 244.257 8.10446 244.123 7.96955 243.951L0.248217 234.018C0.124275 233.842 0.0437616 233.639 0.0132658 233.425C-0.0172297 233.212 0.00315502 232.994 0.0727321 232.79L4.81082 221.173C4.89056 220.968 5.02382 220.788 5.19667 220.652C5.36953 220.517 5.57565 220.43 5.79357 220.401L18.2179 218.681C18.4365 218.661 18.6566 218.696 18.8586 218.782C19.0606 218.867 19.2384 219.001 19.3761 219.172L27.0624 229.07C27.2014 229.239 27.2914 229.443 27.3223 229.659C27.3533 229.876 27.3241 230.097 27.2379 230.298L22.5348 241.915C22.4492 242.116 22.3143 242.293 22.1425 242.427C21.9707 242.562 21.7676 242.652 21.5521 242.687Z" fill="#29CC7A"/>
<path d="M7.127 239.774L8.49578 243.705M7.127 239.774L0.493652 233.457L5.1265 225.419L18.0071 230.93L21.6923 242.09L7.127 239.774Z" stroke="#15AD75" stroke-width="0.70194" stroke-linecap="round" stroke-linejoin="round"/>
<path d="M7.1272 239.774L5.12671 225.42L5.40745 221.032" stroke="#15AD75" stroke-width="0.70194" stroke-linecap="round" stroke-linejoin="round"/>
<path d="M7.1272 239.774L18.0073 230.93L26.9219 229.701" stroke="#15AD75" stroke-width="0.70194" stroke-linecap="round" stroke-linejoin="round"/>
<path d="M5.12671 225.419L18.4986 219.277L18.0073 230.93" stroke="#15AD75" stroke-width="0.70194" stroke-linecap="round" stroke-linejoin="round"/>
<path d="M15.7609 221.98C15.5586 221.057 15.0518 220.229 14.3219 219.628C14.0865 219.43 13.9074 219.173 13.8027 218.884C13.698 218.594 13.6713 218.282 13.7253 217.979C13.8003 217.513 13.7884 217.037 13.6902 216.575C13.3041 214.89 11.8651 213.521 10.4963 213.521C9.12754 213.521 8.32034 214.89 8.70641 216.575C8.89867 217.512 9.40659 218.354 10.1453 218.962C10.3808 219.16 10.5599 219.417 10.6646 219.706C10.7693 219.996 10.796 220.308 10.742 220.611C10.6664 221.066 10.6783 221.53 10.7771 221.98C11.1632 223.7 12.6022 225.068 13.971 225.068C15.3397 225.068 16.1469 223.7 15.7609 221.98Z" fill="white"/>
<path d="M14.3222 221.208C14.2337 220.777 14.0542 220.371 13.7957 220.015C13.581 219.717 13.4588 219.363 13.4448 218.997C13.442 218.736 13.4067 218.477 13.3395 218.225C13.1289 217.242 12.5323 216.365 12.0409 216.259C11.5495 216.154 11.3038 216.926 11.5495 217.944C11.7024 218.522 11.9777 219.061 12.3568 219.523C12.4365 219.601 12.4995 219.694 12.5418 219.796C12.5841 219.899 12.6047 220.009 12.6024 220.12C12.5636 220.459 12.5754 220.802 12.6375 221.138C12.8481 222.085 13.4448 222.823 13.901 222.823C14.3573 222.823 14.5328 222.121 14.3222 221.208Z" fill="black"/>
<path d="M20.5344 232.298C20.9433 233.568 21.4844 234.792 22.1489 235.948C22.6753 236.685 23.2369 236.721 23.6932 235.948C24.1494 235.176 24.6408 233.667 25.1321 232.439" stroke="black" stroke-width="0.70194" stroke-linecap="round" stroke-linejoin="round"/>
<path d="M19.7622 232.474C20.1506 232.225 20.5255 231.956 20.8853 231.667" stroke="black" stroke-width="0.70194" stroke-linecap="round" stroke-linejoin="round"/>
<path d="M13.9362 251.777H12.6377" stroke="black" stroke-width="0.70194" stroke-linecap="round" stroke-linejoin="round"/>
<path d="M24.8159 250.97L23.6577 251.286" stroke="black" stroke-width="0.70194" stroke-linecap="round" stroke-linejoin="round"/>
<path d="M51.3151 245.987C50.9396 245.981 50.5771 245.85 50.2847 245.615C49.992 245.38 49.7867 245.054 49.7007 244.688C49.0654 242.171 48.3038 239.688 47.4194 237.248C47.2727 236.829 47.2972 236.369 47.4878 235.968C47.6784 235.567 48.0195 235.258 48.4372 235.107C48.6422 235.028 48.8605 234.992 49.0798 234.999C49.2988 235.006 49.5147 235.057 49.714 235.148C49.9134 235.24 50.0924 235.37 50.2408 235.532C50.3889 235.693 50.5037 235.883 50.5781 236.089C51.5071 238.656 52.3038 241.268 52.9647 243.916C53.0602 244.344 52.9854 244.792 52.7562 245.165C52.5267 245.539 52.161 245.808 51.7363 245.917L51.3151 245.987Z" fill="#2331B5"/>
<path d="M49.806 229.351C53.9152 229.351 57.2466 226.02 57.2466 221.91C57.2466 217.801 53.9152 214.469 49.806 214.469C45.6965 214.469 42.3655 217.801 42.3655 221.91C42.3655 226.02 45.6965 229.351 49.806 229.351Z" fill="#8CD9FF"/>
<path d="M48.0863 226.508C45.454 225.525 43.0323 225.244 42.0496 225.736C41.9113 225.802 41.7948 225.907 41.7141 226.038C41.6333 226.168 41.5912 226.319 41.5933 226.473V230.79L50.0868 233.983L52.9648 230.754C53.0683 230.644 53.1371 230.504 53.162 230.354C53.1869 230.205 53.1669 230.051 53.1052 229.912C52.7191 228.894 50.7186 227.49 48.0863 226.508Z" fill="white"/>
<path d="M52.8163 233.933C53.2459 232.79 50.7259 230.786 47.1881 229.456C43.65 228.126 40.4333 227.974 40.0038 229.117C39.5742 230.26 42.0938 232.265 45.6319 233.595C49.1701 234.925 52.3867 235.076 52.8163 233.933Z" fill="#7AC5FF"/>
<path d="M39.9434 228.754C40.0315 228.53 40.1687 228.329 40.3449 228.165C40.5211 228.001 40.7317 227.879 40.9612 227.806C42.681 227.315 45.208 227.631 47.3489 228.438C49.4898 229.245 51.5956 230.684 52.5784 232.158C52.7173 232.362 52.8058 232.595 52.8363 232.839C52.8669 233.083 52.8384 233.331 52.7538 233.562L52.6485 233.808L39.8381 229L39.9434 228.754Z" fill="#7AC5FF"/>
<path d="M51.0994 233.688C51.3721 232.963 49.4312 231.562 46.7638 230.559C44.0968 229.556 41.7134 229.332 41.4407 230.058C41.1676 230.784 43.1088 232.185 45.7758 233.187C48.4432 234.19 50.8267 234.414 51.0994 233.688Z" fill="white"/>
<path d="M48.8936 252.865C46.7176 243.284 50.9643 233.562 50.9643 233.562L46.1209 231.737L39.5227 249.321L48.8936 252.865Z" fill="white"/>
<path d="M30.1514 245.811C38.0834 240.02 41.2773 229.947 41.2773 229.947L46.1207 231.737L39.5224 249.321L30.1514 245.811Z" fill="white"/>
<path d="M49.8828 253.306C50.4556 251.782 46.3457 248.827 40.7028 246.706C35.0599 244.585 30.0212 244.101 29.4483 245.626C28.8754 247.149 32.9854 250.105 38.6282 252.226C44.2711 254.346 49.31 254.83 49.8828 253.306Z" fill="#3F99F2"/>
<path d="M29.4143 245.179C29.5348 244.868 29.7285 244.591 29.979 244.371C30.2295 244.151 30.5295 243.995 30.8533 243.916C32.8889 243.424 36.8901 244.091 40.9263 245.6C44.9625 247.109 48.3669 249.25 49.6304 250.97C49.8174 251.245 49.9343 251.561 49.9712 251.891C50.008 252.222 49.9631 252.556 49.841 252.865L49.7357 253.181L29.3091 245.495L29.4143 245.179Z" fill="#3F99F2"/>
<path d="M38.7503 251.391C34.3981 249.777 30.8182 247.706 30.6778 246.723C30.5374 245.741 34.6438 246.197 39.9436 248.197C45.2433 250.198 48.753 252.444 47.9106 253.181C47.0683 253.918 43.0672 253.041 38.7503 251.391Z" fill="#2331B5"/>
<path d="M30.678 246.723C30.7131 247.18 31.5203 247.847 32.7838 248.619L33.8367 246.372C31.8362 246.022 30.5727 246.092 30.678 246.723Z" fill="black"/>
<path d="M43.0322 252.795C45.5241 253.427 47.4194 253.638 47.9107 253.181C48.4021 252.725 46.928 251.356 44.05 249.952L43.0322 252.795Z" fill="black"/>
<path d="M40.8207 234.019L40.7505 233.808C40.0135 234.896 39.4168 235.914 40.3293 236.265C41.2418 236.616 43.453 235.879 46.6468 234.475V234.019C42.8212 234.966 40.2942 235.107 40.8207 234.019Z" fill="#5865F2"/>
<path d="M40.8211 234.019L40.7509 233.808C40.0138 234.861 39.4523 235.879 40.2595 236.23C40.3666 235.64 40.5936 235.079 40.9264 234.58C40.8804 234.552 40.8411 234.514 40.8105 234.47C40.78 234.426 40.7593 234.375 40.7495 234.323C40.7396 234.27 40.7407 234.215 40.753 234.163C40.7653 234.111 40.7884 234.061 40.8211 234.019Z" fill="black"/>
<path d="M40.751 234.369C40.7987 234.506 40.8338 234.647 40.8563 234.79C40.8861 234.913 40.9472 235.025 41.0332 235.118C41.1191 235.21 41.2272 235.278 41.3476 235.317C42.0496 235.562 43.4183 235.457 46.6473 234.474V234.018C43.3131 234.86 40.9967 235.036 40.751 234.369Z" fill="black"/>
<path d="M46.5418 233.703C46.4186 234.164 46.4818 234.656 46.7173 235.071" stroke="black" stroke-width="0.70194" stroke-linecap="round" stroke-linejoin="round"/>
<path d="M40.5059 233.948L40.9621 233.738" stroke="black" stroke-width="0.70194" stroke-linecap="round" stroke-linejoin="round"/>
<path d="M43.8048 220.436C44.0111 219.884 44.3484 219.39 44.7875 218.997C45.2487 218.608 45.7867 218.321 46.3669 218.154C46.6771 218.081 46.9955 218.046 47.3145 218.049C47.6686 218.07 48.0098 218.192 48.2972 218.4C48.4407 218.51 48.5611 218.647 48.6517 218.804C48.7419 218.96 48.8005 219.133 48.8237 219.313C48.8528 219.477 48.8489 219.645 48.8128 219.808C48.7766 219.97 48.7089 220.124 48.6131 220.26C48.578 220.331 48.4727 220.331 48.4025 220.295C48.3895 220.281 48.38 220.265 48.3741 220.246C48.3681 220.228 48.3656 220.209 48.3674 220.19C48.3453 219.944 48.2737 219.705 48.1568 219.488C48.0775 219.339 47.9554 219.216 47.8058 219.137C47.4131 218.988 46.9842 218.963 46.5774 219.067C46.1187 219.188 45.6807 219.377 45.2789 219.629C44.8279 219.886 44.4242 220.218 44.0856 220.611C44.0526 220.644 44.0087 220.661 43.9627 220.661C43.9167 220.661 43.8725 220.644 43.8399 220.611C43.8143 220.591 43.7971 220.562 43.7907 220.53C43.7841 220.498 43.789 220.465 43.8048 220.436Z" fill="black"/>
<path d="M44.5413 241.073C46.5632 242.374 48.4557 243.867 50.1919 245.53C50.5001 245.811 50.8981 245.973 51.315 245.987C51.5449 245.99 51.7734 245.944 51.9847 245.854C52.1963 245.763 52.3865 245.629 52.5434 245.46C52.8428 245.131 53.0028 244.698 52.9899 244.253C52.9769 243.808 52.7916 243.385 52.4732 243.074C49.5602 240.371 47.3491 238.827 46.2961 238.195C45.2432 237.563 44.5764 237.388 42.9268 237.388C42.2951 237.388 42.1196 237.599 41.5931 238.757C41.0667 239.915 41.6282 240.301 42.8917 240.301C43.4182 240.301 43.8745 240.617 44.5413 241.073Z" fill="#2331B5"/>
<path d="M38.6805 237.001C38.1982 236.901 37.696 236.989 37.2766 237.247C37.0481 237.371 36.8456 237.538 36.6799 237.739L36.4694 238.019C35.8376 238.827 35.5217 239.213 35.5568 239.493C35.5754 239.758 35.6344 240.019 35.7323 240.266L36.0482 239.844C36.715 238.967 37.6978 239.283 38.0838 239.283C38.4699 239.283 38.7858 238.44 39.1016 237.809C39.4175 237.177 39.3122 237.037 38.6805 237.001Z" fill="#2331B5"/>
<path d="M45.9103 237.984C45.3838 237.739 45.1732 237.037 45.0328 236.616C44.8925 236.194 44.5766 236.265 44.2958 236.37C44.015 236.475 43.8746 236.721 44.1905 237.704C44.5064 238.686 45.9103 237.984 45.9103 237.984Z" fill="#2331B5"/>
<defs>
<clipPath id="clip0_245_11417">
<rect x="55.0461" width="161.469" height="254.24" rx="11.2758" fill="white"/>
</clipPath>
</defs>
</svg>
