<svg width="676" height="352" viewBox="0 0 676 352" fill="none" xmlns="http://www.w3.org/2000/svg">
<rect x="125.84" y="21" width="531.335" height="309.945" rx="5.72912" fill="#1E2124"/>
<rect x="154.177" y="21.0001" width="394.516" height="309.945" fill="#36393E"/>
<rect x="154.177" y="21.0001" width="106.267" height="309.945" fill="#2E3136"/>
<rect x="169.232" y="174.644" width="29.6662" height="6.64169" rx="3.32084" fill="#55585B"/>
<circle cx="165.025" cy="177.966" r="2.43529" fill="#55585B"/>
<path d="M261.331 21.0001H651.446C654.61 21.0001 657.175 23.5651 657.175 26.7292V43.1391H261.331V21.0001Z" fill="#36393E"/>
<line x1="154.177" y1="40.9517" x2="260.467" y2="40.9517" stroke="#1F2125" stroke-width="1.71874"/>
<line x1="260.444" y1="40.9517" x2="657.175" y2="40.9517" stroke="#282B30" stroke-width="1.71874"/>
<line x1="154.177" y1="287.136" x2="260.444" y2="287.136" stroke="#1C1E22" stroke-width="1.71874"/>
<line x1="154.177" y1="307.947" x2="260.444" y2="307.947" stroke="#1C1E22" stroke-width="1.71874"/>
<circle cx="140.452" cy="40.9252" r="8.85558" fill="white"/>
<circle cx="166.798" cy="319.655" r="7.74864" fill="#F86623"/>
<circle cx="276.606" cy="141.215" r="7.74864" fill="#F86623"/>
<circle cx="276.606" cy="70.3701" r="7.74864" fill="#F86623"/>
<circle cx="276.606" cy="104.021" r="7.74864" fill="#F86623"/>
<circle cx="276.606" cy="272.721" r="7.74864" fill="#34A1FD"/>
<circle cx="276.606" cy="235.969" r="7.74864" fill="#8A2EFF"/>
<circle cx="140.452" cy="89.188" r="8.85558" fill="#2E3136"/>
<circle cx="140.452" cy="111.328" r="8.85558" fill="#2E3136"/>
<circle cx="140.452" cy="133.466" r="8.85558" fill="#2E3136"/>
<circle cx="140.452" cy="155.605" r="8.85558" fill="#2E3136"/>
<circle cx="140.452" cy="177.744" r="7.4233" stroke="#4B4D4F" stroke-width="2.86456"/>
<rect x="131.596" y="58.1932" width="17.7112" height="17.7112" rx="4.01039" fill="#8A2EFF"/>
<path d="M548.694 41.811H657.175V325.217C657.175 328.381 654.61 330.946 651.446 330.946H548.694V41.811Z" fill="#2E3136"/>
<rect x="179.416" y="220.251" width="48.7057" height="6.64169" rx="3.32084" fill="#55585B"/>
<circle cx="174.767" cy="223.572" r="2.43529" fill="#F86623"/>
<rect x="179.416" y="209.181" width="48.7057" height="6.64169" rx="3.32084" fill="#55585B"/>
<circle cx="174.767" cy="212.502" r="2.43529" fill="#F86623"/>
<rect x="179.416" y="198.112" width="48.7057" height="6.64169" rx="3.32084" fill="#55585B"/>
<circle cx="174.767" cy="201.433" r="2.43529" fill="#F86623"/>
<rect x="179.416" y="187.042" width="48.7057" height="6.64169" rx="3.32084" fill="#55585B"/>
<circle cx="174.767" cy="190.363" r="2.43529" fill="#F86623"/>
<rect x="179.416" y="152.062" width="48.7057" height="6.64169" rx="3.32084" fill="#55585B"/>
<circle cx="174.767" cy="155.384" r="2.43529" fill="#F86623"/>
<rect x="179.416" y="140.993" width="48.7057" height="6.64169" rx="3.32084" fill="#55585B"/>
<circle cx="174.767" cy="144.314" r="2.43529" fill="#8A2EFF"/>
<rect x="179.416" y="129.924" width="48.7057" height="6.64169" rx="3.32084" fill="#55585B"/>
<circle cx="174.767" cy="133.245" r="2.43529" fill="#F86623"/>
<rect x="179.416" y="118.854" width="48.7057" height="6.64169" rx="3.32084" fill="#55585B"/>
<circle cx="174.767" cy="122.175" r="2.43529" fill="#F86623"/>
<rect x="179.416" y="163.132" width="48.7057" height="6.64169" rx="3.32084" fill="#55585B"/>
<circle cx="174.767" cy="166.453" r="2.43529" fill="#34A1FD"/>
<rect x="169.232" y="247.26" width="54.9046" height="6.64169" rx="3.32084" fill="#55585B"/>
<circle cx="165.025" cy="250.581" r="2.43529" fill="#55585B"/>
<rect x="169.232" y="260.544" width="66.4169" height="6.64169" rx="3.32084" fill="#55585B"/>
<circle cx="165.025" cy="263.864" r="2.43529" fill="#55585B"/>
<rect x="279.041" y="315.448" width="66.4169" height="6.64169" rx="3.32084" fill="#55585B"/>
<circle cx="274.835" cy="318.769" r="2.43529" fill="#55585B"/>
<rect x="169.232" y="295.08" width="66.4169" height="6.64169" rx="3.32084" fill="#F86623"/>
<circle cx="165.025" cy="298.402" r="2.43529" fill="#F86623"/>
<rect x="169.232" y="107.342" width="66.4169" height="6.64169" rx="3.32084" fill="#55585B"/>
<circle cx="165.025" cy="110.663" r="2.43529" fill="#55585B"/>
<rect x="169.232" y="49.7806" width="54.9046" height="6.64169" rx="3.32084" fill="#55585B"/>
<circle cx="165.025" cy="53.1015" r="2.43529" fill="#55585B"/>
<rect x="277.27" y="28.0847" width="54.9046" height="6.64169" rx="3.32084" fill="#55585B"/>
<circle cx="273.064" cy="31.4053" r="2.43529" fill="#55585B"/>
<rect x="169.232" y="69.2627" width="37.6362" height="6.64169" rx="3.32084" fill="#55585B"/>
<rect x="164.804" y="28.0847" width="57.5613" height="6.64169" rx="3.32084" fill="#55585B"/>
<rect x="337.489" y="28.0847" width="182.868" height="6.64169" rx="3.32084" fill="#55585B"/>
<circle cx="165.025" cy="72.584" r="2.43529" fill="#55585B"/>
<rect x="169.232" y="88.7455" width="74.8297" height="6.64169" rx="3.32084" fill="#55585B"/>
<circle cx="165.025" cy="92.0659" r="2.43529" fill="#55585B"/>
<circle cx="172.553" cy="324.525" r="3.29465" fill="#F86623" stroke="#2E3136" stroke-width="1.71874"/>
<circle cx="166.798" cy="319.655" r="7.74864" fill="#F86623"/>
<circle cx="172.553" cy="324.525" r="3.29465" fill="#F86623" stroke="#2E3136" stroke-width="1.71874"/>
<circle cx="561.313" cy="71.6985" r="7.74864" fill="#F86623"/>
<circle cx="567.069" cy="76.569" r="3.29465" fill="#F86623" stroke="#2E3136" stroke-width="1.71874"/>
<rect x="244.061" y="187.042" width="6.64169" height="6.64169" rx="3.32084" fill="#F86623"/>
<rect x="244.061" y="118.854" width="6.64169" height="6.64169" rx="3.32084" fill="#F86623"/>
<rect x="290.11" y="62.6215" width="42.064" height="6.64169" rx="3.32084" fill="#55585B"/>
<rect x="334.831" y="62.6215" width="23.9101" height="6.64169" rx="3.32084" fill="#55585B"/>
<rect x="289.225" y="72.8054" width="96.5259" height="6.64169" rx="3.32084" fill="#55585B"/>
<rect x="553.564" y="48.8951" width="62.8747" height="6.64169" rx="3.32084" fill="#55585B"/>
<rect x="573.933" y="63.9498" width="62.8747" height="6.64169" rx="3.32084" fill="#55585B"/>
<rect x="573.933" y="72.8054" width="38.9646" height="6.64169" rx="3.32084" fill="#55585B"/>
<rect x="574.375" y="120.183" width="75.2725" height="6.64169" rx="3.32084" fill="#55585B"/>
<rect x="574.374" y="129.038" width="46.6477" height="6.64169" rx="3.32084" fill="#55585B"/>
<rect x="573.933" y="208.739" width="75.2725" height="6.64169" rx="3.32084" fill="#55585B"/>
<rect x="573.933" y="217.594" width="46.6477" height="6.64169" rx="3.32084" fill="#55585B"/>
<rect width="75.2725" height="6.64169" rx="3.32084" transform="matrix(1 0 0 -1 574.375 168.003)" fill="#55585B"/>
<rect width="46.6477" height="6.64169" rx="3.32084" transform="matrix(1 0 0 -1 574.374 159.147)" fill="#55585B"/>
<rect width="37.1935" height="6.64169" rx="3.32084" transform="matrix(1 0 0 -1 574.375 195.898)" fill="#55585B"/>
<rect width="23.0495" height="6.64169" rx="3.32084" transform="matrix(1 0 0 -1 574.374 187.042)" fill="#55585B"/>
<rect x="573.933" y="91.8448" width="38.9646" height="6.64169" rx="3.32084" fill="#55585B"/>
<rect x="573.933" y="100.7" width="24.3529" height="6.64169" rx="3.32084" fill="#55585B"/>
<rect x="560.206" y="301.722" width="54.4619" height="6.64169" rx="3.32084" fill="#55585B"/>
<rect x="575.703" y="315.448" width="34.094" height="6.64169" rx="3.32084" fill="#55585B"/>
<rect x="290.11" y="96.2725" width="80.1431" height="6.64169" rx="3.32084" fill="#55585B"/>
<rect x="375.124" y="96.2725" width="46.049" height="6.64169" rx="3.32084" fill="#55585B"/>
<rect x="290.11" y="108.671" width="183.753" height="6.64169" rx="3.32084" fill="#55585B"/>
<rect x="318.449" y="145.864" width="110.252" height="6.64169" rx="3.32084" fill="#55585B"/>
<rect x="290.11" y="157.376" width="127.963" height="52.6907" rx="5.72912" fill="#55585B"/>
<rect x="290.11" y="134.351" width="70.4019" height="6.64169" rx="3.32084" fill="#55585B"/>
<rect x="290.11" y="145.864" width="15.4973" height="6.64169" rx="3.32084" fill="#55585B"/>
<rect x="308.707" y="145.864" width="6.64169" height="6.64169" rx="3.32084" fill="#55585B"/>
<rect x="339.259" y="240.176" width="190.838" height="6.64169" rx="3.32084" fill="#55585B"/>
<rect x="290.11" y="264.972" width="190.838" height="6.64169" rx="3.32084" fill="#55585B"/>
<rect x="290.11" y="228.221" width="121.764" height="6.64169" rx="3.32084" fill="#55585B"/>
<rect x="290.11" y="276.926" width="121.764" height="6.64169" rx="3.32084" fill="#55585B"/>
<rect x="290.11" y="240.176" width="27.0095" height="6.64169" rx="3.32084" fill="#55585B"/>
<rect x="322.434" y="240.176" width="11.5123" height="6.64169" rx="3.32084" fill="#55585B"/>
<rect x="266.617" y="310.551" width="275.018" height="16.878" rx="2.00519" stroke="#55585B" stroke-width="1.71874"/>
<circle cx="561.313" cy="99.5935" r="7.74864" fill="#F86623"/>
<circle cx="567.069" cy="104.907" r="3.29465" fill="#F86623" stroke="#2E3136" stroke-width="1.71874"/>
<circle cx="561.313" cy="127.931" r="7.74864" fill="#8A2EFF"/>
<circle cx="567.069" cy="132.802" r="3.29465" fill="#F86623" stroke="#2E3136" stroke-width="1.71874"/>
<circle cx="561.313" cy="160.254" r="7.74864" fill="#34A1FD"/>
<circle cx="567.069" cy="165.124" r="3.29465" fill="#F86623" stroke="#2E3136" stroke-width="1.71874"/>
<circle cx="561.313" cy="188.149" r="7.74864" fill="#F86623"/>
<circle cx="567.069" cy="193.463" r="3.29465" fill="#F86623" stroke="#2E3136" stroke-width="1.71874"/>
<circle cx="561.313" cy="216.487" r="7.74864" fill="#2076FF"/>
<circle cx="565.519" cy="318.991" r="5.31335" fill="#F86623"/>
<circle cx="567.069" cy="221.357" r="3.29465" fill="#F86623" stroke="#2E3136" stroke-width="1.71874"/>
<rect x="126.085" y="21.0001" width="531.09" height="309.945" rx="5.72912" fill="#2076FF" fill-opacity="0.5"/>
<g clip-path="url(#clip0_245_9302)">
<rect x="106.84" width="127.525" height="294.288" fill="#1E2124"/>
<rect x="133.736" width="100.86" height="294.174" fill="#2E3136"/>
<rect x="148.024" y="145.826" width="28.1567" height="6.30374" rx="3.15187" fill="#55585B"/>
<circle cx="144.032" cy="148.978" r="2.31137" fill="#55585B"/>
<line x1="133.736" y1="18.9363" x2="234.617" y2="18.9363" stroke="#1F2125" stroke-width="1.63128"/>
<line x1="133.736" y1="252.594" x2="234.596" y2="252.594" stroke="#1C1E22" stroke-width="1.63128"/>
<line x1="133.736" y1="272.346" x2="234.596" y2="272.346" stroke="#1C1E22" stroke-width="1.63128"/>
<circle cx="120.708" cy="18.9111" r="8.40498" fill="white"/>
<circle cx="145.714" cy="283.458" r="7.35436" fill="#F86623"/>
<circle cx="120.708" cy="64.7183" r="8.40498" fill="#2E3136"/>
<circle cx="120.708" cy="85.731" r="8.40498" fill="#2E3136"/>
<circle cx="120.708" cy="106.743" r="8.40498" fill="#2E3136"/>
<circle cx="120.708" cy="127.756" r="8.40498" fill="#2E3136"/>
<circle cx="120.708" cy="148.768" r="7.04558" stroke="#4B4D4F" stroke-width="2.7188"/>
<rect x="112.303" y="35.3007" width="16.81" height="16.81" rx="3.80632" fill="#8A2EFF"/>
<rect x="157.69" y="189.112" width="46.2274" height="6.30374" rx="3.15187" fill="#55585B"/>
<circle cx="153.277" cy="192.264" r="2.31137" fill="#F86623"/>
<rect x="157.69" y="178.606" width="46.2274" height="6.30374" rx="3.15187" fill="#55585B"/>
<circle cx="153.277" cy="181.758" r="2.31137" fill="#F86623"/>
<rect x="157.69" y="168.1" width="46.2274" height="6.30374" rx="3.15187" fill="#55585B"/>
<circle cx="153.277" cy="171.251" r="2.31137" fill="#F86623"/>
<rect x="157.69" y="157.594" width="46.2274" height="6.30374" rx="3.15187" fill="#55585B"/>
<circle cx="153.277" cy="160.745" r="2.31137" fill="#F86623"/>
<rect x="157.69" y="124.394" width="46.2274" height="6.30374" rx="3.15187" fill="#55585B"/>
<circle cx="153.277" cy="127.546" r="2.31137" fill="#F86623"/>
<rect x="157.69" y="113.888" width="46.2274" height="6.30374" rx="3.15187" fill="#55585B"/>
<circle cx="153.277" cy="117.039" r="2.31137" fill="#8A2EFF"/>
<rect x="157.69" y="103.381" width="46.2274" height="6.30374" rx="3.15187" fill="#55585B"/>
<circle cx="153.277" cy="106.533" r="2.31137" fill="#F86623"/>
<rect x="157.69" y="92.875" width="46.2274" height="6.30374" rx="3.15187" fill="#55585B"/>
<circle cx="153.277" cy="96.0268" r="2.31137" fill="#F86623"/>
<rect x="157.69" y="134.9" width="46.2274" height="6.30374" rx="3.15187" fill="#55585B"/>
<circle cx="153.277" cy="138.052" r="2.31137" fill="#34A1FD"/>
<rect x="148.024" y="214.747" width="52.1109" height="6.30374" rx="3.15187" fill="#55585B"/>
<circle cx="144.032" cy="217.899" r="2.31137" fill="#55585B"/>
<rect x="148.024" y="227.355" width="63.0374" height="6.30374" rx="3.15187" fill="#55585B"/>
<circle cx="144.032" cy="230.507" r="2.31137" fill="#55585B"/>
<rect x="148.024" y="260.134" width="63.0374" height="6.30374" rx="3.15187" fill="#F86623"/>
<circle cx="144.032" cy="263.286" r="2.31137" fill="#F86623"/>
<rect x="148.024" y="81.9484" width="63.0374" height="6.30374" rx="3.15187" fill="#55585B"/>
<circle cx="144.032" cy="85.1006" r="2.31137" fill="#55585B"/>
<rect x="148.024" y="27.3162" width="52.1109" height="6.30374" rx="3.15187" fill="#55585B"/>
<circle cx="144.032" cy="30.468" r="2.31137" fill="#55585B"/>
<rect x="148.024" y="45.8069" width="35.7212" height="6.30374" rx="3.15187" fill="#55585B"/>
<rect x="143.822" y="6.72412" width="54.6324" height="6.30374" rx="3.15187" fill="#55585B"/>
<circle cx="144.032" cy="48.959" r="2.31137" fill="#55585B"/>
<rect x="148.024" y="64.2983" width="71.0221" height="6.30374" rx="3.15187" fill="#55585B"/>
<circle cx="144.032" cy="67.4498" r="2.31137" fill="#55585B"/>
<circle cx="151.176" cy="288.081" r="3.12701" fill="#F86623" stroke="#2E3136" stroke-width="1.63128"/>
<circle cx="145.714" cy="283.458" r="7.35436" fill="#F86623"/>
<circle cx="151.176" cy="288.081" r="3.12701" fill="#F86623" stroke="#2E3136" stroke-width="1.63128"/>
<rect x="219.046" y="157.594" width="6.30374" height="6.30374" rx="3.15187" fill="#F86623"/>
<rect x="219.046" y="92.875" width="6.30374" height="6.30374" rx="3.15187" fill="#F86623"/>
<rect x="106.84" width="127.525" height="294.288" fill="#2076FF" fill-opacity="0.3"/>
</g>
<g clip-path="url(#clip1_245_9302)">
<rect x="106.84" width="127.525" height="294.288" fill="#1E2124"/>
<rect x="133.736" width="100.86" height="294.174" fill="#2E3136"/>
<rect x="148.024" y="145.826" width="28.1567" height="6.30374" rx="3.15187" fill="#55585B"/>
<circle cx="144.032" cy="148.978" r="2.31137" fill="#55585B"/>
<line x1="133.736" y1="18.9363" x2="234.617" y2="18.9363" stroke="#1F2125" stroke-width="1.63128"/>
<line x1="133.736" y1="252.594" x2="234.596" y2="252.594" stroke="#1C1E22" stroke-width="1.63128"/>
<line x1="133.736" y1="272.346" x2="234.596" y2="272.346" stroke="#1C1E22" stroke-width="1.63128"/>
<circle cx="120.708" cy="18.9111" r="8.40498" fill="white"/>
<circle cx="145.714" cy="283.458" r="7.35436" fill="#F86623"/>
<circle cx="120.708" cy="64.7183" r="8.40498" fill="#2E3136"/>
<circle cx="120.708" cy="85.731" r="8.40498" fill="#2E3136"/>
<circle cx="120.708" cy="106.743" r="8.40498" fill="#2E3136"/>
<circle cx="120.708" cy="127.756" r="8.40498" fill="#2E3136"/>
<circle cx="120.708" cy="148.768" r="7.04558" stroke="#4B4D4F" stroke-width="2.7188"/>
<rect x="112.303" y="35.3007" width="16.81" height="16.81" rx="3.80632" fill="#8A2EFF"/>
<rect x="157.69" y="189.112" width="46.2274" height="6.30374" rx="3.15187" fill="#55585B"/>
<circle cx="153.277" cy="192.264" r="2.31137" fill="#F86623"/>
<rect x="157.69" y="178.606" width="46.2274" height="6.30374" rx="3.15187" fill="#55585B"/>
<circle cx="153.277" cy="181.758" r="2.31137" fill="#F86623"/>
<rect x="157.69" y="168.1" width="46.2274" height="6.30374" rx="3.15187" fill="#55585B"/>
<circle cx="153.277" cy="171.251" r="2.31137" fill="#F86623"/>
<rect x="157.69" y="157.594" width="46.2274" height="6.30374" rx="3.15187" fill="#55585B"/>
<circle cx="153.277" cy="160.745" r="2.31137" fill="#F86623"/>
<rect x="157.69" y="124.394" width="46.2274" height="6.30374" rx="3.15187" fill="#55585B"/>
<circle cx="153.277" cy="127.546" r="2.31137" fill="#F86623"/>
<rect x="157.69" y="113.888" width="46.2274" height="6.30374" rx="3.15187" fill="#55585B"/>
<circle cx="153.277" cy="117.039" r="2.31137" fill="#8A2EFF"/>
<rect x="157.69" y="103.381" width="46.2274" height="6.30374" rx="3.15187" fill="#55585B"/>
<circle cx="153.277" cy="106.533" r="2.31137" fill="#F86623"/>
<rect x="157.69" y="92.875" width="46.2274" height="6.30374" rx="3.15187" fill="#55585B"/>
<circle cx="153.277" cy="96.0268" r="2.31137" fill="#F86623"/>
<rect x="157.69" y="134.9" width="46.2274" height="6.30374" rx="3.15187" fill="#55585B"/>
<circle cx="153.277" cy="138.052" r="2.31137" fill="#34A1FD"/>
<rect x="148.024" y="214.747" width="52.1109" height="6.30374" rx="3.15187" fill="#55585B"/>
<circle cx="144.032" cy="217.899" r="2.31137" fill="#55585B"/>
<rect x="148.024" y="227.355" width="63.0374" height="6.30374" rx="3.15187" fill="#55585B"/>
<circle cx="144.032" cy="230.507" r="2.31137" fill="#55585B"/>
<rect x="148.024" y="260.134" width="63.0374" height="6.30374" rx="3.15187" fill="#F86623"/>
<circle cx="144.032" cy="263.286" r="2.31137" fill="#F86623"/>
<rect x="148.024" y="81.9484" width="63.0374" height="6.30374" rx="3.15187" fill="#55585B"/>
<circle cx="144.032" cy="85.1006" r="2.31137" fill="#55585B"/>
<rect x="148.024" y="27.3162" width="52.1109" height="6.30374" rx="3.15187" fill="#55585B"/>
<circle cx="144.032" cy="30.468" r="2.31137" fill="#55585B"/>
<rect x="148.024" y="45.8069" width="35.7212" height="6.30374" rx="3.15187" fill="#55585B"/>
<rect x="143.822" y="6.72412" width="54.6324" height="6.30374" rx="3.15187" fill="#55585B"/>
<circle cx="144.032" cy="48.959" r="2.31137" fill="#55585B"/>
<rect x="148.024" y="64.2983" width="71.0221" height="6.30374" rx="3.15187" fill="#55585B"/>
<circle cx="144.032" cy="67.4498" r="2.31137" fill="#55585B"/>
<circle cx="151.176" cy="288.081" r="3.12701" fill="#F86623" stroke="#2E3136" stroke-width="1.63128"/>
<circle cx="145.714" cy="283.458" r="7.35436" fill="#F86623"/>
<circle cx="151.176" cy="288.081" r="3.12701" fill="#F86623" stroke="#2E3136" stroke-width="1.63128"/>
<rect x="219.046" y="157.594" width="6.30374" height="6.30374" rx="3.15187" fill="#F86623"/>
<rect x="219.046" y="92.875" width="6.30374" height="6.30374" rx="3.15187" fill="#F86623"/>
<rect x="106.84" width="127.525" height="294.288" fill="#2076FF" fill-opacity="0.3"/>
</g>
<path d="M259.609 351.605H258.079C258.691 334.314 255.478 323.067 248.209 317.328C240.94 311.59 228.775 311.207 211.713 316.487C211.507 316.539 211.289 316.512 211.101 316.41C210.912 316.285 210.776 316.094 210.719 315.875C210.245 312.798 208.98 309.898 207.049 307.457C205.118 305.016 202.586 303.119 199.701 301.949C192.356 298.966 183.251 300.649 175.447 306.387C156.472 320.236 158.538 345.025 158.538 345.255C158.541 345.412 158.5 345.568 158.419 345.703C158.338 345.839 158.22 345.948 158.079 346.02C157.942 346.093 157.784 346.118 157.632 346.09C157.479 346.062 157.34 345.983 157.237 345.867C147.367 337.068 140.481 333.625 134.896 334.62C129.311 335.614 124.261 341.582 118.523 351.605H116.763C122.96 340.741 128.01 334.237 134.59 333.09C141.17 331.942 147.367 335.308 156.931 343.572C156.855 337.451 157.926 317.328 174.529 305.163C182.792 299.119 192.432 297.359 200.237 300.572C203.243 301.745 205.907 303.656 207.979 306.131C210.052 308.604 211.468 311.561 212.096 314.727C229.234 309.601 241.323 310.06 249.127 316.181C256.931 322.301 260.221 333.778 259.609 351.605Z" fill="#808AFF"/>
<path d="M675.523 351.605H549.356V312.202C578.737 284.199 612.249 303.48 614.467 324.291C647.903 302.561 679.349 319.929 675.523 351.605Z" fill="#404EED"/>
<path d="M549.358 247.626H216.075V351.605H549.358V247.626Z" fill="#5865F2"/>
<path d="M216.075 279.761L549.358 252.906V247.626H216.075V279.761Z" fill="#4B59F2"/>
<path d="M549.358 247.626H546.909V351.605H549.358V247.626Z" fill="#3543DE"/>
<path d="M519.289 247.626H516.84V351.605H519.289V247.626Z" fill="#3543DE"/>
<path d="M489.219 247.626H486.771V351.605H489.219V247.626Z" fill="#3543DE"/>
<path d="M459.151 247.626H456.702V351.605H459.151V247.626Z" fill="#3543DE"/>
<path d="M429.005 247.626H426.557V351.605H429.005V247.626Z" fill="#3543DE"/>
<path d="M398.936 247.626H396.488V351.605H398.936V247.626Z" fill="#3543DE"/>
<path d="M368.868 247.626H366.42V351.605H368.868V247.626Z" fill="#3543DE"/>
<path d="M338.799 247.626H336.351V351.605H338.799V247.626Z" fill="#3543DE"/>
<path d="M308.73 247.626H306.281V351.605H308.73V247.626Z" fill="#3543DE"/>
<path d="M278.662 247.626H276.213V351.605H278.662V247.626Z" fill="#3543DE"/>
<path d="M248.591 247.626H246.143V351.605H248.591V247.626Z" fill="#3543DE"/>
<path d="M218.524 247.626H216.075V351.605H218.524V247.626Z" fill="#3543DE"/>
<path d="M306.511 151.452C303.374 141.047 301.691 136.074 307.352 133.013C313.014 129.953 330.229 132.019 338.263 133.931C346.296 135.844 347.444 137.833 342.165 145.714L306.511 151.452Z" fill="#FFF4B3"/>
<path d="M302.839 245.026C301.614 214.115 302.38 188.407 303.374 174.712C298.248 171.345 295.876 168.744 294.881 167.29C294.675 167.01 294.569 166.668 294.584 166.32C294.598 165.973 294.729 165.64 294.958 165.377C303.068 155.202 310.031 146.326 317.299 142.195C324.568 138.063 334.514 136.992 350.352 152.753C350.503 152.955 350.578 153.204 350.565 153.456C350.551 153.707 350.448 153.947 350.275 154.13C349.018 155.379 347.689 156.554 346.297 157.65C349.51 163.388 354.178 172.11 354.178 172.11H357.85C360.204 172.11 362.461 173.045 364.126 174.71C365.79 176.374 366.725 178.631 366.725 180.986C366.802 188.101 365.119 196.671 361.829 207.688C376.519 219.624 372.923 244.949 372.923 244.949L302.839 245.026Z" fill="#29CC7A"/>
<path d="M361.829 207.688C362.288 206.081 362.747 204.627 363.13 203.097L351.576 209.524C351.576 209.524 333.29 197.206 302.609 189.555C302.074 203.786 301.997 223.067 302.839 245.025H372.923C372.923 245.025 376.519 219.624 361.829 207.688Z" fill="#8CD9FF"/>
<path d="M364.736 210.519C363.844 209.499 362.871 208.552 361.829 207.688C362.288 206.081 362.747 204.627 363.129 203.097L351.576 209.524C351.576 209.524 333.29 197.206 302.609 189.555C302.533 191.314 302.456 193.227 302.456 195.14C325.945 204.857 338.569 221.536 340.023 245.025H357.391C360.451 231.559 362.9 219.777 364.736 210.519Z" fill="#BAE8FF"/>
<path d="M311.867 180.603H312.173C312.326 180.45 312.479 180.374 312.555 180.144L319.212 158.645C319.256 158.554 319.281 158.456 319.284 158.355C319.286 158.254 319.267 158.154 319.226 158.062C319.186 157.97 319.126 157.887 319.051 157.821C318.975 157.754 318.887 157.705 318.789 157.677C318.693 157.648 318.591 157.642 318.492 157.656C318.392 157.671 318.297 157.708 318.213 157.764C318.13 157.82 318.059 157.893 318.007 157.98C317.955 158.065 317.922 158.162 317.911 158.262L311.484 179.073C308.707 177.889 306.044 176.454 303.527 174.788H303.374C303.374 175.248 303.297 175.783 303.297 176.242C305.941 177.943 308.732 179.403 311.637 180.603H311.867Z" fill="black"/>
<path d="M340.33 146.02L312.939 148.009C343.543 153.824 344.844 154.665 340.33 146.02Z" fill="black"/>
<path d="M355.479 226.204L352.572 199.042C352.514 198.563 352.277 198.122 351.907 197.81C351.539 197.498 351.065 197.336 350.582 197.359H347.675L346.374 194.834C345.972 194.139 345.334 193.61 344.577 193.344C343.819 193.077 342.991 193.09 342.243 193.381C341.471 193.709 340.845 194.307 340.483 195.064C334.744 207.382 331.914 227.657 331.378 231.483C331.366 231.662 331.411 231.84 331.507 231.992C331.604 232.143 331.746 232.26 331.914 232.325L348.44 237.604C348.532 237.652 348.636 237.672 348.739 237.662C348.842 237.652 348.94 237.612 349.021 237.547C349.102 237.482 349.163 237.395 349.196 237.296C349.228 237.198 349.231 237.092 349.205 236.992L348.593 229.264L354.714 227.351C354.956 227.281 355.165 227.127 355.305 226.917C355.445 226.707 355.506 226.455 355.479 226.204Z" fill="#EB459F"/>
<path d="M341.324 204.551L338.799 230.947" stroke="#D11583" stroke-width="1.53022" stroke-miterlimit="10" stroke-linecap="round"/>
<path d="M333.485 165.922C334.542 165.494 334.732 163.496 333.909 161.459C333.086 159.422 331.562 158.117 330.504 158.544C329.446 158.971 329.256 160.969 330.079 163.006C330.902 165.044 332.426 166.349 333.485 165.922Z" fill="black"/>
<path d="M341.371 170.152C342.736 167.575 342.57 164.813 341.002 163.982C339.433 163.152 337.056 164.568 335.691 167.145C334.327 169.721 334.493 172.483 336.061 173.314C337.629 174.144 340.007 172.728 341.371 170.152Z" stroke="white" stroke-width="1.53022" stroke-miterlimit="10"/>
<path d="M352.638 170.167C354.002 167.591 353.837 164.829 352.268 163.998C350.7 163.168 348.322 164.583 346.958 167.16C345.594 169.737 345.759 172.499 347.328 173.329C348.896 174.159 351.274 172.744 352.638 170.167Z" stroke="white" stroke-width="1.53022" stroke-miterlimit="10"/>
<path d="M344.899 165.551C345.604 165.267 345.534 163.448 344.742 161.489C343.951 159.53 342.738 158.173 342.032 158.458C341.328 158.743 341.397 160.561 342.189 162.521C342.98 164.479 344.194 165.837 344.899 165.551Z" fill="black"/>
<path d="M352.188 185.576C346.281 185.596 340.548 183.567 335.968 179.837C331.224 175.935 333.137 175.476 336.121 175.4C339.105 175.323 353.412 175.859 357.544 176.471C361.675 177.083 362.441 185.27 352.188 185.576Z" fill="#912869"/>
<path d="M352.188 185.576C346.281 185.596 340.548 183.567 335.968 179.837C331.224 175.935 333.137 175.476 336.121 175.4C339.105 175.323 353.412 175.859 357.544 176.471C361.675 177.083 362.441 185.27 352.188 185.576Z" fill="#611B46"/>
<path d="M351.882 194.145L351.576 191.314C353.737 191.142 355.843 190.544 357.773 189.555" stroke="black" stroke-width="1.53022" stroke-linecap="round" stroke-linejoin="round"/>
<path d="M355.019 185.193C350.887 181.215 345.302 178.231 334.973 178.919C343.848 187.106 353.106 185.729 355.019 185.193Z" fill="#EB459F"/>
<path d="M341.859 167.443H346.526" stroke="white" stroke-width="1.53022" stroke-miterlimit="10"/>
<path d="M334.821 168.361L315.081 160.328C314.667 160.167 314.22 160.11 313.779 160.159C313.338 160.208 312.915 160.364 312.547 160.611C312.179 160.859 311.876 161.193 311.665 161.583C311.453 161.973 311.339 162.409 311.332 162.853C311.323 163.375 311.471 163.888 311.758 164.325C312.044 164.761 312.456 165.101 312.938 165.301L314.239 165.913" stroke="white" stroke-width="1.53022" stroke-miterlimit="10" stroke-linecap="round"/>
<path d="M330.689 158.338C332.241 158.378 333.791 158.171 335.279 157.726" stroke="black" stroke-width="1.53022" stroke-miterlimit="10" stroke-linecap="round"/>
<path d="M342.166 158.338C343.145 158.363 344.116 158.154 344.997 157.726" stroke="black" stroke-width="1.53022" stroke-miterlimit="10" stroke-linecap="round"/>
<path d="M309.113 148.774C336.427 148.392 345.685 145.331 353.489 142.5C361.294 139.669 360.528 137.451 354.561 137.68C348.593 137.91 328.164 145.714 309.113 148.774Z" fill="#FFF4B3"/>
<path d="M302.379 197.588L302.226 205.086L305.975 203.633C305.975 203.633 325.945 195.293 330.688 194.145C335.432 192.998 339.946 195.217 346.756 197.818C353.565 200.419 351.805 202.791 349.663 205.086C347.521 207.382 347.597 207.229 336.35 207.229C314.851 222.761 308.271 231.865 299.472 231.865C294.193 231.865 289.678 229.494 286.312 219.088C282.945 208.683 289.219 203.939 302.379 197.588Z" fill="#29CC7A"/>
<path d="M377.283 206.158L365.806 192.31L346.219 211.82L360.068 223.373C359.915 224.674 360.068 225.668 360.757 226.357C362.822 228.423 368.867 225.745 374.299 220.389C379.731 215.033 382.333 208.912 380.267 206.847C379.578 206.158 378.584 206.005 377.283 206.158Z" fill="white"/>
<path d="M358.589 204.687C363.968 199.309 367.165 193.786 365.73 192.352C364.297 190.917 358.774 194.115 353.395 199.494C348.017 204.871 344.82 210.394 346.254 211.829C347.688 213.262 353.211 210.065 358.589 204.687Z" fill="white"/>
<path d="M357.259 203.375C362.129 198.505 365.399 193.878 364.562 193.042C363.726 192.206 359.099 195.475 354.229 200.346C349.359 205.216 346.089 209.842 346.925 210.679C347.762 211.516 352.389 208.245 357.259 203.375Z" fill="#BAE8FF"/>
<path d="M376.212 200.343C379.502 200.802 380.803 203.786 379.502 207.765C379.355 208.188 379.101 208.566 378.764 208.863C378.427 209.159 378.019 209.364 377.581 209.455C377.142 209.548 376.687 209.526 376.259 209.39C375.832 209.254 375.446 209.011 375.141 208.683C374.384 207.88 373.926 206.842 373.842 205.742C373.759 204.641 374.055 203.547 374.682 202.638L376.212 200.343Z" fill="#29CC7A"/>
<path d="M370.475 198.047C370.322 200.878 368.639 203.709 367.414 205.545C367.084 206.061 366.935 206.671 366.99 207.281C367.046 207.89 367.303 208.464 367.72 208.912L368.332 209.447C368.531 209.651 368.77 209.812 369.033 209.923C369.296 210.033 369.577 210.09 369.863 210.09C370.147 210.09 370.43 210.033 370.692 209.923C370.955 209.812 371.193 209.651 371.393 209.447C373.698 207.343 375.323 204.6 376.06 201.567C376.978 197.435 373.994 194.528 368.792 195.905L370.475 198.047Z" fill="#29CC7A"/>
<path d="M309.113 148.774L318.447 148.009L340.865 143.571L335.28 138.062H308.577L309.113 148.774Z" fill="#FFF4B3"/>
<path d="M354.331 177.007L348.976 176.701C349.588 179.914 351.118 181.598 352.419 181.062C353.719 180.526 354.178 177.696 354.331 177.007Z" fill="white"/>
<path d="M337.804 176.318C338.493 179.99 339.87 181.903 341.171 181.291C342.472 180.679 342.778 177.619 343.007 176.394L337.804 176.318Z" fill="white"/>
<path d="M561.675 247.626H208.882" stroke="#2835BD" stroke-width="6.12089" stroke-linecap="round" stroke-linejoin="round"/>
<path d="M346.68 210.289C346.738 210.447 346.845 210.582 346.986 210.672C347.063 210.672 347.063 210.672 347.063 210.748C347.063 210.825 352.572 208.071 357.315 203.327V203.174L354.331 200.266L351.883 197.742L348.669 197.895L342.396 195.523L342.166 196.058C344.844 196.976 345.379 206.617 346.68 210.289Z" fill="#EB459F"/>
<path d="M347.675 197.435C348.966 200.049 350.116 202.731 351.118 205.469C351.171 205.592 351.255 205.7 351.362 205.78C351.47 205.861 351.596 205.912 351.73 205.928H351.959C352.12 205.861 352.253 205.741 352.337 205.588C352.421 205.435 352.449 205.258 352.419 205.086C352.342 204.857 350.659 200.419 349.129 197.435H347.675Z" fill="#D11583"/>
<path d="M348.592 229.417H348.439L342.548 231.177C342.439 231.21 342.34 231.269 342.261 231.349C342.181 231.429 342.122 231.527 342.089 231.636C342.067 231.761 342.076 231.889 342.116 232.009C342.157 232.13 342.226 232.238 342.318 232.325L347.521 236.839C347.552 236.912 347.607 236.974 347.676 237.015C347.744 237.056 347.824 237.075 347.904 237.068C348.004 237.071 348.104 237.052 348.197 237.013C348.289 236.973 348.372 236.914 348.439 236.839C348.501 236.769 348.549 236.688 348.579 236.6C348.609 236.511 348.621 236.418 348.614 236.325C348.607 236.232 348.581 236.142 348.538 236.058C348.494 235.976 348.435 235.903 348.363 235.844L344.078 232.095L348.669 230.718L348.592 229.417Z" fill="#D11583"/>
<path d="M301.997 204.857L291.209 209.983" stroke="black" stroke-width="1.53022" stroke-linecap="round" stroke-linejoin="round"/>
<path d="M344.001 139.976C332.209 143.135 320.256 145.664 308.194 147.55" stroke="#FFC619" stroke-width="1.53022" stroke-miterlimit="10" stroke-linecap="round"/>
<path d="M353.565 213.273L361.828 220.848C362.088 221.076 362.414 221.213 362.76 221.241C363.104 221.268 363.448 221.184 363.741 221.001C363.926 220.869 364.081 220.697 364.192 220.499C364.303 220.3 364.368 220.079 364.382 219.851C364.397 219.624 364.361 219.396 364.276 219.185C364.192 218.973 364.061 218.783 363.894 218.629L355.861 210.901C355.615 210.679 355.307 210.536 354.978 210.496C354.65 210.454 354.317 210.516 354.024 210.672L353.795 210.825C353.59 210.949 353.418 211.119 353.291 211.321C353.163 211.523 353.085 211.753 353.063 211.991C353.041 212.229 353.075 212.469 353.162 212.692C353.249 212.914 353.387 213.113 353.565 213.273Z" fill="#BAE8FF"/>
<path d="M374.3 207.076C375.695 205.224 376.567 203.03 376.824 200.726" stroke="black" stroke-width="1.53022" stroke-linecap="round" stroke-linejoin="round"/>
<path d="M442.157 101.285C442.854 97.9774 440.671 94.7166 437.281 94.0022C433.89 93.2877 430.576 95.39 429.879 98.6978C429.182 102.006 431.365 105.266 434.756 105.981C438.147 106.695 441.46 104.593 442.157 101.285Z" fill="#2A39D4"/>
<path d="M483.097 158.109C488.683 158.415 495.416 160.71 503.832 170.044C508.576 165.301 510.871 166.601 517.221 172.034C523.572 177.466 537.191 187.795 540.557 191.238C543.924 194.681 546.449 202.103 537.267 207.688C528.086 213.273 511.789 203.021 503.22 197.053C494.651 191.085 483.097 184.122 483.097 184.122V158.109Z" fill="#2331B5"/>
<path d="M514.696 169.891C516.921 173.556 518.792 177.424 520.281 181.444C522.041 186.953 519.822 190.167 515.308 193.916C510.794 197.665 508.958 196.823 506.586 194.91C506.443 194.828 506.275 194.801 506.112 194.833C505.951 194.864 505.806 194.953 505.704 195.083C505.601 195.213 505.549 195.375 505.557 195.54C505.565 195.704 505.631 195.861 505.744 195.981C506.957 197.046 508.494 197.666 510.105 197.741C512.018 197.741 513.931 196.823 516.226 194.91C520.128 191.62 523.801 187.871 521.506 180.985C520.655 178.508 519.606 176.102 518.369 173.793C517.887 172.867 517.239 172.036 516.456 171.345L514.696 169.891Z" fill="#3442D9"/>
<path d="M503.144 192.768C507.275 196.747 517.145 203.786 517.145 203.786" stroke="black" stroke-width="1.53022" stroke-miterlimit="10" stroke-linecap="round"/>
<path d="M462.579 157.132C482.37 151.494 494.294 132.461 489.212 114.621C484.131 96.7798 463.966 86.8875 444.175 92.5251C424.384 98.1628 412.46 117.196 417.542 135.036C422.624 152.877 442.788 162.769 462.579 157.132Z" fill="#FF78B9"/>
<path d="M427.321 121.154C427.321 128.499 430.84 135.002 435.201 135.691C439.562 136.38 440.633 132.554 440.786 125.438C440.786 123.602 440.863 121.766 441.016 119.853C441.475 113.273 439.103 109.677 435.201 109.065C431.299 108.453 427.321 113.809 427.321 121.154Z" fill="white"/>
<path d="M459.761 121.613C459.005 120.628 458.556 119.441 458.475 118.201C458.394 116.962 458.681 115.726 459.302 114.65C465.423 104.245 471.009 103.862 474.987 104.092C478.966 104.321 482.026 108.07 478.736 117.558C483.403 122.608 481.491 127.275 474.834 127.887C468.178 128.499 464.582 127.963 459.761 121.613Z" fill="#D11583"/>
<path d="M503.526 223.602C504.444 198.506 496.41 195.293 495.645 187.795C494.88 180.297 494.115 170.197 485.852 159.333C485.852 159.333 486.847 149.157 487.382 142.347C487.396 142.079 487.35 141.811 487.249 141.563C487.147 141.314 486.993 141.091 486.796 140.909C486.599 140.726 486.365 140.589 486.109 140.507C485.853 140.425 485.583 140.4 485.316 140.434C479.954 141.288 474.522 141.621 469.096 141.429C459.762 141.123 447.137 140.205 433.671 153.288L438.033 159.409L437.726 159.945C437.511 160.313 437.378 160.726 437.339 161.151C437.301 161.577 437.356 162.007 437.502 162.408C437.648 162.81 437.882 163.175 438.185 163.476C438.489 163.778 438.854 164.009 439.257 164.153L440.098 164.459C440.098 164.459 427.78 171.88 431.453 188.636C435.125 205.392 431.223 221.613 437.42 226.586C438.674 227.582 440.163 228.239 441.745 228.494C443.326 228.749 444.946 228.592 446.449 228.039L474.834 243.189C485.163 254.589 499.853 267.366 499.853 267.366L488.53 294.375L500.466 324.443C510.642 299.501 524.031 275.017 526.403 263.694C528.775 252.37 521.124 245.714 503.526 223.602Z" fill="#2331B5"/>
<path d="M492.355 309.065C498.017 291.544 504.367 275.706 506.28 271.115C506.442 270.712 506.477 270.27 506.381 269.846C506.286 269.423 506.063 269.038 505.744 268.743C489.218 252.905 485.316 247.473 485.316 247.473" stroke="#3442D9" stroke-width="1.53022" stroke-miterlimit="10"/>
<path d="M448.667 212.814L438.415 205.852C438.415 205.852 444.612 197.359 448.055 192.233L448.897 190.932C448.93 190.855 448.978 190.785 449.039 190.727C449.101 190.669 449.172 190.624 449.251 190.596C449.33 190.567 449.414 190.555 449.498 190.56C449.583 190.565 449.664 190.588 449.739 190.626C449.879 190.692 449.994 190.803 450.063 190.942C450.133 191.081 450.153 191.239 450.121 191.391C447.902 204.933 448.667 212.814 448.667 212.814Z" fill="black"/>
<path d="M487.229 143.648C481.796 145.485 474.604 145.408 466.035 145.179C457.466 144.949 448.82 144.72 434.666 154.666L436.961 157.956C450.044 148.698 457.083 148.928 465.959 149.157C474.834 149.387 481.108 149.463 486.923 147.933C486.999 146.479 487.152 145.026 487.229 143.648Z" fill="#3442D9"/>
<path d="M483.098 222.378C483.268 222.379 483.433 222.317 483.56 222.204C483.687 222.091 483.768 221.935 483.786 221.765C483.939 209.447 479.272 196.899 477.283 192.079C475.195 187.114 473.929 181.843 473.534 176.471C472.922 169.508 471.468 164.076 470.55 161.934L473.151 141.429H471.774L469.173 162.163V162.316C470.014 164.153 471.545 169.585 472.157 176.624C472.561 182.118 473.826 187.514 475.906 192.615C477.972 197.358 482.562 209.677 482.409 221.689C482.409 221.872 482.482 222.047 482.611 222.176C482.741 222.305 482.916 222.378 483.098 222.378Z" fill="black"/>
<path d="M527.322 341.735C527.049 341.331 526.686 340.996 526.26 340.757C525.836 340.518 525.361 340.382 524.873 340.358C525.332 337.603 524.797 335.308 521.201 334.466C517.049 333.571 512.742 333.702 508.653 334.849C501.614 316.792 487.689 269.203 477.972 234.466L446.449 228.04C446.143 236.685 451.805 255.737 455.937 272.11C460.068 288.483 469.173 322.76 471.698 335.155C473.228 342.653 475.447 351.605 475.447 351.605H504.674C513.244 351.605 524.261 348.238 526.403 346.555C528.546 344.872 528.087 343.112 527.322 341.735Z" fill="#2331B5"/>
<path d="M480.42 333.931C471.391 305.469 458.231 267.213 450.198 228.346" stroke="#3442D9" stroke-width="1.53022" stroke-miterlimit="10"/>
<path d="M465.423 223.602C465.577 221.383 462.516 213.044 458.844 206.999C455.171 200.955 453.335 196.67 449.892 198.659C446.449 200.649 438.415 205.851 438.415 205.851C438.415 205.851 444.612 197.359 448.055 192.233C455.477 181.062 452.876 165.683 440.098 164.459C429.616 170.274 428.01 175.247 418.063 192.768C408.117 210.289 402.225 228.958 412.937 236.685C423.648 244.413 433.977 239.057 453.258 230.565C461.598 226.969 465.347 225.897 465.423 223.602Z" fill="#2331B5"/>
<path d="M453.411 229.417C451.268 228.423 449.355 225.209 447.06 218.629C443.235 207.535 442.24 204.169 444.612 201.873L443.158 202.791C442.815 202.999 442.528 203.29 442.328 203.638C442.127 203.986 442.018 204.379 442.01 204.781C441.934 207.688 443.388 211.973 445.836 219.088C447.366 223.526 448.743 226.51 450.197 228.346C450.75 229.123 451.556 229.685 452.476 229.937C453.397 230.188 454.376 230.112 455.247 229.723C454.619 229.785 453.985 229.679 453.411 229.417Z" fill="#3442D9"/>
<path d="M458.843 206.999C455.247 200.955 453.334 196.67 449.891 198.66C446.448 200.649 428.851 211.743 428.851 211.743" stroke="black" stroke-width="1.53022" stroke-miterlimit="10" stroke-linecap="round"/>
<path d="M498.4 163.005C496.037 147.105 495.14 131.021 495.722 114.956C495.739 114.443 495.636 113.933 495.421 113.467C495.206 113.001 494.885 112.592 494.483 112.273C494.081 111.953 493.611 111.732 493.109 111.626C492.606 111.521 492.087 111.535 491.59 111.666L472.539 117.022" stroke="#66BCFF" stroke-width="3.06044" stroke-miterlimit="10" stroke-linecap="round"/>
<path d="M486.157 164.306C487.994 167.826 491.284 174.1 491.972 176.166C492.202 179.379 492.049 184.888 492.049 186.571C492.057 186.727 492.113 186.876 492.209 187C492.304 187.122 492.436 187.213 492.584 187.26C497.787 188.025 500.006 188.101 502.148 187.872C504.291 187.642 507.274 186.648 509.34 186.036C509.56 185.95 509.738 185.782 509.838 185.569C509.938 185.355 509.951 185.111 509.876 184.888C507.963 178.614 506.662 174.1 506.662 174.1C506.28 166.296 506.203 160.098 506.203 158.033C506.203 157.83 506.123 157.635 505.979 157.492C505.836 157.348 505.642 157.267 505.438 157.267C498.323 156.808 495.874 156.808 493.273 156.961C490.672 157.114 489.83 158.645 486.234 162.929C486.074 163.12 485.98 163.357 485.966 163.605C485.952 163.854 486.02 164.1 486.157 164.306Z" fill="white"/>
<path d="M509.111 185.424C509.111 185.424 509.953 185.73 509.341 186.036C509.56 185.95 509.738 185.782 509.838 185.569C509.938 185.355 509.951 185.111 509.876 184.888C507.963 178.614 506.663 174.1 506.663 174.1C506.28 166.296 506.204 160.098 506.204 158.033C506.204 157.83 506.123 157.635 505.979 157.492C505.836 157.348 505.642 157.267 505.438 157.267C498.323 156.808 495.875 156.808 493.273 156.961C492.72 156.999 492.178 157.128 491.667 157.344L498.399 171.575L497.94 184.658L509.111 185.424Z" fill="#FFE75C"/>
<path d="M498.782 185.041C500.083 189.708 501.231 192.998 504.138 193.61C507.045 194.222 510.488 191.238 514.926 186.8C519.364 182.363 517.833 178.614 515.921 175.094C514.008 171.575 513.702 167.137 511.33 165.301C508.394 163.142 505.24 161.295 501.919 159.792C499.241 158.644 497.635 158.644 493.579 163.235C489.524 167.826 487.153 170.503 487.841 172.34C488.53 174.176 489.677 176.165 489.677 176.165C487.841 178.002 487.841 179.532 488.606 181.445C489.371 183.357 489.677 185.117 493.579 185.117L498.782 185.041Z" fill="#FF78B9"/>
<path d="M489.83 175.324L500.541 165.225" stroke="black" stroke-width="1.53022" stroke-miterlimit="10" stroke-linecap="round"/>
<path d="M499.624 179.303C497.218 180.821 494.713 182.175 492.126 183.358C492.049 184.812 492.049 185.959 492.049 186.572C492.058 186.728 492.114 186.877 492.209 187C492.306 187.123 492.436 187.213 492.585 187.26C497.788 188.025 500.006 188.102 502.149 187.872C504.291 187.643 507.275 186.648 509.341 186.036C509.56 185.95 509.739 185.783 509.838 185.569C509.938 185.356 509.951 185.112 509.876 184.888L509.417 183.358C506.003 182.403 502.714 181.042 499.624 179.303Z" fill="white"/>
<path d="M509.416 183.358C506.001 182.403 502.713 181.042 499.623 179.303L498.092 180.298L497.939 184.506C497.959 184.559 497.989 184.607 498.029 184.647C498.069 184.686 498.116 184.716 498.169 184.735L509.11 185.424C509.11 185.424 509.952 185.73 509.34 186.036C509.568 185.953 509.759 185.79 509.875 185.577C509.875 185.5 509.952 185.347 509.952 185.271C509.964 185.138 509.937 185.006 509.875 184.888L509.416 183.435V183.358Z" fill="#FFE75C"/>
<path d="M452.569 200.572C454.976 197.77 456.75 194.482 457.771 190.932C458.536 188.637 459.378 185.347 459.684 184.123C459.99 182.898 461.444 182.21 463.204 182.592C464.963 182.975 465.729 183.281 465.422 186.418C465.116 189.555 464.428 196.976 464.428 196.976L452.569 200.572Z" fill="#FF78B9"/>
<path d="M487.764 202.409C486.616 199.272 486.08 197.665 485.086 196.364C484.091 195.064 483.173 194.834 478.735 194.605C476.976 194.528 473.609 194.605 471.39 194.681C475.751 193.533 480.419 192.539 481.413 192.233C482.408 191.927 484.397 191.621 483.709 189.708C483.02 187.795 482.408 187.336 481.337 187.336C478.592 187.283 475.848 187.514 473.15 188.025C469.214 188.796 465.349 189.896 461.597 191.315C459.378 192.233 456.547 196.364 452.569 200.572C454.328 206.77 458.536 216.257 462.821 220.771C468.483 218.553 471.849 213.656 473.227 211.82C480.342 210.595 482.79 211.36 486.769 211.896C489.217 212.202 489.447 210.442 489.6 209.601C489.753 208.759 488.758 205.316 487.764 202.409Z" fill="#FF78B9"/>
<path d="M429.616 121.23C429.386 124.443 430.458 127.121 431.988 127.274C433.518 127.427 434.283 126.203 434.36 123.219C434.395 121.958 434.549 120.703 434.819 119.47C435.354 116.792 434.207 115.798 432.906 115.721C431.605 115.645 429.845 118.093 429.616 121.23Z" fill="black"/>
<path d="M455.86 83.4341C457.447 83.1044 459.101 83.3655 460.51 84.1685C461.919 84.9715 462.986 86.2611 463.511 87.7952C464.658 91.3913 465.653 96.8235 459.532 97.8182C456.931 98.2007 454.253 97.0531 450.121 93.8396C447.137 91.4678 443.924 90.6261 436.961 94.2222C433.212 91.6208 435.049 84.9643 445.225 88.3308C440.787 82.5925 442.088 78.6139 445.301 77.4663C448.515 76.3186 453.335 76.9307 455.86 83.4341Z" fill="#2A39D4"/>
<path d="M455.86 94.4517C453.641 91.6973 451.805 88.0248 450.275 84.8879C448.744 81.7509 447.214 78.461 445.531 77.4663H445.301C444.7 77.6764 444.151 78.016 443.695 78.461L444.23 78.3079C445.684 78.4609 447.291 81.8274 449.05 85.4234C450.81 89.0195 452.493 92.3859 454.789 95.2934C455.56 96.2059 456.433 97.0273 457.39 97.7417C458.096 97.8815 458.819 97.9073 459.532 97.8182H459.609C458.2 96.8878 456.936 95.7533 455.86 94.4517Z" fill="black"/>
<path d="M463.587 95.523C463.259 96.0038 462.844 96.419 462.363 96.7471C462 91.6676 459.731 86.9127 456.012 83.4342C456.588 83.2934 457.186 83.2674 457.772 83.3577C460.974 86.6781 463.014 90.9461 463.587 95.523Z" fill="black"/>
<path d="M471.391 333.473C471.467 334.085 471.62 334.621 471.697 335.156C473.227 342.654 475.446 351.606 475.446 351.606H504.673C513.242 351.606 524.26 348.24 526.402 346.556C528.544 344.873 528.085 343.113 527.32 341.736C527.047 341.332 526.684 340.997 526.259 340.758C525.834 340.519 525.359 340.383 524.872 340.359C525.331 337.605 524.795 335.309 521.199 334.468C517.048 333.572 512.741 333.703 508.652 334.85C507.58 332.019 506.28 328.5 504.902 324.445C492.049 324.215 478.965 323.144 471.391 333.473Z" fill="#45AAF7"/>
<path d="M471.391 333.473C471.467 334.085 471.62 334.621 471.697 335.156C473.227 342.654 475.446 351.606 475.446 351.606H504.673C513.242 351.606 524.26 348.24 526.402 346.556C528.544 344.873 528.085 343.113 527.32 341.736C527.047 341.332 526.684 340.997 526.259 340.758C525.834 340.519 525.359 340.383 524.872 340.359C525.331 337.605 524.795 335.309 521.199 334.468C517.048 333.572 512.741 333.703 508.652 334.85C507.58 332.019 506.28 328.5 504.902 324.445C492.049 324.215 478.965 323.144 471.391 333.473Z" fill="#45AAF7"/>
<path d="M508.652 334.85L507.657 335.079H507.504L499.164 336.762C499.03 336.585 498.951 336.372 498.935 336.15C498.306 333.987 497.971 331.747 497.94 329.494C497.863 324.827 495.415 324.368 491.207 324.444L491.437 323.909C492.002 322.426 493.01 321.153 494.325 320.263C495.639 319.374 497.195 318.91 498.782 318.935H505.744C506.152 318.941 506.553 319.035 506.921 319.209C507.289 319.384 507.615 319.636 507.876 319.949C508.137 320.261 508.329 320.626 508.436 321.019C508.544 321.412 508.565 321.824 508.499 322.225C507.657 325.821 507.427 330.259 508.269 333.549C508.351 333.995 508.479 334.431 508.652 334.85Z" fill="#8CD9FF"/>
<path d="M479.119 339.516C478.08 339.168 476.981 339.035 475.889 339.128C474.796 339.22 473.735 339.534 472.769 340.052C472.835 340.519 472.936 340.979 473.075 341.429C473.899 340.914 474.826 340.585 475.792 340.466C476.757 340.347 477.736 340.441 478.66 340.741C482.945 342.194 486.082 347.78 487.688 351.605H489.142C487.459 347.627 484.092 341.2 479.119 339.516Z" fill="#5865F2"/>
<path d="M527.091 345.867L526.402 346.555C524.26 348.239 513.243 351.605 504.673 351.605H487.229V351.299C507.275 350.993 520.894 342.653 525.561 342.653C527.091 342.653 528.009 344.949 527.091 345.867Z" fill="black"/>
<path d="M507.886 182.286C508.976 183.749 510.548 184.779 512.324 185.194" stroke="black" stroke-width="1.53022" stroke-miterlimit="10" stroke-linecap="round"/>
<path d="M474.299 176.395C473.538 176.398 472.803 176.118 472.237 175.609C471.671 175.1 471.316 174.398 471.239 173.64L470.627 166.678H472.004L476.059 173.334C476.231 173.645 476.319 173.994 476.315 174.35C476.312 174.704 476.217 175.052 476.04 175.359C475.863 175.667 475.61 175.923 475.306 176.105C475 176.286 474.654 176.386 474.299 176.395Z" fill="#FFE75C"/>
<path d="M440.098 164.459H447.596" stroke="black" stroke-width="1.53022" stroke-miterlimit="10" stroke-linecap="round"/>
<path d="M482.715 251.376C481.797 248.086 480.42 243.419 480.42 243.419C486.572 239.407 492.428 234.958 497.941 230.106C497.941 230.106 491.59 244.184 488.759 257.267L482.715 251.376Z" fill="black"/>
<path d="M499.853 267.367L507.274 267.061" stroke="black" stroke-width="1.53022" stroke-miterlimit="10" stroke-linecap="round"/>
<path d="M508.652 334.849L507.658 335.079H507.505C504.18 335.864 500.91 336.861 497.711 338.063H497.482C497.346 338.055 497.216 338.007 497.106 337.926C496.998 337.845 496.915 337.732 496.87 337.604C496.834 337.524 496.815 337.437 496.815 337.35C496.815 337.262 496.833 337.175 496.869 337.095C496.906 337.016 496.959 336.945 497.024 336.887C497.091 336.829 497.168 336.787 497.252 336.762L498.936 336.073C501.99 335.011 505.107 334.143 508.27 333.472C508.346 333.944 508.474 334.406 508.652 334.849Z" fill="black"/>
<path d="M487.994 203.021L487.764 202.409L487.458 201.644C480.802 200.955 473.839 200.496 467.03 201.185C466.939 201.195 466.852 201.223 466.772 201.267C466.692 201.31 466.622 201.37 466.565 201.44C466.509 201.512 466.467 201.593 466.441 201.681C466.416 201.768 466.408 201.86 466.418 201.95C466.428 202.04 466.456 202.128 466.5 202.208C466.544 202.287 466.603 202.358 466.674 202.414C466.745 202.472 466.826 202.514 466.913 202.539C467.001 202.564 467.092 202.572 467.183 202.562C474.069 201.797 481.184 202.333 487.994 203.021Z" fill="black"/>
<path d="M436.043 117.788L431.606 119.93L437.803 122.761L436.043 117.788Z" fill="white"/>
<path d="M527.091 345.867C527.55 345.255 527.015 344.872 525.561 344.872C520.894 344.872 507.275 351.299 487.229 351.605H475.446L474.604 348.239C483.786 348.239 493.809 348.086 503.143 345.102C512.477 342.118 518.675 339.593 524.872 340.358C525.36 340.382 525.835 340.518 526.259 340.757C526.685 340.996 527.047 341.331 527.321 341.735C527.735 342.356 527.937 343.094 527.896 343.839C527.855 344.584 527.572 345.296 527.091 345.867Z" fill="white"/>
<path d="M503.143 321.383H504.061C506.203 321.383 507.657 321.459 508.116 321.995C508.575 322.53 508.346 322.76 508.193 323.525C508.259 323.083 508.361 322.649 508.499 322.224C508.565 321.748 508.441 321.266 508.156 320.879C507.87 320.493 507.444 320.234 506.969 320.158H503.143C499.623 320.158 495.645 320.158 493.579 324.673C494.049 324.66 494.516 324.738 494.956 324.902C496.716 321.306 499.853 321.383 503.143 321.383Z" fill="#3442D9"/>
<path d="M474.298 113.58C473.304 115.187 471.544 117.023 467.642 117.788C472.998 117.176 475.293 120.16 475.293 120.16" stroke="black" stroke-width="1.53022" stroke-linecap="round" stroke-linejoin="round"/>
<path d="M374.605 351.605H323.725V340.894C323.717 338.126 324.787 335.464 326.709 333.472L331.759 328.576C332.406 327.966 332.923 327.231 333.278 326.416C333.634 325.6 333.82 324.721 333.825 323.832V311.59C333.831 309.139 334.666 306.762 336.194 304.845C337.722 302.928 339.853 301.584 342.241 301.032C350.428 298.966 358.92 298.583 365.883 299.96C368.347 300.471 370.56 301.814 372.148 303.766C373.738 305.717 374.605 308.156 374.605 310.672V351.605Z" fill="#45AAF7"/>
<path d="M336.809 331.1H337.115C337.235 331.107 337.354 331.083 337.462 331.028C337.569 330.975 337.66 330.894 337.727 330.794C340.022 326.356 340.022 319.47 340.022 312.125C340.022 304.78 340.711 302.026 345.607 300.19L343.006 300.725C342.335 300.877 341.706 301.175 341.164 301.598C340.622 302.021 340.18 302.559 339.869 303.174C338.798 305.316 338.645 308.147 338.645 312.125C338.645 319.317 338.645 326.05 336.503 330.182C336.451 330.259 336.418 330.348 336.405 330.441C336.392 330.533 336.402 330.627 336.431 330.716C336.461 330.805 336.51 330.885 336.575 330.952C336.641 331.018 336.721 331.07 336.809 331.1Z" fill="#BAE8FF"/>
<path d="M374.606 310.672C374.601 308.144 373.723 305.697 372.119 303.744C370.515 301.792 368.285 300.455 365.807 299.96C361.715 299.256 357.556 299.025 353.412 299.271C343.618 299.96 345.073 306.157 345.073 315.186V322.913C345.076 325.496 344.39 328.032 343.083 330.258C341.629 332.63 341.247 335.538 341.247 341.2V351.605H374.606V310.672Z" fill="#3F99F2"/>
<path d="M362.363 339.287C361.904 325.974 355.859 314.345 349.738 303.25C349.582 303.03 349.49 302.771 349.473 302.501C349.456 302.231 349.514 301.963 349.641 301.724C349.768 301.486 349.959 301.288 350.193 301.152C350.426 301.016 350.693 300.948 350.962 300.955H352.493C352.814 300.973 353.126 301.064 353.405 301.224C353.684 301.384 353.922 301.606 354.099 301.873C360.373 313.426 366.953 325.439 367.412 339.287C367.642 346.25 362.363 351.605 355.324 351.605H350.274C357.313 351.605 362.592 346.25 362.363 339.287Z" fill="#3543DE"/>
<path d="M376.748 339.287C376.289 325.974 370.168 314.345 364.124 303.25C363.967 303.03 363.876 302.771 363.858 302.501C363.84 302.231 363.899 301.963 364.026 301.724C364.153 301.486 364.344 301.288 364.578 301.152C364.811 301.016 365.078 300.948 365.348 300.955H366.879C367.19 300.966 367.495 301.055 367.762 301.216C368.03 301.377 368.253 301.602 368.409 301.873C374.759 313.426 381.263 325.439 381.798 339.287C381.873 340.905 381.612 342.521 381.034 344.034C380.456 345.546 379.572 346.924 378.437 348.08C377.303 349.236 375.942 350.146 374.44 350.752C372.939 351.359 371.329 351.649 369.709 351.605H364.659C366.279 351.649 367.889 351.359 369.391 350.752C370.892 350.146 372.253 349.236 373.387 348.08C374.522 346.924 375.406 345.546 375.984 344.034C376.563 342.521 376.822 340.905 376.748 339.287Z" fill="#3543DE"/>
<path d="M364.278 318.629L379.809 321.307C381.034 324.52 381.646 326.663 381.799 328.728C381.952 330.794 379.962 331.942 376.902 333.166C374.705 334.083 372.686 335.379 370.934 336.992C366.497 340.894 362.747 343.265 356.244 343.265C354.943 343.265 354.025 343.342 353.26 342.5C352.448 341.585 351.967 340.422 351.898 339.2C351.829 337.979 352.174 336.769 352.878 335.767C353.664 334.7 354.62 333.77 355.708 333.013C358.021 331.513 359.974 329.522 361.428 327.181C362.884 324.841 363.804 322.208 364.125 319.471C364.201 319.088 364.201 318.858 364.278 318.629Z" fill="#DE3A93"/>
<path d="M376.902 333.166C378.192 332.683 379.403 332.013 380.497 331.177C381.951 329.8 381.339 328.499 378.202 328.575C375.065 328.652 371.775 331.1 365.195 335.155C358.615 339.211 348.822 343.266 356.244 343.266C363.665 343.266 366.496 340.894 370.933 336.992C372.685 335.379 374.704 334.084 376.902 333.166Z" fill="black"/>
<path d="M362.593 313.962C361.445 314.191 361.598 315.492 362.21 316.793C360.986 319.088 361.752 320.006 363.894 320.924C368.222 322.396 372.795 323.019 377.36 322.76C382.027 322.301 381.72 320.771 381.261 319.241C382.868 317.864 382.639 316.257 381.033 315.568C379.426 314.88 370.779 312.202 362.593 313.962Z" fill="#66BCFF"/>
<path d="M397.1 234.084H377.053V245.018H397.1V234.084Z" fill="white"/>
<path d="M437.88 234.314C438.263 235.868 438.287 237.49 437.951 239.056C437.615 240.622 436.926 242.09 435.938 243.351C434.951 244.611 433.689 245.631 432.249 246.332C430.809 247.033 429.229 247.397 427.627 247.397H405.745L395.492 253.135V252.829C390.825 252.829 388.148 251.299 390.214 234.161C389.296 229.34 385.011 210.366 382.639 196.211C380.497 183.281 385.317 178.537 398.63 171.039C404.292 154.206 418.981 155.201 421.812 165.301C424.643 175.4 433.977 218.323 437.88 234.314Z" fill="#66BCFF"/>
<path d="M396.794 258.567L393.275 259.179C393.103 259.213 392.94 259.284 392.796 259.387C392.654 259.488 392.536 259.621 392.448 259.773C392.361 259.925 392.308 260.094 392.292 260.27C392.276 260.444 392.298 260.621 392.357 260.786L393.122 262.699C382.487 263.311 373.229 264.229 369.556 267.443C365.884 270.656 365.884 275.553 364.2 290.166C362.517 304.78 359.763 313.502 364.2 315.491C368.705 317.426 373.633 318.164 378.508 317.634C383.405 317.175 383.864 314.65 384.858 307.075C385.853 299.501 388.224 282.668 388.224 282.668H426.862C436.426 282.668 442.089 276.394 443.389 271.039C444.308 267.213 443.083 258.185 440.865 247.473H405.746L395.493 253.211L396.258 256.501L396.794 258.567Z" fill="#3442D9"/>
<path d="M429.005 247.626C432.83 266.754 433.595 281.138 419.058 287.718" stroke="#2330BF" stroke-width="1.53022" stroke-miterlimit="10"/>
<path d="M398.935 237.986C398.935 237.986 400.542 247.397 402.761 258.567C405.285 271.421 404.597 270.962 387.076 272.11C371.697 273.104 373.074 272.339 369.861 289.86C368.637 296.746 366.494 309.218 367.106 316.104C367.106 316.104 366.418 320.159 366.571 321" stroke="#2467D4" stroke-width="1.53022" stroke-linecap="round" stroke-linejoin="round"/>
<path d="M388.224 282.669C379.732 281.368 375.6 273.717 375.6 273.717" stroke="black" stroke-width="1.53022" stroke-linecap="round" stroke-linejoin="round"/>
<path d="M388.225 282.669C386.487 281.645 384.969 280.285 383.761 278.669C382.553 277.054 381.678 275.215 381.186 273.258" stroke="black" stroke-width="1.53022" stroke-linecap="round" stroke-linejoin="round"/>
<path d="M437.88 234.313C435.891 226.05 432.371 210.748 429.081 196.44L411.943 195.14L398.707 204.474L391.056 214.726L387.154 220.006C388.531 226.586 389.678 231.941 390.137 234.237C388.071 251.375 390.749 252.906 395.416 252.906L408.959 247.167L440.329 244.948C439.564 241.505 438.721 237.909 437.88 234.313Z" fill="#EB459F"/>
<path d="M402.815 225.7C403.78 219.992 403.279 215.148 401.696 214.88C400.113 214.612 398.047 219.022 397.081 224.731C396.116 230.438 396.617 235.282 398.2 235.55C399.783 235.818 401.849 231.408 402.815 225.7Z" fill="black"/>
<path d="M392.816 211.513C393.581 210.136 394.423 208.759 395.265 207.534C403.911 195.063 412.02 191.697 419.824 191.697H429.541C429.687 191.7 429.828 191.739 429.956 191.807C430.083 191.876 430.192 191.975 430.274 192.094C430.356 192.214 430.409 192.351 430.428 192.495C430.447 192.638 430.432 192.785 430.384 192.921L429.082 196.44C414.162 196.44 408.883 195.981 396.488 208.988L391.057 214.726L392.816 211.513Z" fill="#D11583"/>
<path d="M440.329 244.948H415.003C409.341 244.948 402.379 244.642 395.416 252.906L396.258 256.502C400.313 252.6 404.062 250.916 412.172 250.916H441.553L440.329 244.948Z" fill="black"/>
<path d="M396.488 209.447C391.361 210.365 387.306 213.043 385.011 217.787C384.359 219.103 383.418 220.254 382.257 221.153L368.485 231.176C366.937 232.275 365.858 233.915 365.461 235.771C365.064 237.627 365.379 239.564 366.342 241.199C367.014 242.347 367.976 243.297 369.13 243.955C370.286 244.613 371.593 244.956 372.922 244.948H378.661C390.596 238.292 396.105 233.778 398.936 231.176C401.767 228.575 404.904 223.908 404.368 218.552C403.833 213.196 402.302 208.376 396.488 209.447Z" fill="white"/>
<path d="M400.772 169.891C398.936 166.831 396.488 162.776 395.57 160.863C394.652 158.95 392.433 159.409 395.57 167.979C387.919 165.071 386.312 166.142 385.929 167.213C385.547 168.285 387.23 168.82 390.443 170.656C393.657 172.493 397.1 174.712 397.1 174.712L400.772 169.891Z" fill="#66BCFF"/>
<path d="M408.729 170.121C410.029 168.514 410.489 166.755 409.724 166.142C408.959 165.53 408.117 165.836 406.969 167.367C406.474 167.989 405.938 168.577 405.362 169.126C404.062 170.351 404.368 171.269 404.98 171.804C405.592 172.34 407.428 171.728 408.729 170.121Z" fill="black"/>
<path d="M421.735 165.377C421.735 165.377 412.63 161.245 408.728 158.72C404.826 156.196 402.837 152.447 404.597 151.452C406.356 150.457 409.724 152.829 412.096 155.89C412.019 150.457 412.937 149.31 414.391 149.233C415.845 149.157 415.997 151.299 416.073 154.359C416.15 157.42 416.686 158.644 418.982 160.71C420.356 161.947 421.317 163.576 421.735 165.377Z" fill="#3442D9"/>
<path d="M388.301 190.779C386.158 190.779 384.322 188.943 386.005 185.73C387.689 182.516 393.197 179.303 395.875 178.079C398.552 176.854 399.777 178.079 399.854 178.997C399.93 179.915 399.547 181.292 397.634 183.74C395.722 186.189 392.203 190.779 388.301 190.779Z" fill="white"/>
<path d="M389.984 190.55L388.684 190.779L386.848 184.505L387.919 183.358L389.984 190.55Z" fill="#8CD9FF"/>
<path d="M394.728 187.183L393.658 188.254L391.515 180.526L392.663 179.761L394.728 187.183Z" fill="#8CD9FF"/>
<path d="M399.013 181.827L398.018 183.204L396.488 177.849L397.788 177.619L399.013 181.827Z" fill="#8CD9FF"/>
<path d="M397.329 176.931C398.745 177.607 400.202 178.195 401.691 178.69" stroke="black" stroke-width="1.53022" stroke-linecap="round" stroke-linejoin="round"/>
<path d="M395.416 262.164L403.832 272.416" stroke="black" stroke-width="1.53022" stroke-linecap="round" stroke-linejoin="round"/>
<path d="M401.996 259.103H399.013L398.094 254.895L397.252 250.993C398.027 250.233 398.845 249.518 399.701 248.851L400.695 253.135L401.996 259.103Z" fill="#3442D9"/>
<path d="M415.234 255.048H412.25L411.332 250.917L410.108 245.102H413.091L414.316 250.993L415.234 255.048Z" fill="#3442D9"/>
<path d="M439.64 254.895H436.656L435.738 250.917L434.513 244.949H437.497L438.722 250.917L439.64 254.895Z" fill="#3442D9"/>
<path d="M431.453 206.54C429.989 205.379 428.195 204.709 426.328 204.627C422.349 204.627 420.131 208.529 419.365 212.278C419.242 212.88 418.917 213.42 418.444 213.81C417.97 214.2 417.377 214.415 416.764 214.421H416.229C415.883 214.357 415.554 214.225 415.262 214.03C414.969 213.837 414.719 213.586 414.526 213.293C414.333 213 414.201 212.671 414.139 212.326C414.076 211.98 414.085 211.626 414.163 211.284C415.616 204.015 420.36 199.348 426.328 199.348C427.315 199.36 428.269 199.708 429.034 200.333C429.799 200.959 430.328 201.825 430.536 202.791L431.453 206.54Z" fill="white"/>
<path d="M437.88 234.314C438.049 234.998 438.076 235.709 437.961 236.404C437.847 237.099 437.593 237.764 437.213 238.358C436.834 238.952 436.338 239.462 435.756 239.858C435.173 240.255 434.516 240.529 433.825 240.664L431.913 240.817C427.551 240.817 423.036 238.216 419.517 233.702C419.307 233.42 419.153 233.1 419.066 232.76C418.978 232.419 418.959 232.064 419.009 231.716C419.059 231.368 419.176 231.033 419.355 230.731C419.535 230.428 419.772 230.164 420.053 229.953C420.33 229.731 420.65 229.569 420.992 229.476C421.334 229.383 421.692 229.361 422.043 229.411C422.395 229.461 422.731 229.582 423.034 229.768C423.336 229.953 423.598 230.198 423.802 230.488C426.25 233.625 429.235 235.538 431.913 235.538C434.59 235.538 436.197 234.008 437.345 232.018C437.498 232.86 437.727 233.625 437.88 234.314Z" fill="#2331B5"/>
<path d="M432.754 212.432C432.214 212.435 431.688 212.606 431.249 212.921C430.811 213.236 430.481 213.681 430.306 214.192L427.092 222.837C426.812 223.649 426.818 224.533 427.11 225.341C427.403 226.149 427.964 226.831 428.699 227.275C429.032 227.48 429.407 227.607 429.795 227.647C430.183 227.687 430.576 227.639 430.944 227.507C431.311 227.374 431.644 227.161 431.918 226.883C432.192 226.604 432.399 226.267 432.525 225.898L434.591 220.313C434.056 217.788 433.443 215.186 432.754 212.432Z" fill="#5865F2"/>
<path d="M428.699 227.275C427.964 226.831 427.403 226.148 427.11 225.341C426.818 224.533 426.812 223.649 427.092 222.837L428.011 220.465C428.164 220.051 428.406 219.676 428.718 219.363C429.031 219.052 429.408 218.812 429.822 218.659C430.236 218.507 430.678 218.445 431.119 218.48C431.559 218.514 431.987 218.644 432.372 218.859C433.001 219.227 433.483 219.801 433.734 220.486C433.985 221.17 433.991 221.92 433.749 222.608L432.525 225.898C432.399 226.267 432.192 226.604 431.918 226.882C431.644 227.161 431.311 227.374 430.944 227.507C430.576 227.639 430.183 227.687 429.795 227.647C429.407 227.607 429.032 227.48 428.699 227.275Z" fill="#FFE75C"/>
<path d="M388.147 239.517C385.697 241.22 382.945 242.44 380.037 243.113" stroke="#A3D7FF" stroke-width="1.53022" stroke-linecap="round" stroke-linejoin="round"/>
<path d="M417.759 351.605H404.369C396.183 351.605 388.607 345.025 387.46 336.915C386.312 328.805 391.515 324.52 400.314 322.607L401.844 322.225C403.083 321.966 404.176 321.243 404.902 320.206C405.627 319.168 405.929 317.892 405.747 316.64C405.597 315.421 405.04 314.288 404.164 313.426C403.289 312.565 402.147 312.025 400.926 311.896L398.707 311.666C389.22 310.672 382.946 305.086 381.799 296.976C380.651 288.866 386.313 282.669 394.27 282.669H407.659C415.846 282.669 423.42 289.249 424.567 297.359L430.23 337.298C431.301 345.178 425.716 351.605 417.759 351.605Z" fill="#ADB4FF"/>
<path d="M433.289 351.605H419.9C411.713 351.605 404.138 345.025 402.991 336.915C402.525 333.93 403.171 330.879 404.807 328.34C406.444 325.8 408.955 323.951 411.866 323.143C412.94 322.855 413.871 322.18 414.477 321.248C415.085 320.316 415.327 319.193 415.156 318.093L414.773 315.186C414.627 314.261 414.206 313.402 413.565 312.719C412.923 312.037 412.092 311.564 411.177 311.36C404.215 309.907 398.324 304.015 397.329 296.976C396.334 289.937 401.843 282.669 409.8 282.669H423.19C431.376 282.669 438.951 289.249 440.099 297.359L445.76 337.298C446.832 345.178 441.246 351.605 433.289 351.605Z" fill="white"/>
<path d="M429.923 296.135C429.979 296.517 429.951 296.907 429.841 297.277C429.731 297.648 429.543 297.99 429.288 298.281C429.034 298.572 428.719 298.804 428.367 298.962C428.014 299.12 427.631 299.199 427.245 299.195H413.168C412.317 299.172 411.501 298.854 410.859 298.296C410.218 297.737 409.789 296.973 409.648 296.135V295.676C409.578 295.302 409.594 294.916 409.694 294.549C409.794 294.182 409.976 293.842 410.227 293.555C410.477 293.268 410.789 293.041 411.139 292.892C411.489 292.742 411.869 292.674 412.249 292.692H426.403C427.243 292.712 428.05 293.019 428.69 293.562C429.331 294.105 429.766 294.851 429.923 295.676V296.135Z" fill="#66BCFF"/>
<path d="M423.802 301.796C423.87 302.174 423.853 302.563 423.754 302.933C423.654 303.304 423.472 303.648 423.224 303.941C422.975 304.233 422.665 304.467 422.315 304.626C421.966 304.784 421.585 304.863 421.201 304.857H420.819C419.968 304.833 419.152 304.516 418.511 303.957C417.869 303.399 417.44 302.635 417.299 301.796L415.616 290.014C415.559 289.635 415.587 289.249 415.697 288.881C415.807 288.515 415.996 288.177 416.253 287.891C416.508 287.607 416.823 287.382 417.177 287.232C417.53 287.083 417.911 287.014 418.294 287.03H418.677C419.516 287.05 420.323 287.357 420.963 287.9C421.604 288.443 422.038 289.189 422.195 290.014L423.802 301.796Z" fill="#66BCFF"/>
<path d="M425.562 319.547C425.582 319.704 425.572 319.863 425.528 320.015C425.485 320.168 425.411 320.309 425.31 320.431C425.21 320.554 425.085 320.653 424.943 320.725C424.803 320.797 424.648 320.839 424.49 320.848H424.261C423.909 320.82 423.576 320.679 423.314 320.443C423.051 320.208 422.873 319.894 422.807 319.547L422.119 314.65C422.095 314.49 422.107 314.328 422.155 314.174C422.204 314.02 422.286 313.879 422.396 313.761C422.507 313.643 422.642 313.552 422.793 313.494C422.943 313.436 423.105 313.413 423.266 313.426H423.419C423.768 313.422 424.106 313.543 424.373 313.768C424.64 313.992 424.818 314.306 424.872 314.65L425.562 319.547Z" fill="#ADB4FF"/>
<path d="M425.255 335.002C424.416 334.982 423.609 334.675 422.969 334.132C422.328 333.589 421.893 332.843 421.736 332.018V331.559C421.666 331.185 421.682 330.799 421.782 330.432C421.882 330.065 422.065 329.725 422.315 329.438C422.565 329.151 422.877 328.924 423.227 328.775C423.577 328.626 423.957 328.558 424.338 328.575H424.72C425.549 328.591 426.348 328.888 426.986 329.416C427.625 329.943 428.067 330.672 428.24 331.483V332.018C428.296 332.397 428.268 332.783 428.158 333.151C428.048 333.517 427.859 333.855 427.602 334.141C427.347 334.425 427.032 334.65 426.678 334.799C426.325 334.949 425.944 335.017 425.562 335.002H425.255Z" fill="#66BCFF"/>
<path d="M427.245 346.403H426.863C426.02 346.397 425.205 346.095 424.561 345.549C423.919 345.004 423.487 344.25 423.343 343.419V342.73C423.311 342.363 423.356 341.993 423.477 341.645C423.598 341.298 423.792 340.979 424.045 340.712C424.298 340.444 424.605 340.233 424.946 340.093C425.287 339.953 425.653 339.887 426.021 339.899H426.404C427.233 339.915 428.031 340.212 428.671 340.739C429.31 341.267 429.751 341.996 429.923 342.807V343.342C429.993 343.727 429.975 344.122 429.87 344.498C429.766 344.875 429.578 345.223 429.321 345.517C429.064 345.811 428.744 346.043 428.385 346.197C428.025 346.35 427.636 346.42 427.245 346.403Z" fill="#FF78B9"/>
<path d="M425.638 335.002H425.255C424.416 334.982 423.609 334.675 422.969 334.132C422.328 333.589 421.893 332.843 421.736 332.018V331.559C421.666 331.185 421.682 330.799 421.782 330.432C421.882 330.065 422.065 329.725 422.315 329.438C422.565 329.151 422.877 328.924 423.227 328.775C423.577 328.626 423.957 328.558 424.338 328.575H424.72C425.549 328.591 426.348 328.888 426.986 329.416C427.625 329.943 428.067 330.672 428.24 331.483V332.018C428.295 332.391 428.269 332.77 428.163 333.131C428.058 333.493 427.875 333.827 427.627 334.11C427.38 334.394 427.074 334.62 426.73 334.775C426.387 334.929 426.014 335.006 425.638 335.002Z" fill="#5865F2"/>
<path d="M432.906 340.664C432.067 340.644 431.261 340.336 430.62 339.794C429.98 339.251 429.544 338.505 429.388 337.68V337.221C429.317 336.847 429.333 336.461 429.434 336.094C429.534 335.727 429.716 335.387 429.966 335.1C430.216 334.813 430.528 334.586 430.879 334.437C431.229 334.287 431.608 334.219 431.989 334.237H432.372C433.2 334.253 433.999 334.55 434.638 335.078C435.277 335.605 435.718 336.334 435.891 337.144V337.68C435.961 338.054 435.945 338.44 435.844 338.807C435.744 339.174 435.562 339.514 435.312 339.801C435.062 340.088 434.75 340.315 434.399 340.464C434.049 340.613 433.67 340.682 433.289 340.664H432.906Z" fill="#66BCFF"/>
<path d="M433.289 340.664H432.906C432.067 340.644 431.261 340.336 430.62 339.794C429.98 339.251 429.544 338.505 429.388 337.68V337.221C429.317 336.847 429.333 336.461 429.434 336.094C429.534 335.727 429.716 335.387 429.966 335.1C430.216 334.813 430.528 334.586 430.879 334.437C431.229 334.287 431.608 334.219 431.989 334.237H432.372C433.2 334.253 433.999 334.55 434.638 335.078C435.277 335.605 435.718 336.334 435.891 337.144V337.68C435.961 338.054 435.945 338.44 435.844 338.807C435.744 339.174 435.562 339.514 435.312 339.801C435.062 340.088 434.75 340.315 434.399 340.464C434.049 340.613 433.67 340.682 433.289 340.664Z" fill="#5865F2"/>
<path d="M419.594 340.817H419.135C418.294 340.791 417.488 340.47 416.86 339.911C416.231 339.351 415.817 338.589 415.692 337.757V337.068C415.648 336.706 415.683 336.337 415.795 335.989C415.906 335.641 416.092 335.322 416.339 335.052C416.586 334.783 416.889 334.571 417.227 334.43C417.564 334.289 417.928 334.224 418.293 334.237H418.752C419.579 334.275 420.368 334.589 420.993 335.131C421.618 335.673 422.042 336.409 422.195 337.221V337.68C422.277 338.064 422.27 338.461 422.176 338.841C422.081 339.221 421.902 339.576 421.653 339.877C421.403 340.178 421.088 340.42 420.731 340.582C420.374 340.745 419.986 340.826 419.594 340.817Z" fill="#FF78B9"/>
<path d="M295.416 336.303L287.994 332.172C293.82 322.578 300.234 313.353 307.199 304.551C293.503 309.524 279.119 315.722 263.205 315.722H236.579C234.972 312.432 234.513 309.065 234.513 304.015L267.03 292.156L279.349 294.681L279.731 298.201C291.514 295.217 303.679 291.774 312.478 289.708C323.572 287.106 327.321 292.692 320.894 302.026C308.499 320.083 295.416 336.303 295.416 336.303Z" fill="#29CC7A"/>
<path d="M243.924 300.955C243.924 307.458 243.924 312.049 247.061 314.65C247.815 315.335 248.796 315.716 249.815 315.722H253.029C245.225 314.421 245.225 310.213 245.301 300.955V300.343C245.301 300.266 245.225 300.19 245.225 300.113L243.924 300.572V300.955Z" fill="#15AD75"/>
<path d="M295.417 332.86C307.352 317.099 315.003 306.158 318.217 301.031C321.43 295.905 322.502 292.692 306.281 298.2C290.061 303.709 277.743 308.682 274.147 307.305C270.55 305.928 271.851 302.256 272.081 295.752" stroke="#15AD75" stroke-width="1.53022" stroke-linecap="round" stroke-linejoin="round"/>
<path d="M247.674 258.568C242.189 250.125 237.671 241.09 234.208 231.636C233.718 230.063 233.608 228.398 233.887 226.775C234.166 225.152 234.828 223.619 235.815 222.301C241.4 215.568 248.745 211.972 258.538 210.289C259.604 210.172 260.675 210.474 261.522 211.131C273.152 221.307 276.595 232.783 278.584 243.954C278.635 244.599 278.521 245.246 278.253 245.835C277.985 246.423 277.573 246.934 277.054 247.321C271.316 250.84 268.255 251.911 268.255 251.911L269.403 260.404L247.674 258.568Z" fill="#FFE75C"/>
<path d="M258.768 230.029C264.501 230.562 270.198 231.43 275.83 232.63L278.966 233.472C279.082 233.504 279.188 233.566 279.272 233.651C279.357 233.736 279.417 233.842 279.448 233.958C279.479 234.074 279.479 234.197 279.449 234.312C279.418 234.428 279.357 234.534 279.273 234.62L278.584 235.232L279.808 239.975C280.204 241.426 280.103 242.969 279.52 244.355C278.938 245.741 277.908 246.894 276.595 247.627L273.764 249.233L258.768 230.029Z" fill="#FFE75C"/>
<path d="M261.22 235.666C262.676 234.651 262.386 231.721 260.573 229.122C258.76 226.522 256.11 225.238 254.654 226.253C253.199 227.269 253.489 230.199 255.302 232.799C257.116 235.398 259.765 236.682 261.22 235.666Z" fill="#FF78B9"/>
<path d="M270.244 225.056C269.326 224.214 268.331 223.985 267.949 224.367C267.566 224.75 267.796 225.362 268.637 225.974L269.632 226.969C270.321 227.734 270.856 227.581 271.162 227.198C271.468 226.816 271.162 225.821 270.244 225.056Z" fill="black"/>
<path d="M239.869 218.246C238.645 205.928 239.869 201.796 242.471 198.2C245.072 194.604 246.602 195.675 246.143 200.419C245.865 204.138 245.891 207.874 246.22 211.59C248.483 205.793 251.774 200.454 255.937 195.828C257.17 194.333 258.822 193.241 260.68 192.691C262.516 192.232 263.511 193.303 262.976 195.063C262.057 198.047 259.839 202.791 253.871 211.283L254.483 214.65L239.869 218.246Z" fill="#FFE75C"/>
<path d="M275.601 265.836C282.104 268.055 277.513 288.407 277.513 288.407L278.432 289.095C279.183 289.67 279.714 290.485 279.937 291.404C280.16 292.323 280.061 293.29 279.656 294.145L279.35 294.681C274.836 294.681 271.852 295.063 265.731 299.424C259.61 303.785 255.708 304.015 249.434 304.015H234.514V298.965C228.929 296.746 228.47 294.069 230.612 290.626C231.76 288.636 233.596 285.882 234.973 283.816C235.502 283.026 235.869 282.14 236.053 281.207C236.237 280.274 236.233 279.315 236.044 278.384C234.82 271.804 235.815 267.902 235.815 267.902L252.035 263.541L272.617 262.699L275.601 265.836Z" fill="#2331B5"/>
<path d="M275.12 284.577C277.081 284.058 277.77 280.227 276.658 276.019C275.547 271.811 273.055 268.82 271.094 269.338C269.133 269.856 268.445 273.688 269.556 277.895C270.668 282.103 273.159 285.095 275.12 284.577Z" fill="black"/>
<path d="M285.088 332.631C286.924 330.718 290.903 327.504 290.903 327.504C293.428 327.504 297.253 327.963 298.936 334.926L301.002 343.113C308.883 344.566 308.959 346.785 307.888 349.693V350.993C307.888 351.156 307.824 351.312 307.709 351.426C307.594 351.541 307.438 351.605 307.276 351.605H294.116L285.088 332.631Z" fill="white"/>
<path d="M307.276 351.605C307.438 351.605 307.594 351.541 307.709 351.426C307.824 351.311 307.888 351.155 307.888 350.993V349.692C302.685 349.692 298.86 350.228 296.947 346.861C294.894 342.788 293.081 338.598 291.515 334.313C290.826 332.324 289.373 329.952 287.154 330.641L285.088 332.63L294.116 351.605H307.276Z" fill="#FF78B9"/>
<path d="M301.691 351.605C300.307 351.627 298.94 351.293 297.722 350.637C296.503 349.981 295.473 349.024 294.729 347.856C291.898 343.572 290.138 338.445 289.067 335.308C287.996 332.171 284.553 330.947 284.247 334.926C283.94 338.904 286.006 341.965 289.22 349.922C289.397 350.425 289.73 350.859 290.17 351.162C290.61 351.464 291.134 351.62 291.668 351.605H301.691Z" fill="black"/>
<path d="M275.6 265.836L287.689 269.968C288.913 253.059 294.04 248.239 300.008 234.773C304.292 225.209 306.281 220.848 307.123 219.165C307.245 218.884 307.45 218.646 307.709 218.482C307.968 218.318 308.271 218.236 308.577 218.246H309.036C309.271 218.246 309.503 218.294 309.718 218.387C309.933 218.481 310.125 218.619 310.284 218.792C310.442 218.965 310.563 219.169 310.638 219.392C310.713 219.614 310.741 219.849 310.719 220.083C309.958 224.602 308.754 229.036 307.123 233.319C310.719 230.871 312.326 230.871 314.009 233.396C318.141 231.253 319.671 231.177 321.125 234.39C322.578 237.604 322.349 238.216 321.584 240.817C320.819 243.419 319.671 243.648 317.911 243.648C317.911 261.399 316.763 268.055 308.424 279.991C301.002 290.626 300.62 289.325 290.52 286.112C284.705 284.275 278.967 282.21 275.218 280.756C273.046 279.965 271.22 278.436 270.06 276.437C268.899 274.437 268.477 272.093 268.868 269.815C269.556 266.601 271.698 264.536 275.6 265.836Z" fill="#FFE75C"/>
<path d="M275.6 265.836C276.012 265.349 276.396 264.838 276.748 264.306C276.952 264.022 277.094 263.698 277.162 263.354C277.231 263.011 277.225 262.657 277.146 262.317C277.066 261.975 276.914 261.655 276.7 261.379C276.486 261.102 276.215 260.874 275.906 260.71C255.019 249.233 247.674 247.856 236.197 247.856C228.775 247.856 229.158 249.769 229.846 253.288C224.567 258.185 224.644 259.868 228.316 264.688C231.989 269.509 233.136 271.421 236.579 271.421C240.022 271.421 248.056 271.498 255.095 267.902C262.134 264.306 265.501 262.47 275.6 265.836Z" fill="white"/>
<path d="M275.294 231.177C266.801 229.723 258.156 228.805 258.079 228.805C257.993 228.794 257.905 228.802 257.821 228.828C257.738 228.853 257.661 228.897 257.596 228.955C257.531 229.013 257.479 229.084 257.443 229.164C257.408 229.243 257.39 229.33 257.391 229.417C257.368 229.588 257.41 229.763 257.509 229.904C257.608 230.046 257.757 230.145 257.926 230.182C258.079 230.182 267.108 231.1 275.83 232.63C275.677 232.171 275.524 231.712 275.294 231.177Z" fill="black"/>
<path d="M258.232 228.423C257.778 229.083 257.369 229.773 257.008 230.488" stroke="black" stroke-width="1.53022" stroke-linecap="round" stroke-linejoin="round"/>
<path d="M287.688 269.968L292.738 271.422" stroke="black" stroke-width="1.53022" stroke-linecap="round" stroke-linejoin="round"/>
<path d="M244.154 217.176C244.076 217.464 243.973 217.746 243.848 218.017C243.795 218.141 243.711 218.248 243.603 218.329C243.496 218.41 243.369 218.46 243.236 218.476H243.006C242.922 218.451 242.845 218.409 242.778 218.351C242.712 218.294 242.659 218.222 242.623 218.143C242.587 218.063 242.568 217.976 242.568 217.889C242.568 217.801 242.587 217.714 242.623 217.635C242.7 217.405 244.307 212.662 245.76 209.295C245.822 209.159 245.93 209.05 246.066 208.989C246.066 209.907 246.143 210.749 246.22 211.667C246.296 212.585 244.613 215.798 244.154 217.176Z" fill="#FFC619"/>
<path d="M315.615 266.372C315.89 265.559 315.971 264.693 315.851 263.842C315.732 262.992 315.415 262.182 314.927 261.476C314.587 261.075 314.202 260.716 313.779 260.404C312.827 259.863 311.742 259.597 310.647 259.638C309.553 259.678 308.491 260.023 307.582 260.634C308.041 258.033 308.653 253.289 308.194 249.693C307.735 246.097 306.358 246.556 305.516 246.403C303.068 245.944 299.701 248.545 296.717 253.212C296.182 250.688 295.416 249.463 294.192 249.157C293.858 249.09 293.511 249.137 293.206 249.289C292.901 249.441 292.656 249.691 292.509 249.999L291.361 252.753C292.892 250.458 293.733 250.458 293.963 250.458C294.192 250.458 295.187 251.07 295.722 255.202C295.739 255.338 295.8 255.465 295.898 255.562C295.995 255.659 296.122 255.721 296.258 255.737C296.401 255.765 296.55 255.75 296.685 255.696C296.821 255.642 296.938 255.55 297.023 255.431C300.16 249.693 303.527 247.398 305.286 247.704C307.046 248.01 306.74 249.004 306.817 249.922C307.505 254.59 305.975 262.011 305.975 262.088C305.954 262.22 305.971 262.355 306.025 262.478C306.08 262.6 306.169 262.704 306.281 262.776C306.416 262.839 306.564 262.865 306.712 262.851C306.86 262.838 307.002 262.785 307.123 262.7C308.806 260.94 311.407 260.481 313.014 261.552C314.621 262.623 315.386 266.525 313.626 271.346C314.432 269.749 315.099 268.085 315.615 266.372Z" fill="#FFF4B3"/>
<path d="M302.915 235.079C305.516 233.625 306.434 232.784 308.729 235.079C311.79 233.472 312.402 233.472 314.085 235.921" stroke="#FFC619" stroke-width="1.53022" stroke-linecap="round" stroke-linejoin="round"/>
<path d="M319.288 243.342C319.211 241.2 318.982 237.91 318.905 237.833C318.906 237.746 318.888 237.659 318.852 237.58C318.817 237.5 318.765 237.429 318.699 237.371C318.634 237.313 318.558 237.269 318.474 237.244C318.391 237.218 318.303 237.21 318.217 237.221C318.129 237.22 318.043 237.239 317.963 237.274C317.884 237.309 317.813 237.361 317.755 237.426C317.696 237.492 317.653 237.568 317.627 237.652C317.601 237.735 317.594 237.823 317.605 237.91C317.605 237.986 317.911 241.276 317.911 243.418C317.907 243.46 317.912 243.502 317.925 243.541C317.938 243.581 317.96 243.617 317.987 243.648H319.211L319.288 243.342Z" fill="black"/>
<path d="M320.129 240.74H318.445C318.355 240.74 318.266 240.723 318.182 240.688C318.098 240.653 318.022 240.603 317.959 240.538C317.895 240.475 317.844 240.399 317.809 240.315C317.774 240.232 317.757 240.142 317.757 240.052C317.776 239.883 317.856 239.727 317.983 239.613C318.111 239.501 318.276 239.439 318.445 239.44H320.129C320.299 239.439 320.463 239.501 320.59 239.613C320.718 239.727 320.798 239.883 320.817 240.052C320.817 240.142 320.8 240.232 320.764 240.315C320.73 240.399 320.68 240.475 320.615 240.538C320.552 240.603 320.476 240.653 320.392 240.688C320.308 240.723 320.219 240.74 320.129 240.74Z" fill="black"/>
<path d="M296.259 285.04C297.874 285 299.485 284.847 301.079 284.581" stroke="#FFC619" stroke-width="1.53022" stroke-linecap="round" stroke-linejoin="round"/>
<path d="M247.291 301.72C238.568 300.649 234.666 299.042 234.59 299.042H234.513V300.419C235.814 300.878 239.716 302.103 247.138 303.097H247.214C247.384 303.098 247.548 303.036 247.676 302.924C247.803 302.81 247.883 302.654 247.903 302.485C247.913 302.395 247.906 302.303 247.88 302.215C247.856 302.128 247.813 302.046 247.757 301.975C247.699 301.904 247.629 301.845 247.549 301.8C247.469 301.757 247.381 301.729 247.291 301.72Z" fill="black"/>
<path d="M279.732 298.201C277.781 298.823 276.017 299.928 274.606 301.414" stroke="black" stroke-width="1.53022" stroke-linecap="round" stroke-linejoin="round"/>
<path d="M307.888 304.551C310.98 303.183 313.971 301.598 316.839 299.808" stroke="black" stroke-width="1.53022" stroke-linecap="round" stroke-linejoin="round"/>
<path d="M309.418 303.862L313.473 304.015" stroke="black" stroke-width="1.53022" stroke-linecap="round" stroke-linejoin="round"/>
<path d="M230.534 252.906C243.235 251.682 252.264 254.589 264.735 260.175C252.264 259.333 237.573 258.874 237.573 258.874" stroke="#BAE8FF" stroke-width="1.53022" stroke-linecap="round" stroke-linejoin="round"/>
<path d="M227.092 315.721H278.048C278.779 315.721 279.479 316.011 279.996 316.528C280.512 317.045 280.802 317.745 280.802 318.476V351.605H224.337V318.476C224.337 317.745 224.627 317.045 225.144 316.528C225.661 316.011 226.361 315.721 227.092 315.721Z" fill="#8CD9FF"/>
<path d="M275.752 315.721H278.048C278.778 315.721 279.478 316.011 279.996 316.528C280.512 317.045 280.802 317.745 280.802 318.476V351.605H272.998V318.476C272.998 318.114 273.069 317.756 273.207 317.422C273.346 317.088 273.549 316.784 273.804 316.528C274.061 316.272 274.364 316.07 274.698 315.931C275.032 315.793 275.39 315.721 275.752 315.721Z" fill="#45AAF7"/>
<path d="M231.836 341.047H265.501C266.11 341.047 266.694 341.289 267.124 341.719C267.554 342.149 267.796 342.733 267.796 343.342V351.605H229.617V343.342C229.617 342.746 229.848 342.174 230.262 341.745C230.676 341.317 231.241 341.067 231.836 341.047Z" fill="#45AAF7"/>
<path d="M233.366 315.721V351.605" stroke="#5865F2" stroke-width="1.53022" stroke-miterlimit="10"/>
<path d="M263.894 315.721V351.605" stroke="#5865F2" stroke-width="1.53022" stroke-miterlimit="10"/>
<path d="M265.806 318.476H231.453C230.396 318.476 229.54 319.332 229.54 320.389V332.623C229.54 333.68 230.396 334.536 231.453 334.536H265.806C266.863 334.536 267.719 333.68 267.719 332.623V320.389C267.719 319.332 266.863 318.476 265.806 318.476Z" fill="black"/>
<path d="M272.309 321.078C272.206 321.065 272.101 321.077 272.002 321.11C271.904 321.145 271.814 321.201 271.741 321.274C271.667 321.348 271.611 321.437 271.577 321.536C271.543 321.635 271.532 321.739 271.544 321.843C271.544 322.045 271.624 322.24 271.768 322.384C271.911 322.527 272.106 322.608 272.309 322.608H280.802V321.078H272.309Z" fill="#5865F2"/>
<path d="M271.544 325.133C271.532 325.236 271.543 325.341 271.577 325.439C271.611 325.538 271.667 325.627 271.741 325.701C271.814 325.774 271.904 325.83 272.002 325.865C272.101 325.898 272.206 325.91 272.309 325.898H280.802V324.367H272.309C272.106 324.367 271.911 324.448 271.768 324.592C271.624 324.735 271.544 324.93 271.544 325.133Z" fill="#5865F2"/>
<path d="M271.544 328.499C271.544 328.702 271.624 328.897 271.768 329.04C271.911 329.184 272.106 329.264 272.309 329.264H280.802V327.734H272.309C272.206 327.722 272.101 327.733 272.002 327.767C271.904 327.801 271.814 327.857 271.741 327.93C271.667 328.005 271.611 328.094 271.577 328.192C271.543 328.291 271.532 328.396 271.544 328.499Z" fill="#5865F2"/>
<path d="M225.714 321.842C225.698 322.04 225.611 322.224 225.471 322.364C225.331 322.504 225.147 322.59 224.949 322.607H224.337V321.077H224.949C225.152 321.077 225.347 321.157 225.49 321.301C225.634 321.444 225.714 321.64 225.714 321.842Z" fill="#5865F2"/>
<path d="M225.714 325.133C225.714 325.335 225.634 325.53 225.49 325.673C225.347 325.817 225.152 325.898 224.949 325.898H224.337V324.367H224.949C225.147 324.385 225.331 324.471 225.471 324.611C225.611 324.751 225.698 324.935 225.714 325.133Z" fill="#5865F2"/>
<path d="M225.714 328.499C225.698 328.696 225.611 328.881 225.471 329.021C225.331 329.161 225.147 329.247 224.949 329.264H224.337V327.734H224.949C225.152 327.734 225.347 327.814 225.49 327.958C225.634 328.101 225.714 328.296 225.714 328.499Z" fill="#5865F2"/>
<path d="M256.013 319.624H233.595C233.046 319.624 232.601 320.069 232.601 320.618V331.215C232.601 331.765 233.046 332.21 233.595 332.21H256.013C256.563 332.21 257.008 331.765 257.008 331.215V320.618C257.008 320.069 256.563 319.624 256.013 319.624Z" fill="#FFF4B3"/>
<path d="M265.5 332.248H259.379C258.999 332.248 258.69 332.556 258.69 332.937V333.87C258.69 334.25 258.999 334.559 259.379 334.559H265.5C265.88 334.559 266.189 334.25 266.189 333.87V332.937C266.189 332.556 265.88 332.248 265.5 332.248Z" fill="#FF78B9"/>
<path d="M241.629 321.077C241.629 322.944 242.37 324.735 243.691 326.055C245.011 327.375 246.801 328.117 248.668 328.117C250.535 328.117 252.325 327.375 253.645 326.055C254.965 324.735 255.707 322.944 255.707 321.077C255.698 320.589 255.646 320.103 255.554 319.624H241.782C241.651 320.097 241.599 320.588 241.629 321.077Z" fill="#29CC7A"/>
<path d="M234.667 332.248H246.144C245.493 331.332 244.633 330.585 243.634 330.07C242.636 329.555 241.529 329.285 240.405 329.285C239.282 329.285 238.175 329.555 237.177 330.07C236.178 330.585 235.317 331.332 234.667 332.248Z" fill="#29CC7A"/>
<path d="M54.0996 344.871C54.0996 344.871 47.3666 332.859 41.1692 324.06L30.1516 328.115C30.1516 328.115 41.0928 341.275 44.0002 351.604H45.2244C48.264 351.645 51.2893 351.179 54.1761 350.227C57.0835 349.156 59.5319 347.778 60.603 345.942C61.6742 344.106 58.5372 344.871 54.0996 344.871Z" fill="#FFC619"/>
<path d="M44.2296 328.651C43.235 327.044 42.1639 325.514 41.1692 324.06L30.1516 328.115C30.1516 328.115 33.2121 331.788 36.502 336.761C35.6604 332.706 42.1639 329.569 44.2296 328.651Z" fill="black"/>
<path d="M30.381 346.631C34.6656 337.297 34.3595 334.007 32.5233 325.208L20.7406 324.825C23.3419 335.231 23.6479 339.821 19.8223 348.391C19.4194 349.411 19.2877 350.518 19.4398 351.604H37.9555C38.4911 349.921 36.8844 349.156 30.381 346.631Z" fill="#FFC619"/>
<path d="M33.442 329.722C33.2124 328.345 32.9065 326.891 32.5239 325.208L20.7412 324.825C21.4941 327.826 22.0815 330.865 22.5009 333.93C22.5009 333.93 28.2392 330.717 33.442 329.722Z" fill="black"/>
<path d="M46.9848 285.193C47.4705 283.562 47.306 281.808 46.5258 280.296C46.2805 279.787 46.1932 279.216 46.275 278.657C46.3568 278.099 46.604 277.577 46.9848 277.159C47.5328 276.431 47.9236 275.597 48.1325 274.711C49.0506 271.65 47.6735 268.437 45.2251 267.672C42.7768 266.907 39.9459 268.743 39.1043 271.88C38.6616 273.489 38.8249 275.204 39.5633 276.7C39.8062 277.218 39.8992 277.793 39.8316 278.362C39.7639 278.93 39.5385 279.467 39.1808 279.913C38.5943 280.598 38.1753 281.411 37.9566 282.285C37.115 285.422 38.4157 288.559 40.9405 289.324C43.4654 290.089 46.1432 288.253 46.9848 285.193Z" fill="white"/>
<path d="M45.4535 281.979C45.6662 281.154 45.6925 280.292 45.5301 279.455C45.4464 279.12 45.4304 278.771 45.4829 278.429C45.5355 278.087 45.6555 277.76 45.8361 277.465C46.0404 277.017 46.2192 276.557 46.3717 276.088C46.7543 274.252 46.4482 272.645 45.6066 272.339C44.765 272.033 43.6173 273.257 43.1582 275.093C42.9068 276.051 42.9334 277.059 43.2348 278.001C43.3059 278.19 43.3292 278.394 43.3025 278.594C43.2758 278.794 43.1999 278.985 43.0817 279.149C42.7705 279.709 42.5143 280.299 42.3166 280.908C41.781 282.745 42.1636 284.428 43.0817 284.657C43.9998 284.887 44.9945 283.739 45.4535 281.979Z" fill="black"/>
<path d="M46.9844 326.815L19.8995 330.564C19.4282 330.639 18.9457 330.586 18.5017 330.411C18.0578 330.236 17.6687 329.945 17.3746 329.57L0.542175 307.917C0.271981 307.532 0.0964641 307.089 0.0299837 306.624C-0.0364961 306.159 0.00794234 305.684 0.159619 305.239L10.4886 279.914C10.6624 279.467 10.9529 279.075 11.3297 278.779C11.7066 278.483 12.1559 278.294 12.631 278.231L39.7158 274.482C40.1923 274.439 40.6721 274.514 41.1126 274.701C41.553 274.888 41.9405 275.18 42.2407 275.553L58.9967 297.129C59.2998 297.498 59.4959 297.942 59.5634 298.414C59.6309 298.886 59.5672 299.368 59.3792 299.807L49.1267 325.132C48.94 325.57 48.6459 325.955 48.2714 326.248C47.8969 326.543 47.4542 326.738 46.9844 326.815Z" fill="#29CC7A"/>
<path d="M15.5373 320.464L18.5212 329.033M15.5373 320.464L1.07666 306.692L11.1762 289.171L39.2557 301.183L47.2894 325.514L15.5373 320.464Z" stroke="#15AD75" stroke-width="1.53022" stroke-linecap="round" stroke-linejoin="round"/>
<path d="M15.5381 320.465L11.177 289.172L11.789 279.608" stroke="#15AD75" stroke-width="1.53022" stroke-linecap="round" stroke-linejoin="round"/>
<path d="M15.5386 320.465L39.257 301.184L58.6908 298.506" stroke="#15AD75" stroke-width="1.53022" stroke-linecap="round" stroke-linejoin="round"/>
<path d="M11.177 289.171L40.3276 275.782L39.2565 301.184" stroke="#15AD75" stroke-width="1.53022" stroke-linecap="round" stroke-linejoin="round"/>
<path d="M34.3591 281.673C33.9182 279.661 32.8134 277.855 31.2223 276.547C30.709 276.115 30.3187 275.555 30.0903 274.924C29.862 274.292 29.8038 273.612 29.9216 272.951C30.0851 271.935 30.0592 270.897 29.8451 269.891C29.0034 266.218 25.8664 263.234 22.8825 263.234C19.8985 263.234 18.1389 266.218 18.9805 269.891C19.3996 271.933 20.5069 273.77 22.1174 275.093C22.6306 275.526 23.021 276.086 23.2493 276.717C23.4776 277.348 23.5359 278.028 23.4181 278.689C23.2533 279.68 23.2793 280.692 23.4946 281.673C24.3363 285.422 27.4732 288.406 30.4571 288.406C33.4411 288.406 35.2008 285.422 34.3591 281.673Z" fill="white"/>
<path d="M31.2228 279.991C31.0298 279.052 30.6385 278.165 30.0751 277.389C29.607 276.741 29.3407 275.969 29.31 275.17C29.3041 274.602 29.227 274.037 29.0805 273.487C28.6214 271.345 27.3207 269.432 26.2496 269.203C25.1784 268.973 24.6428 270.656 25.1784 272.875C25.5117 274.136 26.1119 275.31 26.9382 276.318C27.1121 276.486 27.2494 276.689 27.3416 276.913C27.4337 277.137 27.4787 277.377 27.4737 277.619C27.389 278.358 27.4149 279.106 27.5503 279.838C28.0093 281.903 29.31 283.51 30.3047 283.51C31.2993 283.51 31.6819 281.98 31.2228 279.991Z" fill="black"/>
<path d="M44.7659 304.167C45.6573 306.935 46.8369 309.603 48.2854 312.124C49.433 313.731 50.6572 313.808 51.6519 312.124C52.6465 310.441 53.7177 307.151 54.7888 304.473" stroke="black" stroke-width="1.53022" stroke-linecap="round" stroke-linejoin="round"/>
<path d="M43.0825 304.55C43.9293 304.008 44.7466 303.42 45.531 302.791" stroke="black" stroke-width="1.53022" stroke-linecap="round" stroke-linejoin="round"/>
<path d="M30.3823 346.631H27.5515" stroke="black" stroke-width="1.53022" stroke-linecap="round" stroke-linejoin="round"/>
<path d="M54.0988 344.872L51.574 345.56" stroke="black" stroke-width="1.53022" stroke-linecap="round" stroke-linejoin="round"/>
<path d="M111.867 334.008C111.048 333.996 110.258 333.711 109.621 333.198C108.983 332.685 108.535 331.974 108.348 331.177C106.963 325.691 105.302 320.277 103.374 314.957C103.055 314.043 103.108 313.041 103.524 312.167C103.939 311.294 104.683 310.619 105.593 310.29C106.04 310.119 106.516 310.04 106.994 310.055C107.472 310.071 107.942 310.181 108.377 310.381C108.811 310.58 109.201 310.864 109.525 311.217C109.848 311.569 110.098 311.982 110.26 312.432C112.286 318.027 114.022 323.721 115.463 329.494C115.671 330.427 115.508 331.404 115.009 332.218C114.508 333.032 113.711 333.619 112.785 333.855L111.867 334.008Z" fill="#2331B5"/>
<path d="M108.577 297.741C117.535 297.741 124.797 290.48 124.797 281.521C124.797 272.563 117.535 265.301 108.577 265.301C99.6181 265.301 92.3564 272.563 92.3564 281.521C92.3564 290.48 99.6181 297.741 108.577 297.741Z" fill="#8CD9FF"/>
<path d="M104.828 291.544C99.0892 289.402 93.81 288.79 91.6677 289.861C91.3662 290.006 91.1122 290.235 90.9362 290.52C90.7602 290.804 90.6684 291.133 90.673 291.468V300.879L109.189 307.841L115.463 300.802C115.688 300.56 115.838 300.257 115.893 299.93C115.947 299.604 115.903 299.268 115.769 298.966C114.927 296.747 110.566 293.687 104.828 291.544Z" fill="white"/>
<path d="M115.139 307.732C116.075 305.24 110.582 300.87 102.869 297.971C95.1562 295.071 88.144 294.741 87.2075 297.233C86.271 299.725 91.7637 304.095 99.4768 306.994C107.19 309.893 114.202 310.224 115.139 307.732Z" fill="#7AC5FF"/>
<path d="M87.0769 296.441C87.269 295.953 87.5681 295.515 87.9522 295.157C88.3363 294.8 88.7954 294.533 89.2958 294.375C93.0448 293.304 98.5536 293.993 103.221 295.753C107.888 297.512 112.479 300.649 114.621 303.863C114.924 304.306 115.117 304.815 115.183 305.346C115.25 305.879 115.188 306.42 115.003 306.923L114.774 307.459L86.8474 296.977L87.0769 296.441Z" fill="#7AC5FF"/>
<path d="M111.396 307.198C111.991 305.616 107.76 302.562 101.945 300.377C96.1309 298.191 90.935 297.702 90.3405 299.284C89.7453 300.866 93.9771 303.921 99.7912 306.106C105.606 308.292 110.802 308.781 111.396 307.198Z" fill="white"/>
<path d="M106.588 349.004C101.844 328.116 111.102 306.922 111.102 306.922L100.544 302.944L86.1597 341.276L106.588 349.004Z" fill="white"/>
<path d="M65.7305 333.625C83.0223 321.001 89.9848 299.042 89.9848 299.042L100.543 302.945L86.1592 341.277L65.7305 333.625Z" fill="white"/>
<path d="M108.744 349.964C109.992 346.642 101.033 340.2 88.7314 335.577C76.43 330.953 65.4457 329.898 64.1968 333.221C62.9479 336.543 71.9076 342.985 84.2089 347.609C96.5103 352.232 107.495 353.287 108.744 349.964Z" fill="#3F99F2"/>
<path d="M64.1233 332.248C64.3858 331.57 64.8081 330.965 65.3542 330.486C65.9004 330.007 66.5542 329.666 67.2602 329.493C71.6979 328.422 80.4204 329.876 89.2192 333.166C98.018 336.456 105.44 341.123 108.194 344.872C108.602 345.471 108.857 346.16 108.937 346.88C109.017 347.601 108.919 348.329 108.653 349.004L108.423 349.692L63.8938 332.936L64.1233 332.248Z" fill="#3F99F2"/>
<path d="M84.4754 345.79C74.9877 342.271 67.1835 337.756 66.8775 335.614C66.5714 333.472 75.5233 334.467 87.0768 338.828C98.63 343.189 106.281 348.085 104.445 349.692C102.609 351.299 93.8863 349.386 84.4754 345.79Z" fill="#2331B5"/>
<path d="M66.8778 335.614C66.9543 336.609 68.7141 338.063 71.4685 339.746L73.7638 334.849C69.4027 334.084 66.6483 334.237 66.8778 335.614Z" fill="black"/>
<path d="M93.8103 348.851C99.2426 350.228 103.374 350.687 104.445 349.692C105.516 348.698 102.303 345.714 96.0291 342.653L93.8103 348.851Z" fill="black"/>
<path d="M88.9886 307.918L88.8356 307.459C87.2289 309.831 85.9282 312.049 87.9175 312.815C89.9067 313.58 94.7269 311.973 101.689 308.912V307.918C93.3497 309.984 87.8409 310.29 88.9886 307.918Z" fill="#5865F2"/>
<path d="M88.9897 307.918L88.8367 307.459C87.23 309.754 86.0058 311.973 87.7656 312.738C87.9989 311.453 88.4939 310.229 89.2193 309.142C89.119 309.081 89.0333 308.999 88.9668 308.902C88.9002 308.805 88.8551 308.696 88.8336 308.581C88.8122 308.466 88.8145 308.347 88.8413 308.233C88.8681 308.119 88.9186 308.011 88.9897 307.918Z" fill="black"/>
<path d="M88.8374 308.682C88.9415 308.98 89.018 309.288 89.0669 309.6C89.132 309.867 89.2651 310.113 89.4526 310.314C89.64 310.515 89.8757 310.665 90.1381 310.748C91.6683 311.283 94.6522 311.054 101.691 308.912V307.917C94.4227 309.753 89.373 310.136 88.8374 308.682Z" fill="black"/>
<path d="M101.46 307.229C101.192 308.235 101.33 309.307 101.843 310.213" stroke="black" stroke-width="1.53022" stroke-linecap="round" stroke-linejoin="round"/>
<path d="M88.3025 307.764L89.2971 307.305" stroke="black" stroke-width="1.53022" stroke-linecap="round" stroke-linejoin="round"/>
<path d="M95.4935 278.308C95.9433 277.104 96.6786 276.029 97.6358 275.171C98.6411 274.323 99.814 273.697 101.079 273.335C101.755 273.175 102.449 273.097 103.145 273.105C103.917 273.15 104.66 273.416 105.287 273.87C105.6 274.11 105.862 274.409 106.06 274.75C106.256 275.091 106.384 275.468 106.435 275.859C106.498 276.217 106.49 276.584 106.411 276.938C106.332 277.292 106.184 277.628 105.975 277.925C105.899 278.078 105.669 278.078 105.516 278.002C105.488 277.971 105.467 277.934 105.454 277.895C105.441 277.856 105.436 277.814 105.44 277.772C105.392 277.237 105.236 276.716 104.981 276.242C104.808 275.916 104.542 275.649 104.216 275.477C103.36 275.151 102.425 275.097 101.538 275.324C100.538 275.587 99.583 275.999 98.7069 276.548C97.7238 277.109 96.8439 277.833 96.1056 278.69C96.0336 278.761 95.938 278.8 95.8378 278.8C95.7375 278.8 95.6411 278.761 95.57 278.69C95.5141 278.645 95.4766 278.582 95.4629 278.513C95.4483 278.443 95.459 278.371 95.4935 278.308Z" fill="black"/>
<path d="M97.1001 323.297C101.508 326.133 105.633 329.387 109.418 333.014C110.09 333.626 110.958 333.979 111.867 334.008C112.368 334.015 112.866 333.916 113.327 333.718C113.788 333.52 114.203 333.229 114.545 332.861C115.197 332.142 115.546 331.199 115.518 330.229C115.49 329.259 115.086 328.337 114.392 327.658C108.041 321.767 103.221 318.4 100.926 317.023C98.6303 315.646 97.1766 315.263 93.5806 315.263C92.2034 315.263 91.8208 315.722 90.6731 318.247C89.5255 320.772 90.7497 321.614 93.5041 321.614C94.6517 321.614 95.6464 322.302 97.1001 323.297Z" fill="#2331B5"/>
<path d="M84.3226 314.42C83.2713 314.202 82.1764 314.394 81.2621 314.956C80.764 315.227 80.3226 315.59 79.9614 316.027L79.5024 316.639C78.1252 318.399 77.4366 319.241 77.5131 319.853C77.5536 320.43 77.6822 320.998 77.8956 321.536L78.5842 320.618C80.0379 318.705 82.1803 319.394 83.0219 319.394C83.8635 319.394 84.5521 317.557 85.2407 316.18C85.9293 314.803 85.6998 314.497 84.3226 314.42Z" fill="#2331B5"/>
<path d="M100.084 316.563C98.9365 316.028 98.4774 314.497 98.1714 313.579C97.8653 312.661 97.1767 312.814 96.5646 313.044C95.9526 313.273 95.6465 313.809 96.3351 315.951C97.0237 318.093 100.084 316.563 100.084 316.563Z" fill="#2331B5"/>
<defs>
<clipPath id="clip0_245_9302">
<rect x="106.84" width="127.778" height="294.288" rx="8.91782" fill="white"/>
</clipPath>
<clipPath id="clip1_245_9302">
<rect x="106.84" width="127.778" height="294.288" rx="8.91782" fill="white"/>
</clipPath>
</defs>
</svg>
