<svg width="271" height="31" viewBox="0 0 271 31" fill="none" xmlns="http://www.w3.org/2000/svg">
<path d="M130.589 14.4149H132.635V30.4539H151.461V14.4149H153.507L153.734 20H156.869V0.5H127.273V20H130.362L130.589 14.4149Z" fill="white"/>
<path d="M74.266 0.5H62.9823V11.9291L69.493 18.7092L68.4894 19.9184L64.8369 17.5106L62.9823 19.3972V30.5H77.1348L92.9362 14.6525V0.5H81.7092L78.0639 4.29433L74.266 0.5Z" fill="white"/>
<path d="M188 0.5H159.035V30.4539H188V0.5ZM174.759 19.0142H172.277V11.8901H174.759V19.0142Z" fill="white"/>
<path d="M117.805 25.1808L113.752 24.6418V22.844H125.106V0.50354H95.1064V30.4539H117.809V25.1808H117.805ZM112.135 16.312H109.876V9.86524H112.135V16.312Z" fill="white"/>
<path d="M44.8227 26.7057L49.3263 30.5H60.8156V21.961L57.5709 19.0709L58.5745 18.0638H60.8156V0.5H30.6348V30.5H44.8227V26.7057ZM44.5071 9.9539H46.9468V16.4929H44.5071V9.9539Z" fill="white"/>
<path d="M0 26.195L4.09574 30.4539H28.4681V19.1986L26.1986 16.6277H19.8156V14.461H26.1702L28.4681 11.5532V0.5H4.08511L0 4.5851V26.195Z" fill="white"/>
<path d="M244.66 14.4149H246.706V30.4539H265.535V14.4149H267.582L267.805 20H270.94V0.5H241.348V20H244.436L244.66 14.4149Z" fill="white"/>
<path d="M223.348 0.5H207.511V30.4539H223.376L239.177 14.6064V0.5H227.929L223.348 5.95745V0.5Z" fill="white"/>
</svg>
